<?xml version="1.0" encoding="UTF-8" standalone="no"?>
<!DOCTYPE svg  PUBLIC '-//W3C//DTD SVG 1.1//EN'  'http://www.w3.org/Graphics/SVG/1.1/DTD/svg11.dtd'>
<svg xmlns="http://www.w3.org/2000/svg" version="1.1">
<defs>
<font id="Andantinoscript" horiz-adv-x="304">
<font-face ascent="800" underline-position="-163" font-weight="400" font-family="Andantino script" cap-height="801" underline-thickness="20" unicode-range="U+0020-0451" bbox="-199 -307.5 1856 935" x-height="309" descent="-200" panose-1="2 0 4 0 0 0 0 0 0 0" units-per-em="1000"/>
<missing-glyph/>
<glyph unicode=" " horiz-adv-x="221" glyph-name="space"/>
<glyph d="M420 628l-259 -491l-17 3l210 488q7 13 30 13q32 0 36 -13zM154 61q0 -25 -19 -49.5t-43 -24.5q-27 0 -27 32q0 24 19.5 49t42.5 25q27 0 27 -32z" unicode="!" horiz-adv-x="320" glyph-name="exclam"/>
<glyph d="M469 712q0 -60 -40 -117t-96 -74l-10 13q34 15 60 42q29 31 34 63q-34 5 -34 37q0 27 17.5 50.5t40.5 23.5q28 0 28 -38zM356 712q0 -60 -40 -117t-97 -74l-9 13q33 15 59 42q29 31 34 63q-34 5 -34 37q0 27 17.5 50.5t41.5 23.5q28 0 28 -38z" unicode='&quot;' horiz-adv-x="269" glyph-name="quotedbl"/>
<glyph d="M594 393l-18 -40h-121l-52 -113h121l-19 -41h-121l-90 -196h-50l90 196h-113l-91 -196h-50l91 196h-114l19 41h114l52 113h-114l18 40h114l96 208h50l-96 -208h114l95 208h50l-95 -208h120zM405 353h-113l-52 -113h113z" unicode="#" horiz-adv-x="589" glyph-name="numbersign"/>
<glyph d="M397 472q0 -28 -14 -54q-17 -32 -46 -32t-29 35q0 34 29.5 57t29.5 27q0 17 -27 29l-96 -196q33 -37 45 -57q21 -34 21 -72q0 -68 -52 -122q-55 -57 -132 -57q-16 0 -31 4l-28 -58h-23l31 64q-58 24 -58 83q0 27 15 53q18 31 46 31q30 0 30 -34q0 -49 -55 -66 q-8 -2 -8 -12q0 -24 38 -39l104 213q-51 62 -51 115q0 62 46 117q50 60 119 60q14 0 28 -3l31 65h23l-35 -72q49 -24 49 -79zM321 542q-11 2 -20 2q-46 0 -78 -33t-32 -74q0 -38 38 -83zM248 157q0 39 -46 94l-99 -201q14 -3 25 -3q53 0 86.5 31.5t33.5 78.5z" unicode="$" horiz-adv-x="367" glyph-name="dollar"/>
<glyph d="M560 558l-434 -555q-7 0 -11.5 6.5t-3.5 12.5l294 403q-28 -12 -52 -12q-13 0 -20 1q-29 -53 -73.5 -89.5t-83.5 -36.5q-77 0 -77 77q0 83 66 160t148 77q14 0 14 -7q0 -10 -14 -10q-56 0 -113 -98q-52 -90 -52 -150q0 -33 30 -33q27 0 64 38q34 36 59 86q-32 25 -32 67 q0 38 18 60q14 18 32 18q43 0 43 -58q0 -40 -20 -84q4 -1 13 -1q52 0 102 68l72 97q9 12 14 3l14 -27q6 -10 3 -13zM543 238q0 -79 -62 -160t-126 -81q-40 0 -59 22t-19 53q0 77 65 155q69 82 148 82q53 0 53 -71zM329 521q0 33 -14 33q-17 0 -17 -56q0 -36 12 -52 q19 44 19 75zM513 263q0 31 -31 31q-47 0 -100.5 -87t-53.5 -161q0 -33 30 -33q48 0 101.5 85t53.5 165z" unicode="%" horiz-adv-x="580" glyph-name="percent"/>
<glyph d="M1024 279q-16 -23 -74 -48q-72 -31 -173 -45q-33 -5 -61 -7q-62 -72 -194 -128q-126 -53 -259 -53q-114 0 -173 48q-52 44 -52 119q0 103 119 182q106 70 266 98q-40 33 -40 79q0 81 113.5 155t231.5 74q44 0 67 -23q20 -21 20 -53q0 -35 -22 -64t-54 -29q-20 0 -33 13.5 t-13 30.5q0 19 13.5 34t36.5 15l7.5 -1.5t13.5 -1.5q27 0 27 27q0 10 -15 20q-19 13 -48 13q-70 0 -176 -81q-115 -88 -115 -167q0 -23 14 -36q62 9 121 9q62 0 101 -8.5t39 -20.5q0 -13 -38 -23t-86 -10q-79 0 -138 30q-141 -33 -237 -122.5t-96 -182.5q0 -98 142 -98 q242 0 422 154h-42q-93 0 -194.5 9.5t-136.5 9.5q-63 0 -115 -43q-10 4 -10 18q45 49 133 65q55 11 170 11q84 1 196 -8t140 -9q48 0 99 16q59 17 82 45q21 2 21 -13z" unicode="&amp;" horiz-adv-x="1042" glyph-name="ampersand"/>
<glyph d="M356 712q0 -60 -40 -117t-97 -74l-9 13q33 15 59 42q29 31 34 63q-34 5 -34 37q0 27 17.5 50.5t41.5 23.5q28 0 28 -38z" unicode="&apos;" horiz-adv-x="269" glyph-name="quotesingle"/>
<glyph d="M389 672q-25 -22 -56 -51q-119 -122 -167 -221q-58 -121 -58 -293q0 -44 6.5 -93.5t6.5 -52.5q0 -11 -5 -11q-17 0 -30 102q-10 81 -10 132q0 140 54 244q50 97 162 194q13 11 44 31q35 24 42 24q11 0 11 -5z" unicode="(" horiz-adv-x="282" glyph-name="parenleft"/>
<glyph d="M334 445q0 -140 -54 -244q-49 -97 -162 -194q-71 -61 -87 -61q-9 0 -9 11q26 13 54 43q115 125 167 238q59 128 59 286q0 44 -6.5 93t-6.5 52q0 10 5 10q17 0 30 -102q10 -81 10 -132z" unicode=")" horiz-adv-x="308" glyph-name="parenright"/>
<glyph d="M301 562q0 -14 -13 -19q-8 -3 -25.5 -0.5t-27.5 -3.5l-20 -12l21 -12q12 -7 29 -5q18 2 24 0q12 -5 12 -19q0 -13 -10 -27t-22 -14q-7 0 -13 4.5t-13 21t-17 22.5l-20 12v-24q0 -14 10.5 -28.5t11.5 -19.5q4 -26 -33 -26q-35 0 -32 26q1 8 12 22t11 26v24l-23 -13 q-16 -9 -20 -24t-9 -19t-12 -4q-12 0 -22 13.5t-10 26.5q0 22 19 22q4 0 11.5 -2t12.5 -2q10 0 20 6l22 13l-21 13q-11 6 -21 6q-5 0 -13 -2.5t-11 -2.5q-19 0 -19 22q0 13 10.5 26t22.5 13q7 0 12 -3.5t10 -18.5t19 -23l22 -13v25q0 18 -11 29t-12 16q-3 27 32 27 q36 0 33 -27q-1 -5 -11.5 -17t-10.5 -28v-24l19 11q12 7 19.5 23.5t12 20t11.5 3.5q12 0 22.5 -14t10.5 -27z" unicode="*" horiz-adv-x="364" glyph-name="asterisk"/>
<glyph d="M596 317l-15 -35h-189l-80 -199h-45l80 199h-191l14 35h191l81 199h45l-81 -199h190z" unicode="+" horiz-adv-x="654" glyph-name="plus"/>
<glyph d="M132 55q0 -60 -40 -117t-97 -74l-9 13q34 15 59 42q29 31 34 63q-34 4 -34 37q0 27 17.5 50.5t41.5 23.5q28 0 28 -38z" unicode="," horiz-adv-x="180" glyph-name="comma"/>
<glyph d="M135 61q0 -25 -19.5 -49.5t-43.5 -24.5q-27 0 -27 32q0 24 19.5 49t43.5 25q27 0 27 -32z" unicode="." horiz-adv-x="184" glyph-name="period"/>
<glyph d="M567 750l-519 -783h-52l519 783h52z" unicode="/" horiz-adv-x="350" glyph-name="slash"/>
<glyph d="M483 478q0 -75 -47 -188q-50 -121 -122 -200q-84 -93 -172 -93q-39 0 -63 26q-30 32 -30 94q0 146 110 315q113 173 217 173q51 0 79 -34t28 -93zM421 506q0 80 -50 80q-52 0 -118 -107q-57 -93 -102 -223q-43 -126 -43 -191q0 -52 44 -52q55 0 122 103q58 88 103 213 q44 118 44 177z" unicode="0" horiz-adv-x="444" glyph-name="zero"/>
<glyph d="M375 592l-251 -566q-4 -9 -5 -10q-3 -4 -9 -6l-55 -12q-8 -1 -12 3t0 11l234 481l-4 2q-17 -16 -64 -41t-79 -32q-14 2 -10 19q58 19 123 70q56 43 95 89q8 3 30 3q12 0 7 -11z" unicode="1" horiz-adv-x="294" glyph-name="one"/>
<glyph d="M430 508q0 -145 -178 -265q-53 -35 -115 -91q-52 -46 -58 -56l1 -5q20 8 51 8q33 0 87 -27.5t71 -27.5q46 0 67 51q11 5 13 -8q-7 -21 -37 -51q-39 -39 -76 -39q-29 0 -77 26t-90 26q-38 0 -68 -47q-4 -7 -12 -6q-15 1 -6 16q14 25 29 51q30 47 73 92l102 100 q74 75 114 135q53 81 53 144q0 54 -44 54q-48 0 -115.5 -89t-67.5 -150q0 -25 12 -41q1 -4 -4 -8q-4 -3 -9 0q-22 23 -22 81q0 71 59 144q65 80 146 80q45 0 73 -25.5t28 -71.5z" unicode="2" horiz-adv-x="407" glyph-name="two"/>
<glyph d="M441 506q0 -56 -74 -117q-44 -37 -88 -58l-1 -4q19 -3 39 -17q33 -23 33 -65q0 -90 -79.5 -168.5t-167.5 -78.5q-36 0 -60 17q-20 14 -25 32q0 4 2 6q-11 10 -11 30q0 24 17.5 45t40.5 21q31 0 31 -36q0 -23 -16 -46t-36 -23h-11q19 -28 57 -28q61 0 128 90q64 85 64 148 q0 54 -42 54q-10 0 -27 -8q-10 -5 -21 -10q-3 -1 -8.5 3t-5.5 9q0 4 7 7q68 28 102 58q41 37 69 84t28 84q0 51 -45 51q-49 0 -98.5 -55t-49.5 -104q0 -17 5 -27q5 -7 -5 -10q-11 -3 -18 19q-6 18 -6 30q0 67 49 116t119 49q48 0 76 -28.5t28 -69.5z" unicode="3" horiz-adv-x="392" glyph-name="three"/>
<glyph d="M446 586l-137 -354l105 2q14 0 14 -6q0 -7 -19 -18q-23 -13 -52 -13l-62 -1l-66 -169q-9 -24 -24 -25l-45 -5q-4 -1 -6 1.5t-1 9.5q1 5 4 12l75 176l-191 -1q-13 0 -13 9q0 4 5 9q104 90 209 196q128 130 166 182q8 12 28 12q17 0 10 -17zM363 505l-5 1l-240 -261 q-6 -5 -5 -10q0 -5 7 -5l127 2z" unicode="4" horiz-adv-x="425" glyph-name="four"/>
<glyph d="M502 600q0 -12 -26 -31q-30 -24 -68 -24h-113q-11 0 -15 -10l-66 -145q-2 -5 -2 -7q1 -2 4 -1q44 23 92 23q47 0 74.5 -24.5t27.5 -69.5q0 -113 -95.5 -213.5t-195.5 -100.5q-38 0 -63.5 22t-25.5 59q0 30 18.5 52t41.5 22q37 0 37 -44q0 -24 -15.5 -39.5t-35.5 -15.5 q-4 0 -11 2t-9 2q-3 0 -3 -3q0 -12 15 -23q19 -13 43 -13q85 0 162 119q68 106 68 187q0 57 -56 57q-39 0 -85 -34q-30 -22 -42 -41q-6 -7 -17 -6q-11 2 -5 16l122 269q7 16 19 15q65 -5 120 -3q26 1 62 6t35 5q8 0 8 -8z" unicode="5" horiz-adv-x="422" glyph-name="five"/>
<glyph d="M471 590q3 -6 -1 -11.5t-10 -4.5q-10 12 -40 12q-47 0 -118 -82q-61 -71 -121 -180q67 86 140 86q37 0 61 -26q25 -29 25 -80q0 -97 -86 -202t-173 -105q-108 0 -108 121q0 71 61 189.5t143 202.5q95 95 175 95q35 0 52 -15zM351 335q0 52 -42 52q-28 0 -69 -34 q-32 -26 -54 -55q-5 -7 -11 -7q-7 0 -8 5q-78 -150 -78 -217q0 -65 50 -65q63 0 139 122q73 118 73 199z" unicode="6" horiz-adv-x="421" glyph-name="six"/>
<glyph d="M486 567q0 -1 -15 -17q-106 -119 -179 -259q-14 -27 -29 -57l127 1q11 0 11 -7q0 -14 -26 -22q-21 -7 -37 -7h-92q-52 -107 -78 -172q-5 -14 -18 -17l-48 -13q-17 -5 -17 10q0 2 2 5q30 76 91 187l-77 -1q-10 0 -10 11q0 25 22 25h85q25 42 48 76q50 74 166 208l-3 4 q-6 -2 -23 -2q-19 0 -68.5 14.5t-76.5 14.5q-36 0 -58 -20t-21 -55q-1 -3 -7 -5q-7 -1 -10 2q-1 8 -1 15q0 49 38.5 81.5t95.5 32.5q30 0 78.5 -12.5t73.5 -12.5q12 0 26.5 1.5l14.5 1.5q15 0 15 -11z" unicode="7" horiz-adv-x="398" glyph-name="seven"/>
<glyph d="M464 514q0 -53 -43 -100q-39 -42 -100 -69q-19 -9 -32 -16q31 -71 36 -86q18 -48 18 -86q0 -67 -54 -114t-123 -47q-57 0 -93 32.5t-36 82.5q0 78 75 142q46 40 112 68q-33 81 -33 131q0 69 53 113q49 42 115 42q49 0 77 -28t28 -65zM417 523q0 64 -61 64q-40 0 -72 -37 t-32 -81q0 -51 29 -122q47 22 87 68q49 56 49 108zM279 136q0 53 -48 167q-46 -19 -92 -75q-52 -64 -52 -121q0 -91 81 -91q46 0 78.5 34.5t32.5 85.5z" unicode="8" horiz-adv-x="415" glyph-name="eight"/>
<glyph d="M463 484q0 -71 -60 -188q-62 -120 -144 -204q-95 -95 -176 -95q-35 0 -51 15q-3 6 1 11.5t9 4.5q10 -12 40 -12q48 0 118 82q62 71 121 180q-67 -86 -139 -86q-37 0 -62 27.5t-25 78.5q0 97 86 202t173 105q109 0 109 -121zM414 523q0 65 -50 65q-72 0 -147 -139 q-67 -122 -67 -191q0 -43 43 -43q29 0 70 33q31 26 53 56q5 7 12 7t8 -5q78 150 78 217z" unicode="9" horiz-adv-x="421" glyph-name="nine"/>
<glyph d="M225 283q0 -24 -19.5 -49t-42.5 -25q-27 0 -27 32q0 25 19 49.5t43 24.5q27 0 27 -32zM135 61q0 -25 -19.5 -49.5t-43.5 -24.5q-27 0 -27 32q0 24 19.5 49t43.5 25q27 0 27 -32z" unicode=":" horiz-adv-x="215" glyph-name="colon"/>
<glyph d="M225 283q0 -24 -19.5 -49t-42.5 -25q-27 0 -27 32q0 25 19 49.5t43 24.5q27 0 27 -32zM132 55q0 -60 -40 -117t-97 -74l-9 13q34 15 59 42q29 31 34 63q-34 4 -34 37q0 27 17.5 50.5t41.5 23.5q28 0 28 -38z" unicode=";" horiz-adv-x="214" glyph-name="semicolon"/>
<glyph d="M662 509l-17 -49l-472 -165l338 -165l-17 -37l-390 190l13 33z" unicode="&lt;" horiz-adv-x="711" glyph-name="less"/>
<glyph d="M664 391l-16 -38h-483l15 38h484zM603 241l-15 -38h-484l16 38h483z" unicode="=" horiz-adv-x="690" glyph-name="equal"/>
<glyph d="M635 314l-13 -34l-545 -192l17 49l472 165l-338 165l17 37z" unicode="&gt;" horiz-adv-x="693" glyph-name="greater"/>
<glyph d="M523 531q0 -55 -40 -111t-132 -136q-84 -74 -127 -144q-6 -4 -11 -4q-11 0 -17 11q14 46 82 115q98 99 116 122q59 75 59 146q0 35 -21 54t-55 19q-50 0 -111 -48q-65 -52 -65 -105t48 -53q37 0 66 28q7 -1 7 -9q0 -14 -25.5 -27t-54.5 -13q-26 0 -46 19t-20 49 q0 75 80 133q74 54 154 54q51 0 80 -25q33 -26 33 -75zM203 61q0 -25 -19 -49.5t-43 -24.5q-27 0 -27 32q0 24 19.5 49t42.5 25q27 0 27 -32z" unicode="?" horiz-adv-x="454" glyph-name="question"/>
<glyph d="M907 379q0 -120 -64 -216q-69 -103 -170 -103q-89 0 -98 106q-67 -105 -151 -105q-54 0 -91 41q-41 45 -41 119q0 96 76.5 184t158.5 88q80 0 107 -98l27 87h64l-84 -294q-6 -30 -6 -51q0 -55 45 -55q63 0 126 66q82 84 82 227q0 138 -90 224q-94 89 -254 89 q-179 0 -298 -112q-129 -122 -129 -330q0 -146 94 -245q109 -113 304 -113q169 0 304 100l16 -15q-69 -49 -126 -72q-91 -36 -201 -36q-179 0 -303 92q-142 107 -142 299q0 181 128 313q135 139 342 139q189 0 290 -107q84 -90 84 -222zM612 357q1 47 -22 79q-26 37 -74 37 q-62 0 -117 -116q-46 -99 -46 -165q0 -41 17 -72q21 -37 60 -37q77 0 133 102q47 86 49 172z" unicode="@" horiz-adv-x="922" glyph-name="at"/>
<glyph d="M1466 738q-60 -107 -191 -335q-38 -65 -76 -137q58 -2 80 -2q24 0 68 6q13 -6 3 -20q-31 -15 -167 -15q-9 -16 -17 -32q66 -37 66 -101q0 -48 -33.5 -76.5t-74.5 -28.5q-36 0 -60.5 26t-24.5 67q0 35 46 120q-64 19 -159 24q-299 -240 -576 -240q-126 0 -211 53 q-97 60 -97 168q0 126 138 213q127 80 284 80q166 0 262 -66q3 -3 3 -6q0 -17 -18 -12q-71 57 -213 57q-150 0 -277 -87q-134 -91 -134 -211q0 -76 77 -124q72 -44 175 -44q274 0 550 220l-96 2l-416 2h-33q-10 2 -10 10q0 9 27.5 24.5t49.5 15.5q15 0 191 -6q197 -7 272 -9 l61 -1q26 22 44 40q208 204 428 420q16 14 41 20q21 5 21 -6q0 -3 -3 -9zM1376 671l-8 1q-7 -8 -131 -136q-132 -136 -183 -187q-39 -39 -83 -77l146 -4q30 49 97 153zM1188 119q0 34 -34 60q-57 -113 -57 -137q0 -29 25 -29q23 0 44.5 33t21.5 73z" unicode="A" horiz-adv-x="1333" glyph-name="A"/>
<glyph d="M1160 650q0 -88 -99 -167q-77 -62 -193 -103q28 5 55 5q69 0 106 -36q34 -33 34 -88q0 -88 -85 -175q-88 -89 -186 -89q-106 0 -106 87q0 25 16 44.5t38 19.5q43 0 43 -46q0 -25 -17.5 -40.5t-38.5 -15.5q-13 0 -13 -5t15 -13q19 -10 43 -10q73 0 144.5 73t71.5 159 q0 52 -35 81q-30 26 -72 26q-31 0 -49 -6q-8 -4 -15 -8q-5 0 -8 6t-1 11q8 7 32 13q-5 2 -5 6q0 5 8 8q88 35 160 100q90 83 90 168q0 37 -25 55q-31 20 -108 20q-162 0 -374.5 -94.5t-356.5 -229.5q-158 -149 -158 -282q0 -51 42.5 -80.5t114.5 -29.5q116 0 228 74 q93 61 162 156q27 38 128 193q80 123 113 159q80 86 103 86q12 0 12 -10q0 -2 -19 -19q-25 -23 -44 -50q-39 -70 -79 -141q-71 -126 -137 -206q-215 -263 -474 -263q-93 0 -148 44.5t-55 122.5q0 129 164 273q151 133 373 224q227 93 407 93q198 0 198 -100z" unicode="B" horiz-adv-x="1076" glyph-name="B"/>
<glyph d="M1153 665q0 -103 -164 -210q-129 -85 -335 -158q-170 -60 -277 -76q-25 -58 -25 -102q0 -46 38 -72t97 -26q118 0 251 53q116 46 208 117q19 0 15 -13q-74 -68 -199 -121q-143 -62 -267 -62q-199 0 -199 180q0 17 4 38q-26 -2 -45 -2q-77 0 -144 25q-57 21 -74 46 q-3 8 2 11.5t15 3.5q75 -60 205 -60q20 0 47 2q32 119 163 242q122 116 280 192q162 78 286 78q57 0 89 -25q29 -22 29 -61zM1121 681q0 49 -68 49q-176 0 -382 -159q-189 -146 -279 -318q90 18 252 83q195 78 319 159q158 103 158 186z" unicode="C" horiz-adv-x="976" glyph-name="C"/>
<glyph d="M1255 410q0 -178 -166 -296q-162 -115 -399 -115q-89 0 -238.5 29.5t-274.5 29.5q-73 0 -133 -48q-7 -3 -11 2t-1 13q19 23 68 49q70 37 145 37q90 0 280.5 -38.5t270.5 -38.5q140 0 256 95q129 107 129 266q0 113 -98 193q-28 -35 -94 -155q-72 -132 -111 -187 q92 34 203 109q16 5 16 -8q0 -3 -2 -7q-95 -81 -248 -136q-24 -35 -66 -74q-47 -45 -80 -58q-13 -5 -13 5q0 6 8 11q48 28 89 95q-135 -39 -270 -39q-177 0 -288 74q-115 76 -115 201t181 229q178 103 384 103q265 0 429 -100q58 40 94 45q4 -1 4 -6q-1 -5 -5 -8 q-30 -15 -69 -47q125 -88 125 -225zM1054 610q-151 102 -407 102q-208 0 -363 -96q-145 -90 -145 -194q0 -103 117 -165q114 -60 294 -60q151 0 258 27q54 101 109 203q66 114 137 183z" unicode="D" horiz-adv-x="1231" glyph-name="D"/>
<glyph d="M832 695q0 -74 -121 -121q-107 -42 -266 -49q-8 -21 -8 -39q0 -23 14 -36q62 9 121 9q62 0 101 -8.5t39 -20.5q0 -13 -38 -23t-86 -10q-79 0 -138 30q-141 -33 -237 -122.5t-96 -182.5q0 -98 142 -98q266 0 452 182q14 0 10 -14q-66 -89 -207 -144q-128 -50 -251 -50 q-114 0 -173 48q-52 44 -52 119q0 103 119 182q106 70 266 98q-39 32 -40 79q-80 3 -172 37q-81 29 -103 55q-2 5 2 9.5t9 4.5q19 -18 84 -43q88 -35 181 -41q14 77 121 142t223 65q104 0 104 -58zM793 703q0 31 -50 31q-79 0 -169 -60q-84 -58 -121 -129q117 6 228.5 57 t111.5 101z" unicode="E" horiz-adv-x="709" glyph-name="E"/>
<glyph d="M1402 693q-10 -25 -38 -45q-37 -28 -85 -28q-32 0 -158.5 46t-203.5 46q-99 0 -198 -67t-127 -149q104 -21 198 -84q2 -3 2 -6q0 -8 -12 -8q-4 0 -9 2q-80 54 -185 75q-3 -14 -3 -27q0 -26 13 -58q2 -7 -5 -8t-14 5q-20 33 -20 69q0 9 1 19l1 4q-30 4 -58 4 q-154 0 -271 -86q-112 -83 -112 -182q0 -101 100 -153q85 -45 225 -45q281 0 434 250l-145 -2q-117 0 -155 -48q-6 -5 -15 -1q-10 3 -9 10q16 24 50 44q50 29 114 30q43 0 182 4q38 69 77 139t66 98q35 37 87 65q39 22 58 25q13 2 13 -6t-13 -13q-49 -21 -102 -94 q-17 -24 -48 -90q-48 -102 -58 -122l197 5q22 -2 22 -9q0 -4 -4 -9q-9 -15 -12 -17q-6 -5 -19 -5q-9 0 -204 -3q-23 -42 -44 -68q-62 -78 -180 -135q-142 -69 -299 -69q-170 0 -270.5 63.5t-100.5 166.5q0 105 116 190q123 91 292 91q47 0 91 -7q28 95 151 169 q136 83 309 83q63 0 180.5 -38.5t133.5 -38.5q30 0 49 32q7 4 12 1q6 -4 3 -15z" unicode="F" horiz-adv-x="1175" glyph-name="F"/>
<glyph d="M919 662q0 -82 -115 -203q-107 -112 -259 -203q-228 -136 -407 -201q26 -40 85 -40q110 0 292 112q149 92 220 168q16 8 25 3l4 6q41 63 54 68q19 8 30 8q13 0 13 -10q0 -5 -10 -14t-14 -14q-14 -22 -95 -185q-73 -148 -112 -194q-55 -67 -148 -123q-82 -49 -129 -56 q-12 7 0 16q25 7 78 44q59 40 95.5 82t115.5 172l106 180q-94 -109 -242 -191q-159 -90 -284 -90q-74 0 -112 48q-54 -18 -85 -20q-11 10 1 22q30 2 73 15q-21 37 -21 92q0 124 124 269q116 137 285 231q176 98 318 98q114 0 114 -90zM887 678q0 56 -87 56q-133 0 -301 -123 q-149 -109 -262 -261.5t-113 -239.5q0 -21 6 -37q105 37 244 116q133 75 234 152q121 91 197 181q82 96 82 156z" unicode="G" horiz-adv-x="824" glyph-name="G"/>
<glyph d="M1153 734q-31 -23 -87 -46q-74 -31 -132 -31q-57 0 -204 30t-243 30q-153 0 -262 -55q-87 -44 -136 -117q-39 -57 -39 -103q0 -22 4 -39q0 -6 -7 -9q-6 -2 -12 3q-9 20 -9 50q0 158 202 245q151 65 317 65q107 0 251.5 -26t178.5 -26q110 0 165 45q14 1 14 -13 q0 -2 -1 -3zM1404 709q0 -49 -60 -111q-68 -71 -192 -128q-25 -11 -56 -22q-142 -244 -142 -383q0 -46 47 -46q52 0 124 49q59 41 93 86q7 4 12 2t4 -9q-26 -41 -80 -84q-83 -65 -167 -65q-100 0 -100 98q0 119 127 325q-53 -16 -111 -27q-76 -130 -155 -203 q-92 -87 -229 -140.5t-262 -53.5q-78 0 -124 30t-46 84q0 79 87.5 149t244.5 113q92 25 219 36q107 8 215 16q45 72 116 174q36 42 103 83q7 1 10 -3t-1 -8q-33 -19 -62 -65q-26 -49 -92 -172q60 9 110 22q82 124 167 205q92 89 150 89q50 0 50 -41zM1367 710q0 21 -19 21 q-36 0 -102 -73q-63 -69 -129 -176q77 30 153 88q97 76 97 140zM822 379q-55 -9 -238 -30q-133 -16 -195 -32q-104 -28 -186 -84q-94 -63 -94 -123q0 -42 38 -68t100 -26q101 0 214.5 44t195.5 115q67 59 165 204z" unicode="H" horiz-adv-x="1226" glyph-name="H"/>
<glyph d="M1035 697q-10 -7 -28 -17q6 -1 8 -4q2 -4 -4 -9q-54 -49 -80 -98q-2 -4 -56 -153q-44 -122 -100 -195q-75 -98 -208 -160.5t-263 -62.5q-124 0 -191 49q-61 46 -61 125q0 114 154 188q125 60 242 60q127 0 188 -33q3 -5 -1.5 -9t-12.5 -3q-39 24 -134 24q-126 0 -255 -75 q-139 -80 -139 -177q0 -65 60 -99q54 -30 148 -30q122 0 241 68q115 66 175 164q27 45 87 175q49 108 82 147q49 60 100 98q-69 -33 -128 -33q-66 0 -208 43.5t-223 43.5q-126 0 -228 -74q-94 -68 -94 -137q0 -26 5 -38q-5 -10 -17 3q-10 17 -10 39q0 98 101 163 q111 71 297 71q102 0 259 -33.5t180 -33.5q61 0 101 25q8 1 12 -2.5t1 -9.5z" unicode="I" horiz-adv-x="836" glyph-name="I"/>
<glyph d="M916 702q-10 -11 -44 -25q13 -2 1 -15q-18 -21 -52 -70q-51 -110 -185 -383q63 17 75 23q61 28 68 58q4 3 11 1q7 -1 9 -5q-9 -41 -81 -74q-16 -8 -99 -35q-48 -89 -79 -133q-72 -102 -182 -175t-200 -73q-91 0 -91 77q0 111 217 221q77 39 271 93q77 164 96 202 q54 106 103 171q60 79 106 112q-65 -24 -135 -24q-49 0 -183 31t-196 31q-108 0 -195 -77q-82 -74 -82 -155q0 -30 13 -52q-1 -4 -8 -8t-11 -2q-18 25 -18 78q0 116 126 191q113 67 254 67q65 0 196 -29.5t203 -29.5q50 0 81 23q14 -3 11 -14zM538 150q-173 -59 -244 -98 q-204 -110 -204 -186q0 -51 56 -51q88 0 193 76q112 81 173 204q10 21 26 55z" unicode="J" horiz-adv-x="742" glyph-name="J"/>
<glyph d="M1492 736q0 -7 -12 -6q-3 0 -16.5 1.5t-22.5 1.5q-52 0 -115 -70q-31 -35 -107 -144q-65 -94 -101 -124q-55 -45 -114 -74q-42 -20 -64 -24q-9 -1 -12 -3q-1 -2 3 -7q63 -81 163 -197q60 -61 121 -61q45 0 89 45q13 -1 13 -13q-13 -21 -43 -37q-40 -21 -91 -21 q-125 0 -243 153q-42 54 -56 69q-28 30 -53 38q-93 -127 -231.5 -197t-297.5 -70q-113 0 -181 40q-72 44 -72 123q0 96 108 166q117 75 302 75q89 0 138 -19q4 -4 2 -11q-1 -6 -7 -8q-37 16 -110 16q-143 0 -265 -70q-128 -75 -128 -174q0 -52 55.5 -85t136.5 -33 q263 0 439 196q45 50 130 198q79 139 126 183q36 35 86 71q-99 -35 -163 -35q-49 0 -242.5 44t-274.5 44q-117 0 -211.5 -79t-94.5 -168q0 -23 6 -43q-2 -4 -7 -6q-6 -1 -9 2q-12 23 -12 66q0 122 133 196q115 65 265 65q66 0 277.5 -33t247.5 -33q100 0 167 36q4 -1 7 -7 q2 -7 -1 -11q-12 -9 -60 -27q5 -8 -6 -16q-27 -19 -62 -63q-15 -18 -65 -118q-57 -112 -100 -177q106 10 188 93q22 22 102 135q73 104 129 153q82 72 167 72q49 0 49 -18z" unicode="K" horiz-adv-x="1325" glyph-name="K"/>
<glyph d="M1329 622q0 -157 -248 -285q-231 -120 -513 -141q-50 -57 -103 -86q3 0 10 1h10q127 0 257 -21q61 -10 190 -39q93 -21 131 -21q112 0 153 38q21 -1 19 -16q-19 -21 -80 -38q-76 -20 -178 -20q-108 0 -312 44t-213 44q-31 0 -41 -6q-30 -18 -100 -42q-99 -33 -178 -33 q-69 0 -69 16q0 21 74 48q105 39 289 45q21 16 49 48q9 11 24 35h-18q-154 0 -200 43q-1 3 -1 5q0 10 20 9q18 -12 82.5 -23.5t115.5 -11.5q-4 0 14 0q56 108 160 285q67 97 159 160q133 90 297 90q105 0 157 -41q43 -34 43 -87zM1278 633q0 97 -142 97q-106 0 -217 -72 q-102 -67 -160 -161q-40 -68 -79 -137q-52 -88 -93 -141q170 16 335 87q156 66 256 157t100 170z" unicode="L" horiz-adv-x="1277" glyph-name="L"/>
<glyph d="M1621 735q-81 -125 -187 -334q-54 -106 -97 -209q-47 -114 -47 -146q0 -27 25 -27q47 0 128 64q77 60 102 108q15 5 19 -10q-31 -54 -110 -116q-85 -67 -139 -67q-90 0 -90 95q0 46 33 117q21 47 77 142q66 109 138 228l-11 -7q-71 -96 -220 -290q-64 -79 -170 -182 q-86 -83 -106 -96q-10 -7 -15 -4q-7 4 1 18q27 42 96 168q87 177 159 301q43 73 97 162l-7 1q-93 -100 -293 -323q-107 -123 -261 -211q-206 -119 -413 -119q-124 0 -200 53q-81 56 -81 154q0 137 163 235q156 93 357 93q91 0 166 -20q57 -16 78 -34q1 -3 -7 -6t-17 -1 q-70 38 -208 38q-172 0 -330 -104.5t-158 -219.5q0 -166 240 -166q169 0 350 93q169 86 291 221q329 364 385 404q9 6 34 12q20 5 20 -8q0 -3 -4 -7q-28 -25 -100 -163q-58 -118 -164 -322q-55 -94 -87 -132l3 -3q14 12 85 95q90 105 164 202q118 152 245 314q7 9 36 20 q15 5 25 5q16 0 5 -16z" unicode="M" horiz-adv-x="1565" glyph-name="M"/>
<glyph d="M1449 672q0 -113 -180 -337q-82 -100 -190 -207q-90 -88 -140 -125q-6 -5 -12 -5q-8 0 -8 9q0 6 5 13q49 69 92 163q40 100 124 293q43 92 62 126l-5 3q-17 -29 -111 -140q-120 -140 -214 -218q-298 -250 -570 -250q-114 0 -186 53q-76 55 -76 150q0 124 135 208t338 84 q173 0 291 -62q2 -4 -2 -10t-9 -6q-122 56 -261 56q-168 0 -308 -90q-143 -92 -143 -207q0 -73 65 -116q59 -40 142 -40q137 0 302.5 76.5t302.5 205.5q123 115 260 284l120 154q15 15 33 15q10 0 10 -11q0 -2 -13 -22q-17 -25 -27 -48q-38 -118 -121 -331 q-66 -140 -118 -214h5q19 11 89 85q84 91 142 177q141 208 141 312q0 18 -4 30q2 13 16 11q23 -26 23 -69z" unicode="N" horiz-adv-x="1242" glyph-name="N"/>
<glyph d="M949 561q0 -147 -110 -283q-99 -125 -255.5 -203.5t-298.5 -78.5q-26 0 -51 4q12 -34 40 -65q1 -6 -6 -10.5t-14 -1.5q-34 32 -47 82q-153 36 -153 197q0 143 113 277q101 120 261 198q156 75 294 75q91 0 142 -21q3 -5 0 -10q-4 -5 -10 -6q-44 16 -132 16 q-123 0 -271 -89q-144 -87 -241 -215q-104 -138 -104 -264q0 -105 96 -136q-6 32 -6 71q0 140 81.5 284t208.5 235q136 97 276 97q90 0 141 -47q46 -42 46 -106zM911 574q0 57 -42 88t-107 31q-123 0 -255 -105q-120 -96 -202.5 -242t-82.5 -267q0 -31 6 -58q17 -3 32 -3 q125 0 280 83.5t258 207.5q113 136 113 265z" unicode="O" horiz-adv-x="870" glyph-name="O"/>
<glyph d="M1163 553q0 -126 -140 -236q-136 -106 -280 -106q-16 0 -30 1q-81 -175 -219 -298q-144 -129 -274 -129q-70 0 -102 29q-6 15 14 16q38 -22 80 -22q79 0 159.5 56t150.5 157q48 70 118 206q-98 37 -98 135q0 109 103 186q73 55 138 65q8 -1 11 -6q3 -4 -2 -8 q-52 -13 -113 -68q-88 -78 -88 -178q0 -80 59 -106q36 68 71 137q39 73 66 115q49 76 93 125q41 47 56 47t15 -8q-12 -15 -27 -31q-45 -55 -202 -399h9q131 -2 252 121q115 117 115 225q0 147 -199 147q-202 0 -393 -91q-179 -85 -292 -223t-113 -277q0 -34 9 -67 q2 -13 -11 -13q-5 0 -9 2q-15 33 -15 112q0 165 128 306q115 126 303 203q181 73 357 73q300 0 300 -198z" unicode="P" horiz-adv-x="1046" glyph-name="P"/>
<glyph d="M1022 548q0 -118 -117.5 -256t-282.5 -221q92 -38 138 -38q63 0 109 37q6 0 9 -9q3 -10 -2 -16q-60 -44 -141 -44q-68 0 -179 41q-114 -45 -218 -45q-136 0 -193 94q-61 -25 -94 -65q-7 -3 -12 1.5t-3 12.5q29 39 97 74q-17 39 -17 88q0 152 122 286q107 118 279 192 q164 70 311 70q17 0 45 -4q38 -6 38 -13q0 -6 -12 -4q-34 4 -81 4q-129 0 -282 -85t-254 -211q-110 -137 -110 -268q0 -19 3 -37q74 27 158 27q83 0 245 -69q163 89 288 250q121 154 121 261q0 51 -37 76q-29 20 -70 20q-123 0 -248 -95q-108 -80 -184 -202 q-72 -113 -72 -186q0 -34 -10 -34q-7 0 -7 30q0 192 154 350.5t346 158.5q163 0 163 -171zM512 59q-149 57 -232 57q-49 0 -97 -13q31 -84 147 -84q87 0 182 40z" unicode="Q" horiz-adv-x="924" glyph-name="Q"/>
<glyph d="M1228 617q0 -103 -134 -194q-129 -86 -314 -117q75 -80 123 -126q154 -148 200 -148q28 0 49 11q15 -6 6 -19q-36 -24 -89 -24q-86 0 -179 85q-110 100 -177 177q-27 -35 -53 -64q-88 -100 -228 -156q-118 -47 -221 -47q-93 0 -149 42q-59 43 -59 119q0 167 184 314 q155 124 398 206q220 73 380 73q263 0 263 -132zM1147 616q0 45 -42 75q-49 35 -142 35q-143 0 -356 -80q-228 -86 -379 -210q-176 -146 -176 -294q0 -63 44 -95.5t118 -32.5q106 0 220.5 64.5t194.5 173.5q12 16 30 42h-26q-19 0 -19 9q0 10 19 10t40 1q4 6 103 154 q53 79 87 117q43 50 81 80q29 22 39 22q13 0 13 -13q-28 -23 -59 -65q-18 -25 -74 -118q-60 -102 -102 -164l1 -1q154 31 266 109q119 85 119 181z" unicode="R" horiz-adv-x="1177" glyph-name="R"/>
<glyph d="M1158 691q0 -71 -75 -162q-79 -95 -199 -162q-149 -368 -541 -368q-137 0 -219 58t-82 151q0 138 161 228q140 77 300 77q117 0 178 -34q0 -15 -12 -15q-57 28 -142 28q-152 0 -286 -81q-146 -89 -146 -210q0 -88 67 -133.5t188 -45.5q289 0 440 300q-122 -47 -244 -47 q-107 0 -156 32q-4 4 -4 9q0 9 12 9q58 -21 138 -21q145 0 269 49q22 49 43 108q44 128 124 215q74 80 131 80q55 0 55 -65zM1127 708q0 28 -24 28q-45 0 -96 -75q-55 -80 -94 -212q-7 -24 -16 -49q108 66 174 164q56 83 56 144z" unicode="S" horiz-adv-x="902" glyph-name="S"/>
<glyph d="M1330 697q-11 -9 -51 -22q-49 -16 -98 -20q-4 -5 -14 -9q-71 -25 -113 -44q-108 -50 -181 -116q-85 -76 -134 -166q-47 -84 -47 -149q0 -66 44 -106q49 -42 138 -42q90 0 184 38q79 32 127 74q9 2 13 -2.5t1 -12.5q-44 -42 -121 -76q-102 -46 -205 -46 q-118 0 -190.5 50.5t-72.5 136.5q0 85 69 181q67 93 174 162q116 73 276 126q-84 1 -325 28q-232 25 -362 25q-151 0 -276 -64q-121 -62 -121 -131q0 -53 64 -82q50 -22 115 -22q172 0 340 56q150 49 249 126q8 1 11 -2.5t1 -11.5q-66 -64 -215 -127q-176 -74 -324 -74 q-114 0 -186 35q-75 37 -75 100q0 88 141 159q159 80 410 80q128 0 377 -26t265 -26q62 0 101 19q7 0 11 -7q4 -6 0 -12z" unicode="T" horiz-adv-x="1218" glyph-name="T"/>
<glyph d="M1300 726q-46 -97 -158 -332q-136 -290 -136 -350q0 -7 6.5 -14.5t14.5 -7.5q41 0 109 73q53 58 84 112q7 5 13 5q7 -1 7 -8q-25 -58 -77 -119q-74 -86 -141 -86q-76 0 -76 74q0 76 99 271q-73 -96 -119 -147q-184 -203 -292 -203q-76 0 -76 79q0 60 79 194q1 3 146 230 q79 124 79 159q0 31 -39.5 52t-99.5 21q-158 0 -319 -84q-139 -71 -237 -179q-92 -102 -92 -170q0 -86 97 -86q70 0 156 33q90 35 163 93q77 61 147 153q61 80 76 123q11 33 20 33q6 0 6 -12q0 -10 -5 -25q-14 -46 -66 -122q-70 -101 -162 -174q-77 -61 -171 -95 q-85 -30 -159 -30q-137 0 -137 120q0 88 91 192.5t233 173.5q158 76 325 76q219 0 219 -130q0 -60 -79 -195q-23 -39 -147 -231q-80 -122 -80 -148q0 -28 43 -28q37 0 116.5 61t147.5 144q96 117 225 295l100 196q5 14 24 21q39 14 40 14q7 0 7 -7q0 -5 -5 -15z" unicode="U" horiz-adv-x="1227" glyph-name="U"/>
<glyph d="M1250 604q0 -130 -109 -282q-95 -132 -234 -230q-134 -96 -218 -96q-45 0 -76 29.5t-31 80.5q0 59 69 174q65 99 129 198q69 111 69 161q0 38 -45 63q-48 27 -130 27q-106 0 -253 -63q-154 -66 -255 -162q-117 -110 -117 -221q0 -90 109 -90q157 0 342 156 q158 132 244 287q14 7 16 -7q-94 -193 -254 -322q-171 -137 -339 -137q-69 0 -108.5 35.5t-39.5 99.5q0 129 114 238q97 93 255 151q144 53 268 53q241 0 241 -142q0 -64 -69 -182q-65 -102 -129 -203q-70 -111 -70 -156q0 -50 58 -50q90 0 215 106q120 103 205 245 q92 154 92 275q0 67 -31 87q-3 8 8 13q28 -11 49 -43q25 -39 25 -93z" unicode="V" horiz-adv-x="1115" glyph-name="V"/>
<glyph d="M1567 566q0 -122 -90 -260q-84 -130 -211 -218q-131 -91 -245 -91q-96 0 -101 101q-139 -103 -228 -103q-36 0 -61 26t-25 70q0 65 69 182q63 100 126 199q68 109 68 153q0 46 -45 72q-49 29 -136 29q-125 0 -275 -74q-142 -70 -240 -173q-103 -107 -103 -197 q0 -79 97 -79q125 0 259 76q109 63 202 161q80 85 100 140q12 8 20 -2q-57 -144 -212 -265q-170 -133 -341 -133q-155 0 -155 117q0 99 91 205.5t234 174.5q154 73 314 73q115 0 177 -44q59 -41 59 -111q0 -57 -71 -182q-14 -25 -130 -213q-70 -113 -70 -142q0 -42 44 -42 q92 0 232 114q9 89 76 219q64 124 144 214q85 97 138 97q40 0 40 -42q0 -79 -104 -221q-101 -138 -235 -252q-10 -41 -10 -70q0 -60 66 -60q96 0 211 96q109 92 185 226q79 141 79 260q0 85 -68 124q-7 15 11 17q36 -13 70 -54q44 -53 44 -118zM1292 622q0 20 -15 20 q-43 0 -139.5 -153.5t-143.5 -294.5q118 112 208 241.5t90 186.5z" unicode="W" horiz-adv-x="1441" glyph-name="W"/>
<glyph d="M1356 675q0 -29 -18 -53q-21 -26 -49 -26q-44 0 -44 49q0 25 19 45t43 20q7 0 7 5q0 9 -27 9q-92 0 -219 -133q-116 -122 -197 -282q163 4 190 5.5t61 6.5l30 4q9 0 9 -10t-39 -24q-42 -14 -84 -14q-33 0 -184 -3q-55 -118 -55 -194q0 -28 17 -45.5t43 -17.5q69 0 168 66 q87 58 125 113q14 2 16 -12q-30 -58 -127 -121q-104 -67 -181 -67q-48 0 -77 30.5t-29 79.5q0 62 24 138q-88 -108 -202 -176q-117 -71 -218 -71q-35 0 -58 20t-23 53q0 29 19.5 48t43.5 19q50 0 50 -45q0 -24 -20 -40.5t-43 -16.5l-12 2q-5 0 -5 -3q0 -6 12 -13t32 -7 q87 0 194 76q100 71 183 182l-126 -2q-20 0 -20 11q0 9 9 16t18 7q13 0 144 3q103 152 103 272q0 149 -200 149q-125 0 -276 -84q-137 -77 -237 -186.5t-100 -184.5q0 -39 23.5 -63.5t61.5 -24.5q129 0 317 153q173 141 217 252q6 2 13.5 -0.5t8.5 -8.5q-46 -122 -216 -264 q-185 -154 -323 -154q-54 0 -88 26q-39 31 -39 91q0 90 90.5 202t227.5 186q154 83 311 83q132 0 201 -52q62 -47 62 -127q0 -45 -12 -93q83 115 181 185q105 76 195 76q38 0 58.5 -18t20.5 -47z" unicode="X" horiz-adv-x="1154" glyph-name="X"/>
<glyph d="M1289 723q-49 -72 -165 -306l-128 -268q-76 -156 -127 -217q-131 -159 -272 -159q-38 0 -62.5 22.5t-24.5 59.5q0 28 16.5 45t40.5 17q21 0 36 -14.5t15 -37.5q0 -20 -14.5 -35t-33.5 -15q-12 0 -14 -4t6 -10.5t32 -6.5q104 0 212 152q38 54 112 197q58 113 115 227 q-91 -112 -157 -181q-181 -190 -279 -190q-72 0 -72 77q0 53 76 177q70 108 141 217q76 121 76 170q0 82 -118 82q-164 0 -319 -83q-131 -71 -221 -179q-83 -100 -83 -170q0 -44 26 -67q23 -20 58 -20q155 0 302 127q74 63 142 150q64 81 76 121q13 17 21 -4 q-13 -44 -67 -122q-70 -100 -158 -169q-158 -126 -305 -126q-127 0 -127 121q0 88 85.5 194t218.5 176q148 78 303 78q217 0 217 -138q0 -71 -78 -202q-31 -52 -146 -217q-78 -113 -78 -139q0 -28 34 -28q82 0 259 189q198 212 263 326l105 185q1 3 38 12q26 7 26 -6 q0 -3 -3 -8z" unicode="Y" horiz-adv-x="1080" glyph-name="Y"/>
<glyph d="M1278 732q0 -23 -74 -56q-81 -37 -185 -54q-33 -23 -58 -49q-40 -45 -156 -178l109 -1q81 0 98 6q10 4 13 -2q2 -6 -9 -12q-40 -24 -116 -24h-125q-66 -72 -117 -124q75 -34 201 -131q97 -75 148 -75q49 0 81 24q13 0 14 -11q-18 -16 -54 -29q-45 -17 -88 -17 q-56 0 -114 36q-32 19 -103.5 80t-118.5 89q-21 -20 -36 -33q-198 -178 -416 -178q-150 0 -150 84q0 79 113 143q120 68 284 68q107 0 204 -36q37 40 98 111h-159q-16 0 -12 18t23 18q1 0 177 -3q78 90 118 127q68 61 117 94q-48 -5 -92 -5q-107 0 -286.5 49.5t-244.5 49.5 q-103 0 -189 -66q-80 -62 -80 -125q0 -29 6 -42q-5 -11 -19 -5q-13 16 -13 54q0 91 109 156q104 61 234 61q81 0 306 -53.5t291 -53.5l92 60q91 53 149 53q30 0 30 -18zM594 220q-89 45 -190 45q-125 0 -235 -62t-110 -131q0 -56 105 -56q234 0 430 204z" unicode="Z" horiz-adv-x="1120" glyph-name="Z"/>
<glyph d="M530 763l-11 -29h-57q-26 0 -38.5 -10t-23.5 -35l-280 -693q-5 -14 -5 -24q0 -23 27 -23h59l-11 -29h-154l340 843h154z" unicode="[" horiz-adv-x="367" glyph-name="bracketleft"/>
<glyph d="M312 -92h-39l-264 791h39z" unicode="\" horiz-adv-x="339" glyph-name="backslash"/>
<glyph d="M492 763l-340 -843h-154l11 29h59q41 0 60 47l280 693q7 18 7 27q0 18 -32 18h-57l12 29h154z" unicode="]" horiz-adv-x="368" glyph-name="bracketright"/>
<glyph d="M635 522h-68l-231 220l-232 -220h-65l258 277h80z" unicode="^" horiz-adv-x="671" glyph-name="asciicircum"/>
<glyph d="M493 -94h-490v51h490v-51z" unicode="_" horiz-adv-x="496" glyph-name="underscore"/>
<glyph d="M176 651q0 -2 -4 -3q-17 0 -64 45q-50 47 -50 76q0 18 20 18t28 -29q12 -44 22.5 -59t30.5 -32q17 -13 17 -16z" unicode="`" horiz-adv-x="215" glyph-name="grave"/>
<glyph d="M332 298q0 -3 -6 -12q-2 -3 -53 -120q-45 -103 -45 -125q0 -15 12 -15q23 0 76 62q4 1 8.5 -3t3.5 -9q-54 -77 -112 -77q-47 0 -47 47q0 16 16 59q-82 -104 -131 -104q-51 0 -51 63q0 88 87 168q84 77 173 77q45 0 65 -6q4 -2 4 -5zM247 265q0 18 -14 18 q-41 0 -110.5 -96t-69.5 -143q0 -18 16 -18q26 0 105 99q36 46 54.5 83t18.5 57z" unicode="a" horiz-adv-x="352" glyph-name="a"/>
<glyph d="M364 561q0 -22 -18 -60q-22 -46 -60 -89q-48 -53 -131 -107l-26 -60q60 64 103 64q56 0 56 -60q0 -77 -67 -162q-70 -88 -139 -88q-33 0 -51 17t-18 42q0 64 55 197t123 230q78 112 133 112q40 0 40 -36zM326 557q0 16 -13 16q-16 0 -45.5 -41t-57.5 -103 q-15 -31 -37 -81q56 33 96 89q57 79 57 120zM228 260q0 20 -16 20q-15 0 -49 -32q-37 -35 -64 -79q-38 -100 -38 -124q0 -26 24 -26q40 0 92 92q51 89 51 149z" unicode="b" horiz-adv-x="299" glyph-name="b"/>
<glyph d="M253 256q0 -25 -14.5 -38.5t-30.5 -13.5q-30 0 -30 29q0 14 15.5 26.5t15.5 18.5q0 10 -10 10q-34 0 -83 -102q-45 -96 -45 -141q0 -22 19 -22q25 0 62 32q31 26 43 46q5 2 10.5 -2.5t5.5 -11.5q-18 -25 -47 -50q-44 -38 -84 -38q-65 0 -65 83q0 72 63.5 150t124.5 78 q50 0 50 -54z" unicode="c" horiz-adv-x="262" glyph-name="c"/>
<glyph d="M437 566q-55 -134 -168 -401q-45 -103 -45 -125q0 -15 9 -15q17 0 45 27q17 17 34 35q11 0 11 -12q-54 -77 -111 -77q-44 0 -44 43q0 20 16 63q-82 -104 -130 -104q-22 0 -36.5 19.5t-14.5 49.5q0 72 73 150q82 88 186 88q-2 0 6 0q100 233 109 252q4 7 7 10t11 5.5 t28 7.5q16 4 16 -9q0 -3 -2 -7zM249 263q0 18 -17 18q-42 0 -112 -101q-67 -97 -67 -137q0 -18 12 -18q30 0 108 99q37 46 55 82q21 44 21 57z" unicode="d" horiz-adv-x="348" glyph-name="d"/>
<glyph d="M258 265q0 -65 -75 -117q-60 -40 -110 -45q-12 -32 -12 -49q0 -35 37 -35q30 0 68 27q30 22 46 44q13 7 16 -9q-17 -24 -47 -47q-47 -34 -92 -34q-77 0 -77 76q0 77 67 155.5t126 78.5q53 0 53 -45zM217 271q0 19 -14 19q-21 0 -60 -56q-36 -50 -62 -109q45 2 90.5 52 t45.5 94z" unicode="e" horiz-adv-x="267" glyph-name="e"/>
<glyph d="M375 552q0 -68 -119 -201q-55 -60 -101 -96l-23 -55q33 -1 49 -1q37 0 57 9q8 4 10 0q3 -4 -2 -10q-28 -29 -90 -29h-36q-61 -150 -144 -348q-6 -13 -31 -23q-7 -2 -10 1.5t-1 15.5q5 27 129 355h-22q-28 0 -22 0q-10 1 -10 9q0 5 25 17q33 17 50 30l36 94q35 87 95 169 q73 98 126 98q34 0 34 -35zM341 552q0 16 -12 16q-30 0 -92 -116q-12 -24 -68 -161q51 50 88 100q84 115 84 161z" unicode="f" horiz-adv-x="239" glyph-name="f"/>
<glyph d="M325 298q-1 -3 -5 -12q-28 -68 -90 -224q27 20 37 33q12 0 17 -13q-17 -20 -67 -53l-7 -20q-30 -80 -91 -150q-70 -81 -130 -81q-42 0 -42 42q0 24 28 59.5t70 64.5q28 20 104 66q13 36 35 95q-82 -104 -130 -104q-52 0 -52 63q0 88 87 168q85 77 173 77q39 0 60 -6 q4 -2 3 -5zM246 265q0 18 -14 18q-40 0 -109.5 -96t-69.5 -143q0 -18 16 -18q26 0 105 99q35 46 53.5 83t18.5 57zM137 -21q-49 -30 -63 -41q-32 -27 -56 -59q-28 -37 -28 -59q0 -18 16 -18q26 0 62 47.5t61 108.5z" unicode="g" horiz-adv-x="321" glyph-name="g"/>
<glyph d="M377 540q0 -60 -86 -155q-75 -84 -140 -118q-25 -60 -52 -129q30 41 80 92t72 64.5t44 13.5q12 0 12 -11q0 3 -14 -25q-21 -42 -57 -121q-43 -99 -43 -114t17 -15q37 0 74 64q18 6 19 -6q-15 -25 -38 -48q-34 -33 -66 -33q-56 0 -56 45q0 32 31 104q21 50 38 79l-3 5 q-8 -5 -41 -40q-35 -39 -56 -67q-41 -56 -56 -97q-5 -13 -56 -28q-6 -2 -8 2q-3 5 1 15l156 376q31 73 84 131q58 62 105 62q39 0 39 -46zM338 545q0 16 -12 16q-25 0 -67 -68q-32 -49 -92 -189q48 28 107 107q64 86 64 134z" unicode="h" horiz-adv-x="325" glyph-name="h"/>
<glyph d="M231 410q0 -18 -12.5 -33.5t-30.5 -15.5q-34 0 -34 39q0 18 12.5 33.5t30.5 15.5q34 0 34 -39zM189 294q-33 -66 -65 -132q-52 -107 -52 -125q0 -13 11 -13q15 0 45 25q25 20 38 37q3 1 8 -2.5t4 -8.5q-14 -20 -39 -42q-40 -34 -73 -34q-50 0 -50 48q0 20 47 124 q19 39 44 95q4 11 -7 11q-22 0 -22 15t17 14q43 -3 82 4q7 1 11 -3.5t1 -12.5z" unicode="i" horiz-adv-x="210" glyph-name="i"/>
<glyph d="M216 399q0 -18 -12 -33t-29 -15q-33 0 -33 38q0 18 12 32.5t29 14.5q33 0 33 -37zM173 294q-33 -78 -77 -184q-5 -12 -19 -93q-14 -76 -33 -112q-23 -42 -59 -76t-61 -34q-37 0 -37 35q0 48 75 145q31 41 64 64q3 45 10 68q32 77 65 161q3 8 -8 8q-26 0 -26 11 q0 12 10 14h42q28 2 41 9q14 7 14 -8q0 -4 -1 -8zM23 10q-22 -19 -37 -40q-60 -81 -60 -125q0 -23 11 -23q15 0 39.5 39.5t36.5 78.5q7 25 10 70z" unicode="j" horiz-adv-x="183" glyph-name="j"/>
<glyph d="M376 540q0 -60 -86 -155q-75 -84 -140 -118q-19 -48 -41 -101q42 51 65 72q74 68 120 68q45 0 45 -41q0 -44 -62 -91t-128 -59q57 -81 90 -84q37 -4 61 22q2 3 5 3q12 0 12 -11q0 -3 -3 -6q-47 -39 -100 -39q-37 0 -74 37q-7 7 -55 68q-27 -67 -30 -77q-4 -13 -56 -28 q-6 -2 -8 2q-3 5 1 15l156 376q31 73 84 131q58 62 105 62q39 0 39 -46zM337 545q0 16 -12 16q-25 0 -67 -68q-32 -49 -92 -189q48 28 107 107q64 86 64 134zM280 274q0 9 -11 9q-25 0 -92 -72q-64 -67 -64 -75q0 -6 17 -6q39 0 94.5 53t55.5 91z" unicode="k" horiz-adv-x="349" glyph-name="k"/>
<glyph d="M363 545q0 -29 -27 -81q-25 -48 -61 -91q-62 -76 -135 -123q-86 -193 -86 -218q0 -15 14 -15q21 0 55 23q29 19 39 33q15 -2 15 -12q-14 -18 -40 -36q-39 -26 -77 -26q-53 0 -53 47q0 37 55 166q49 116 91 190q40 71 87 122q54 58 92 58q31 0 31 -37zM327 546q0 11 -9 11 q-12 0 -48 -50.5t-61 -106.5l-51 -111q63 52 105 118q64 100 64 139z" unicode="l" horiz-adv-x="220" glyph-name="l"/>
<glyph d="M458 297q0 3 -14 -25q-21 -42 -56 -121q-44 -99 -44 -114t18 -15q36 0 73 64q18 6 19 -6q-14 -25 -38 -48q-34 -33 -65 -33q-57 0 -57 45q0 32 31 104q21 50 38 79l-3 5q-25 -14 -97 -107q-37 -49 -69 -107q-6 -13 -48 -18q-14 -2 -14 5q0 5 46 101q50 103 56 119l-4 5 q-24 -13 -97 -107q-47 -60 -76 -101q-3 -6 -18 -13.5t-27 -7.5t-12 12q0 7 55 118q49 100 49 125q0 19 -14 19q-2 0 -35 -11q-4 0 -6.5 6.5t-0.5 9.5q36 27 79 27q40 0 40 -35q0 -32 -52 -136l4 -1q29 40 80 92t73 65.5t49 13.5q14 0 14 -8q0 1 -14 -27l-57 -115 q86 107 138 138q22 14 44 14q12 0 12 -11z" unicode="m" horiz-adv-x="482" glyph-name="m"/>
<glyph d="M323 297q0 3 -14 -25q-21 -42 -56 -121q-44 -99 -44 -114t18 -15q36 0 73 64q19 6 19 -6q-14 -25 -37 -48q-35 -33 -66 -33q-57 0 -57 45q0 32 31 104q22 50 39 79l-4 5q-24 -14 -97 -107q-47 -61 -76 -102q-14 -21 -41 -21q-12 0 -12 12q0 2 55 119q48 103 48 122 t-14 19q-5 0 -39 -11q-11 4 -7 16q38 28 82 28q14 0 25.5 -9.5t11.5 -26.5q0 -31 -51 -133l4 -2q29 40 80 92.5t73 66t45 13.5q11 0 11 -11z" unicode="n" horiz-adv-x="347" glyph-name="n"/>
<glyph d="M298 141q-17 -17 -38 -17q-3 0 -9 1q-29 -53 -74 -89.5t-83 -36.5q-77 0 -77 77q0 83 66 159.5t148 76.5q14 0 14 -6q0 -10 -14 -10q-56 0 -113 -98q-52 -90 -52 -151q0 -32 30 -32q27 0 62.5 37t60.5 87q-32 24 -32 67q0 38 17 59q15 18 33 18q43 0 43 -57 q0 -40 -21 -84q7 -1 8 -1q12 0 25 11q10 -2 6 -11zM247 231q0 34 -14 34q-18 0 -18 -56q0 -36 13 -52q19 44 19 74z" unicode="o" glyph-name="o"/>
<glyph d="M303 259q0 -69 -62 -161q-67 -99 -131 -99q-34 0 -56 18q-42 -91 -107 -220q-3 -6 -15 -12.5t-22 -6.5q-16 0 -16 12q0 4 2 10l193 444q3 7 3 13q0 16 -12 16q-4 0 -24 -17q-15 -6 -19 11q29 42 74 42q35 0 35 -42q0 -36 -19 -74q75 116 125 116q51 0 51 -50zM247 267 q0 17 -9 17q-15 0 -67 -69q-46 -62 -85 -127q-12 -28 -24 -55q14 -13 32 -13q48 0 103 100q50 91 50 147z" unicode="p" glyph-name="p"/>
<glyph d="M337 296q0 -4 -12 -18q-2 -2 -97 -228q-80 -191 -110 -252q-9 -16 -45 -16q-16 0 -16 9q0 3 3 9q59 136 121 279l-4 3q-9 -16 -43 -45q-46 -39 -82 -39q-47 0 -47 60q0 77 78 161q84 90 180 90q74 0 74 -13zM258 262q1 3 1 6q0 12 -25 12q-51 0 -118 -104 q-60 -96 -60 -139q0 -18 12 -18q21 0 62 40q36 35 62.5 74.5t65.5 128.5z" unicode="q" horiz-adv-x="328" glyph-name="q"/>
<glyph d="M202 83q-14 -24 -38 -48q-37 -35 -70 -35q-22 0 -37.5 14t-15.5 36q0 26 56 125q46 81 46 90q0 13 -12 13q-14 0 -29 -22q-27 -38 -35 -46q-1 -1 -3 -1q-5 0 -10.5 4.5t-4.5 9.5q28 36 32 46q-15 30 -15 53q0 49 36 49q33 0 33 -35q0 -25 -6 -35l3 -3q32 12 43 12 q25 0 25 -36q0 -22 -18 -57q-1 -3 -37 -68q-19 -33 -37 -65.5t-18 -46.5q0 -15 12 -15q19 0 52 32q22 20 39 43q12 -3 9 -14z" unicode="r" horiz-adv-x="228" glyph-name="r"/>
<glyph d="M232 332q0 -7 -18.5 -22t-18.5 -35q0 -17 8.5 -40t8.5 -51q0 -78 -49.5 -131t-113.5 -53q-62 0 -62 57q0 27 14 44t31 17q34 0 34 -35q0 -20 -14 -32t-30 -12q-9 0 -8 -6q5 -18 29 -18q42 0 75 54t33 123q0 22 -10 31q-6 7 -13 0q-22 -24 -51 -54q-5 -2 -11 3t-5 10 q23 24 76 87q21 27 42 55q19 25 36 25t17 -17z" unicode="s" horiz-adv-x="247" glyph-name="s"/>
<glyph d="M244 427l-63 -135h46q14 0 14 -13t-14 -13h-59l-93 -199q-8 -17 -8 -29q0 -20 15 -20q27 0 76 56q11 4 16 -5q-48 -69 -104 -69q-58 0 -58 48q0 18 9 38l86 180h-42q-13 0 -13 13t13 13h54l64 135q9 19 35 19q27 0 27 -12q0 -3 -1 -7z" unicode="t" horiz-adv-x="230" glyph-name="t"/>
<glyph d="M336 296q-111 -210 -111 -258q0 -16 10 -16q15 0 42.5 29.5t35.5 48.5q15 6 20 -4q-11 -25 -41 -56q-39 -41 -76 -41q-15 0 -27 12q-15 13 -15 35t17 68q-88 -114 -133 -114t-45 44q0 25 41 113q25 55 51 109q4 11 -8 11q-22 0 -22 15t18 14q42 -3 81 4q8 2 12 -3 q4 -4 0 -12q-30 -60 -60 -121q-56 -115 -56 -132q0 -9 10 -9q25 0 147 165q22 45 46 93q8 17 18 17q4 0 16.5 1t16.5 1q19 0 12 -14z" unicode="u" horiz-adv-x="360" glyph-name="u"/>
<glyph d="M291 228q0 -79 -73 -154.5t-140 -75.5q-27 0 -44 17.5t-17 45.5q0 22 10 44l65 146q11 24 -5 24q-15 0 -36 -11q-11 5 -7 21q34 22 75 22t41 -35q0 -11 -4 -20l-83 -179q-9 -19 -9 -34q0 -22 20 -22q47 0 102 73.5t55 148.5q0 57 -54 57q-6 6 -6 13q1 7 6 10q39 0 69 -22 q35 -26 35 -69z" unicode="v" glyph-name="v"/>
<glyph d="M452 234q0 -82 -74.5 -162t-144.5 -80q-26 0 -42 14.5t-16 37.5q0 59 65 189l-3 4q-28 -25 -95 -111q-63 -82 -92 -114q-4 -4 -19 -9t-21 -5q-14 0 -4 20q16 34 52 119q46 109 46 125q0 15 -12 15q-15 0 -37 -12q-3 0 -4.5 7t-0.5 11q40 25 78 25q37 0 37 -38 q0 -13 -5 -27l-50 -120l5 -3q21 31 84 106q71 79 97 79q29 0 29 -11q0 2 -11 -22q-89 -205 -89 -240q0 -20 19 -20q52 0 107 85q52 82 52 147q0 58 -50 58q-5 2 -6 9t3 8q43 0 72.5 -22.5t29.5 -62.5z" unicode="w" horiz-adv-x="457" glyph-name="w"/>
<glyph d="M383 278q0 -15 -12 -30t-26 -15q-24 0 -24 24q0 20 18 29q8 5 -3 5q-16 0 -43.5 -36.5t-51.5 -85.5h61q11 0 11 -9q0 -15 -18 -15h-64q-25 -58 -25 -95q0 -34 26 -34q37 0 99 66q12 1 12 -10q-16 -21 -46 -42q-42 -31 -78 -31q-27 0 -44.5 16.5t-17.5 43.5q0 11 3 25 q-74 -84 -139 -84q-42 0 -42 42q0 20 12.5 35t27.5 15q31 0 31 -28q0 -13 -15 -26t-15 -16q0 -6 8 -6q51 0 124 129h-54q-11 0 -11 9q0 15 19 15h59q34 66 34 95q0 24 -23 24q-27 0 -66 -24q-30 -17 -48 -35q-14 -2 -15 12q11 17 52 41q48 27 85 27q25 0 42 -15.5t17 -39.5 q0 -7 -1 -13q58 68 108 68q33 0 33 -31z" unicode="x" horiz-adv-x="375" glyph-name="x"/>
<glyph d="M307 291q-5 -11 -85 -230q28 20 38 34q12 0 17 -13q-17 -20 -67 -53l-7 -20q-30 -80 -91 -151q-70 -80 -130 -80q-42 0 -42 42q0 24 28 59.5t70 64.5q28 19 104 66l31 77q-21 -27 -55 -54q-42 -34 -65 -34q-20 0 -33.5 14t-13.5 34q0 29 48 114q52 92 52 106q0 16 -13 16 q-11 0 -40 -16q-11 3 -14 14q22 28 74 28q47 0 47 -41q0 -22 -54.5 -123t-54.5 -112t10 -11q30 0 87 65q49 58 65 95l41 100q9 19 18 21q14 3 20 3q17 0 17 -9q0 -2 -2 -6zM130 -21q-49 -30 -63 -41q-32 -27 -56 -59q-28 -37 -28 -59q0 -18 16 -18q26 0 62 47.5t61 108.5z " unicode="y" horiz-adv-x="320" glyph-name="y"/>
<glyph d="M328 286q0 -23 -31 -44.5t-58 -21.5q-9 0 -18 2q-15 -15 -32 -46h57q9 0 9 -9t-9 -9h-67q-7 -12 -18 -34q32 -9 51 -33q4 -5 22 -39q11 -19 24 -19q21 0 42 47q13 2 15 -11q-10 -22 -29 -43q-24 -27 -49 -27q-30 0 -51 38q-29 52 -38 60q-55 -100 -112 -100q-39 0 -39 32 q0 35 38 67t85 32q8 0 18 -1q9 19 15 31h-38q-9 0 -9 9t9 9h49q19 29 42 51q-24 14 -47 27q-30 17 -60 17q-22 0 -37 -14.5t-15 -32.5q0 -14 4 -21q-2 -2 -8 -4q-6 -1 -10 1q-5 11 -5 24q0 29 31.5 57t69.5 28q31 0 63.5 -23.5t39.5 -23.5q46 37 75 37q21 0 21 -13zM129 108 q-9 3 -18 3q-31 0 -54 -28q-21 -23 -21 -46q0 -20 13 -20q33 0 80 91z" unicode="z" horiz-adv-x="334" glyph-name="z"/>
<glyph d="M615 740l-9 -23q-85 -5 -121 -39q-28 -26 -64 -115l-19 -47q-43 -106 -81 -142q-43 -41 -146 -63q46 -11 64 -24q30 -19 30 -57q0 -42 -36 -133l-20 -48q-29 -72 -29 -95q0 -45 94 -48l-9 -23q-67 0 -92 8q-51 15 -51 64q0 36 24 96l42 105q22 53 22 77q0 51 -104 64 l11 27q92 14 122 33q41 26 74 108l43 105q28 70 58 104q38 42 100 56q38 8 97 10z" unicode="{" horiz-adv-x="391" glyph-name="braceleft"/>
<glyph d="M201 -234h-52v998h52v-998z" unicode="|" horiz-adv-x="349" glyph-name="bar"/>
<glyph d="M451 324l-11 -27q-66 -8 -101 -23q-48 -22 -73 -70q-10 -17 -22 -48l-43 -105q-40 -100 -93.5 -134t-160.5 -34l9 23q83 3 118 33q28 24 63 110l19 48q44 109 83 148q46 45 148 66q-99 25 -99 83q0 29 37 122l19 47q31 76 31 102q0 46 -91 52l9 23q91 -3 121 -24 q23 -16 23 -48q0 -34 -26 -98l-42 -105q-20 -50 -20 -79q0 -37 35 -50q5 -2 67 -12z" unicode="}" horiz-adv-x="481" glyph-name="braceright"/>
<glyph d="M628 752q-17 -43 -52 -71q-44 -36 -104 -36q-47 0 -142 30.5t-140 30.5q-74 0 -125 -77l-27 15q37 62 74.5 88.5t90.5 26.5q48 0 139 -30t139 -30q74 0 122 69z" unicode="~" horiz-adv-x="653" glyph-name="asciitilde"/>
<glyph unicode=" " horiz-adv-x="221" glyph-name="nonbreakingspace"/>
<glyph d="M400 596q0 -24 -19.5 -49t-43.5 -25q-27 0 -27 32q0 25 19.5 49.5t43.5 24.5q27 0 27 -32zM320 475l-209 -488h-66l258 491z" unicode="¡" horiz-adv-x="308" glyph-name="exclamdown"/>
<glyph d="M487 490q0 -53 -43 -53q-39 0 -39 38q0 16 18.5 30t18.5 19q0 16 -12 21l-236 -485q5 -1 11 -1q64 0 129 55q45 39 74 84q16 0 17 -16q-32 -45 -82 -86q-75 -62 -141 -62q-10 0 -19 2l-29 -58h-28l32 65q-63 26 -63 129q0 120 105.5 251.5t208.5 138.5l31 63h28l-31 -65 q50 -12 50 -70zM401 545q-80 -18 -166 -168q-83 -144 -83 -243q0 -43 20 -62z" unicode="¢" horiz-adv-x="525" glyph-name="cent"/>
<glyph d="M583 545q0 -15 -19 -30t-33 -15q-16 0 -16 17q0 3 1 10.5t1 11.5q0 40 -51 40q-45 0 -88.5 -31t-60.5 -72t-27 -156h99l-10 -32h-92q-15 -109 -99 -202q49 -25 105 -25q114 0 167 114q5 2 8 2q9 0 9 -12q0 -6 -1 -8q-6 -15 -28 -45q-82 -112 -189 -112q-64 0 -104 50 q-64 -48 -105 -48q-17 0 -30.5 10.5t-13.5 27.5q0 31 29 54.5t60 23.5t66 -21q32 51 44 92q10 35 14 99h-83l10 32h75q5 61 22 103q30 74 98 125.5t145 51.5q27 0 59 -15q38 -17 38 -40zM135 66q-23 27 -51 27q-20 0 -33.5 -13.5t-13.5 -33.5q0 -19 22 -19q38 0 76 39z" unicode="£" horiz-adv-x="552" glyph-name="sterling"/>
<glyph d="M594 514q0 -24 -13 -41.5t-36 -17.5q-44 0 -44 38q0 23 21 39t21 21q0 27 -27 27q-52 0 -116 -67q-58 -60 -108 -155h182l-20 -28h-176q-18 -38 -32 -76h168l-20 -28h-158q-22 -67 -22 -115q0 -85 60 -85q72 0 149 66q54 46 82 92q17 0 18 -18q-35 -51 -92 -97 q-85 -70 -160 -70q-122 0 -122 156q0 34 10 71h-145l20 28h132q12 38 32 76h-124l20 28h119q58 100 141 167q87 71 162 71q37 0 59 -25q19 -23 19 -57z" unicode="¤" horiz-adv-x="599" glyph-name="currency"/>
<glyph d="M456 554q0 -24 -18.5 -43t-42.5 -19q-22 0 -22 19q0 14 23.5 31.5t23.5 29.5q0 19 -43 19q-36 0 -63 -23.5t-27 -59.5q0 -30 52 -89.5t52 -100.5q0 -55 -47.5 -91.5t-104.5 -36.5q35 -39 35 -76q0 -54 -55 -91q-50 -32 -106 -32q-73 0 -73 49q0 23 16.5 45t38.5 22 q25 0 25 -18t-21.5 -38.5t-21.5 -23.5q0 -21 45 -21q38 0 66 20q32 23 32 60q0 28 -51 93t-51 105q0 51 50 88q46 33 99 33q-35 47 -35 76q0 52 52 91q48 35 102 35q26 0 47 -12q23 -15 23 -41zM338 284q0 51 -58 106q-36 0 -67 -14q-39 -18 -39 -50q0 -22 19.5 -63.5 t37.5 -55.5q38 0 70 19q37 22 37 58z" unicode="§" horiz-adv-x="404" glyph-name="section"/>
<glyph d="M210 768q0 -37 -33 -37q-21 0 -21 24q0 34 30 34q24 0 24 -21zM108 768q0 -37 -33 -37q-22 0 -22 24q0 34 30 34q25 0 25 -21z" unicode="¨" horiz-adv-x="243" glyph-name="dieresis"/>
<glyph d="M653 299q0 -125 -88.5 -214t-213.5 -89q-126 0 -215 89t-89 214q0 126 89 214.5t215 88.5q125 0 213.5 -88.5t88.5 -214.5zM626 299q0 114 -80.5 194.5t-194.5 80.5t-195 -80.5t-81 -194.5t81 -194.5t195 -80.5t194.5 80.5t80.5 194.5zM494 132q2 -7 -4 -7q-10 0 -28 -3 q-3 -1 -39 -12q-24 -7 -60 -7q-83 0 -143 57t-60 135q0 77 62 134.5t146 57.5q19 0 47 -7q38 -10 45 -12q27 -4 26 -6v-2l-1 -2q-7 -25 -6 -68q-1 -3 -6 -3h-1q-7 1 -7 6v7q5 33 -32 53q-31 17 -66 16q-66 -3 -110.5 -52.5t-44.5 -120.5q0 -72 45 -123t110 -51q57 0 89 27 q22 18 18 49q0 5 7 6h1q5 1 6 -3q-1 -46 6 -69z" unicode="©" horiz-adv-x="689" glyph-name="copyright"/>
<glyph d="M340 594q0 -2 -4 -9q-2 -3 -43 -96q-36 -82 -36 -100q0 -13 9 -13q19 0 62 51q5 -2 9 -10q-43 -62 -90 -62q-37 0 -37 38q0 12 12 47q-65 -83 -104 -83q-41 0 -41 50q0 71 68.5 133.5t139.5 62.5q36 0 52 -5q4 -1 3 -4zM272 568q0 15 -11 15q-33 0 -88.5 -77t-55.5 -115 q0 -15 13 -15q21 0 84 80q29 36 43.5 66t14.5 46z" unicode="ª" horiz-adv-x="320" glyph-name="ordfeminine"/>
<glyph d="M280 365l-9 -41l-3 -5l-83 -57l58 -102l-31 -20l-75 128q-3 6 4 10l130 90q5 3 7 3q3 -1 2 -6zM151 365l-8 -41l-4 -5l-83 -57l58 -102l-35 -20l-75 128q-3 6 4 10l134 90q5 3 8 2q2 0 1 -5z" unicode="«" horiz-adv-x="334" glyph-name="guillemotleft"/>
<glyph d="M599 504q0 -109 -77.5 -187t-187.5 -78q-109 0 -187 78t-78 187q0 110 78 187.5t187 77.5t187 -78t78 -187zM570 504q0 98 -69 167t-167 69q-97 0 -166.5 -69t-69.5 -167q0 -97 69.5 -166.5t166.5 -69.5q98 0 167 69.5t69 166.5zM498 349q0 -6 -9 -6q-51 0 -76 24 q-15 15 -27 54q-14 46 -30 62q-20 20 -66 20v-110q0 -27 24 -29q18 -1 18 -9q0 -10 -6 -10q-10 0 -30 1.5t-30 1.5t-30 -1.5t-29 -1.5q-7 3 -7 10q0 6 7 9q18 0 25 5t7 24v238q0 30 -22 30q3 0 -7 0t-10 9q0 7 7 9q15 0 49 -1h49h21q14 1 21 1q37 0 63.5 -24t26.5 -62 q0 -54 -67 -81q33 -13 47 -33q9 -12 17 -42t17 -46q14 -23 42 -36q5 -3 5 -6zM384 593q0 63 -57 63q-37 0 -37 -25v-111q94 0 94 73z" unicode="®" horiz-adv-x="630" glyph-name="registered"/>
<glyph d="M171 775q0 -29 -48.5 -75t-65.5 -46q-4 1 -4 3q0 3 17 16q20 17 30.5 32t22.5 59q8 29 28 29t20 -18z" unicode="´" horiz-adv-x="219" glyph-name="acute"/>
<glyph d="M575 723l-14 -35h-63l-278 -688h-39l278 688h-91l-278 -688h-41l155 383q-132 1 -132 97q0 101 90 174q85 69 186 69h227z" unicode="¶" horiz-adv-x="588" glyph-name="paragraph"/>
<glyph d="M66 -164q-20 0 -30 3q-6 1 -5 5q1 5 6 5q90 -6 104 48q1 4 1 8q0 21 -33 21h-23l-5 10l45 64h17l-39 -57h13q62 0 62 -33q0 -35 -42 -57q-34 -17 -71 -17z" unicode="¸" horiz-adv-x="203" glyph-name="cedilla"/>
<glyph d="M308 466q-14 -14 -32 -14q-2 0 -6 1q-24 -42 -59.5 -71t-66.5 -29q-62 0 -62 61q0 67 53 128t119 61q11 0 11 -5q0 -8 -12 -8q-44 0 -90 -78q-41 -72 -41 -121q0 -26 24 -26q21 0 49.5 30t48.5 70q-26 19 -26 53q0 30 14 48q12 14 26 14q35 0 35 -46q0 -32 -17 -67 q6 -1 7 -1q9 0 20 9q7 -1 5 -9zM266 539q0 27 -11 27q-14 0 -14 -45q0 -29 10 -42q15 35 15 60z" unicode="º" horiz-adv-x="285" glyph-name="ordmasculine"/>
<glyph d="M358 228q3 -6 -3 -11l-135 -89q-5 -3 -7 -3q-3 1 -2 6l9 40l3 6l83 56l-58 103l36 20zM225 228q3 -6 -3 -11l-131 -89q-5 -3 -7 -3q-3 1 -1 6l8 40l3 6l84 56l-59 103l32 20z" unicode="»" horiz-adv-x="342" glyph-name="guillemotright"/>
<glyph d="M457 599q0 -25 -19.5 -49.5t-43.5 -24.5q-27 0 -27 32q0 24 19.5 49t43.5 25q27 0 27 -32zM395 174q0 -75 -80 -134q-75 -53 -155 -53q-50 0 -81 25.5t-31 74.5q0 55 39 109q41 58 133 138q84 73 127 144q5 3 11 3q11 0 17 -11q-14 -45 -83 -115q-98 -99 -115 -122 q-59 -75 -59 -146q0 -34 20.5 -53.5t55.5 -19.5q50 0 110 48q65 52 65 106q0 52 -47 52q-37 0 -66 -28q-7 2 -7 10q0 13 25.5 26t53.5 13q27 0 47 -19t20 -48z" unicode="¿" horiz-adv-x="405" glyph-name="questiondown"/>
<glyph d="M1469 738q-60 -107 -191 -335q-38 -65 -76 -137q58 -2 80 -2q24 0 68 6q13 -6 3 -20q-31 -15 -167 -15q-9 -16 -17 -32q66 -37 66 -101q0 -48 -33.5 -76.5t-74.5 -28.5q-36 0 -60.5 26t-24.5 67q0 35 46 120q-64 19 -159 24q-299 -240 -576 -240q-126 0 -211 53 q-97 60 -97 168q0 126 138 213q127 80 284 80q166 0 262 -66q3 -3 3 -6q0 -17 -18 -12q-71 57 -213 57q-150 0 -277 -87q-134 -91 -134 -211q0 -76 77 -124q72 -44 175 -44q274 0 550 220l-96 2l-416 2h-33q-10 2 -10 10q0 9 27.5 24.5t49.5 15.5q15 0 191 -6q197 -7 272 -9 l61 -1q26 22 44 40q208 204 428 420q16 14 41 20q21 5 21 -6q0 -3 -3 -9zM1379 671l-8 1q-7 -8 -131 -136q-132 -136 -183 -187q-39 -39 -83 -77l146 -4q30 49 97 153zM1191 119q0 34 -34 60q-57 -113 -57 -137q0 -29 25 -29q23 0 44.5 33t21.5 73zM1499 777q0 -2 -4 -3 q-17 0 -64 45q-50 47 -50 76q0 18 20 18t28 -29q12 -44 22.5 -59t30.5 -32q17 -13 17 -16z" unicode="À" horiz-adv-x="1333" glyph-name="Agrave"/>
<glyph d="M1469 738q-60 -107 -191 -335q-38 -65 -76 -137q58 -2 80 -2q24 0 68 6q13 -6 3 -20q-31 -15 -167 -15q-9 -16 -17 -32q66 -37 66 -101q0 -48 -33.5 -76.5t-74.5 -28.5q-36 0 -60.5 26t-24.5 67q0 35 46 120q-64 19 -159 24q-299 -240 -576 -240q-126 0 -211 53 q-97 60 -97 168q0 126 138 213q127 80 284 80q166 0 262 -66q3 -3 3 -6q0 -17 -18 -12q-71 57 -213 57q-150 0 -277 -87q-134 -91 -134 -211q0 -76 77 -124q72 -44 175 -44q274 0 550 220l-96 2l-416 2h-33q-10 2 -10 10q0 9 27.5 24.5t49.5 15.5q15 0 191 -6q197 -7 272 -9 l61 -1q26 22 44 40q208 204 428 420q16 14 41 20q21 5 21 -6q0 -3 -3 -9zM1379 671l-8 1q-7 -8 -131 -136q-132 -136 -183 -187q-39 -39 -83 -77l146 -4q30 49 97 153zM1191 119q0 34 -34 60q-57 -113 -57 -137q0 -29 25 -29q23 0 44.5 33t21.5 73zM1534 904q0 -29 -50 -76 q-46 -45 -63 -45q-4 1 -4 3q0 3 17 16q20 17 30.5 32t22.5 59q8 29 28 29q19 0 19 -18z" unicode="Á" horiz-adv-x="1333" glyph-name="Aacute"/>
<glyph d="M1469 738q-60 -107 -191 -335q-38 -65 -76 -137q58 -2 80 -2q24 0 68 6q13 -6 3 -20q-31 -15 -167 -15q-9 -16 -17 -32q66 -37 66 -101q0 -48 -33.5 -76.5t-74.5 -28.5q-36 0 -60.5 26t-24.5 67q0 35 46 120q-64 19 -159 24q-299 -240 -576 -240q-126 0 -211 53 q-97 60 -97 168q0 126 138 213q127 80 284 80q166 0 262 -66q3 -3 3 -6q0 -17 -18 -12q-71 57 -213 57q-150 0 -277 -87q-134 -91 -134 -211q0 -76 77 -124q72 -44 175 -44q274 0 550 220l-96 2l-416 2h-33q-10 2 -10 10q0 9 27.5 24.5t49.5 15.5q15 0 191 -6q197 -7 272 -9 l61 -1q26 22 44 40q208 204 428 420q16 14 41 20q21 5 21 -6q0 -3 -3 -9zM1379 671l-8 1q-7 -8 -131 -136q-132 -136 -183 -187q-39 -39 -83 -77l146 -4q30 49 97 153zM1191 119q0 34 -34 60q-57 -113 -57 -137q0 -29 25 -29q23 0 44.5 33t21.5 73zM1543 772q-1 -1 -2 -1 q-10 0 -33 39q-21 35 -26 50q-30 -28 -71 -58.5t-47 -30.5q-3 0 -3 1q0 2 47 46q53 50 81 92h12q4 -42 23 -91.5t19 -46.5z" unicode="Â" horiz-adv-x="1333" glyph-name="Acircumflex"/>
<glyph d="M1469 738q-60 -107 -191 -335q-38 -65 -76 -137q58 -2 80 -2q24 0 68 6q13 -6 3 -20q-31 -15 -167 -15q-9 -16 -17 -32q66 -37 66 -101q0 -48 -33.5 -76.5t-74.5 -28.5q-36 0 -60.5 26t-24.5 67q0 35 46 120q-64 19 -159 24q-299 -240 -576 -240q-126 0 -211 53 q-97 60 -97 168q0 126 138 213q127 80 284 80q166 0 262 -66q3 -3 3 -6q0 -17 -18 -12q-71 57 -213 57q-150 0 -277 -87q-134 -91 -134 -211q0 -76 77 -124q72 -44 175 -44q274 0 550 220l-96 2l-416 2h-33q-10 2 -10 10q0 9 27.5 24.5t49.5 15.5q15 0 191 -6q197 -7 272 -9 l61 -1q26 22 44 40q208 204 428 420q16 14 41 20q21 5 21 -6q0 -3 -3 -9zM1379 671l-8 1q-7 -8 -131 -136q-132 -136 -183 -187q-39 -39 -83 -77l146 -4q30 49 97 153zM1191 119q0 34 -34 60q-57 -113 -57 -137q0 -29 25 -29q23 0 44.5 33t21.5 73zM1575 850q-2 -13 -16 -30 q-20 -24 -51 -21q-18 2 -50.5 18.5t-50.5 18.5q-19 2 -33 -13.5t-15 -14.5q-3 0 -2 5q1 11 17 30q20 25 43 22q18 -2 53.5 -20t53.5 -19q22 -3 34.5 13.5t13.5 16.5q3 0 3 -6z" unicode="Ã" horiz-adv-x="1333" glyph-name="Atilde"/>
<glyph d="M1469 738q-60 -107 -191 -335q-38 -65 -76 -137q58 -2 80 -2q24 0 68 6q13 -6 3 -20q-31 -15 -167 -15q-9 -16 -17 -32q66 -37 66 -101q0 -48 -33.5 -76.5t-74.5 -28.5q-36 0 -60.5 26t-24.5 67q0 35 46 120q-64 19 -159 24q-299 -240 -576 -240q-126 0 -211 53 q-97 60 -97 168q0 126 138 213q127 80 284 80q166 0 262 -66q3 -3 3 -6q0 -17 -18 -12q-71 57 -213 57q-150 0 -277 -87q-134 -91 -134 -211q0 -76 77 -124q72 -44 175 -44q274 0 550 220l-96 2l-416 2h-33q-10 2 -10 10q0 9 27.5 24.5t49.5 15.5q15 0 191 -6q197 -7 272 -9 l61 -1q26 22 44 40q208 204 428 420q16 14 41 20q21 5 21 -6q0 -3 -3 -9zM1379 671l-8 1q-7 -8 -131 -136q-132 -136 -183 -187q-39 -39 -83 -77l146 -4q30 49 97 153zM1191 119q0 34 -34 60q-57 -113 -57 -137q0 -29 25 -29q23 0 44.5 33t21.5 73zM1549 837q0 -37 -33 -37 q-21 0 -21 24q0 34 30 34q24 0 24 -21zM1447 837q0 -37 -33 -37q-22 0 -22 24q0 34 30 34q25 0 25 -21z" unicode="Ä" horiz-adv-x="1333" glyph-name="Adieresis"/>
<glyph d="M1469 738q-60 -107 -191 -335q-38 -65 -76 -137q58 -2 80 -2q24 0 68 6q13 -6 3 -20q-31 -15 -167 -15q-9 -16 -17 -32q66 -37 66 -101q0 -48 -33.5 -76.5t-74.5 -28.5q-36 0 -60.5 26t-24.5 67q0 35 46 120q-64 19 -159 24q-299 -240 -576 -240q-126 0 -211 53 q-97 60 -97 168q0 126 138 213q127 80 284 80q166 0 262 -66q3 -3 3 -6q0 -17 -18 -12q-71 57 -213 57q-150 0 -277 -87q-134 -91 -134 -211q0 -76 77 -124q72 -44 175 -44q274 0 550 220l-96 2l-416 2h-33q-10 2 -10 10q0 9 27.5 24.5t49.5 15.5q15 0 191 -6q197 -7 272 -9 l61 -1q26 22 44 40q208 204 428 420q16 14 41 20q21 5 21 -6q0 -3 -3 -9zM1379 671l-8 1q-7 -8 -131 -136q-132 -136 -183 -187q-39 -39 -83 -77l146 -4q30 49 97 153zM1191 119q0 34 -34 60q-57 -113 -57 -137q0 -29 25 -29q23 0 44.5 33t21.5 73zM1578 875 q0 -35 -28.5 -63t-64.5 -28q-26 0 -43 16.5t-17 42.5q0 36 28 63.5t64 27.5q26 0 43.5 -16.5t17.5 -42.5zM1550 869q0 38 -39 38q-23 0 -41.5 -17.5t-18.5 -40.5q0 -38 39 -38q23 0 41.5 18t18.5 40z" unicode="Å" horiz-adv-x="1333" glyph-name="Aring"/>
<glyph d="M1856 695q0 -74 -121 -121q-107 -42 -266 -49q-8 -21 -8 -39q0 -23 14 -36q62 9 121 9q62 0 101 -8.5t39 -20.5q0 -13 -38 -23t-86 -10q-79 0 -138 30q-141 -33 -237 -122.5t-96 -182.5q0 -98 142 -98q266 0 452 182q14 0 10 -14q-66 -89 -207 -144q-128 -50 -251 -50 q-114 0 -173 48q-52 44 -52 119q0 34 13 65q-34 5 -93 4q-72 -1 -78 0q-299 -240 -576 -240q-126 0 -211 53q-97 60 -97 168q0 126 138 213q127 80 284 80q166 0 262 -66q3 -3 3 -6q0 -17 -18 -12q-71 57 -213 57q-150 0 -277 -87q-134 -91 -134 -211q0 -76 77 -124 q72 -44 175 -44q274 0 550 220l-96 2l-416 2h-33q-10 2 -10 10q0 9 27.5 24.5t49.5 15.5q16 0 191 -6q200 -7 272 -9l61 -1q26 22 44 40q208 204 428 420q16 14 41 20q21 5 21 -6q0 -3 -3 -9q-61 -107 -191 -335l-13 -22q91 44 207 64q-39 32 -39 92q0 78 114 147 q111 69 230 69q104 0 104 -58zM1817 703q0 31 -50 31q-79 0 -169 -60q-84 -58 -121 -129q117 6 228.5 57t111.5 101zM1354 671l-8 1q-7 -8 -131 -136q-132 -136 -183 -187q-39 -39 -83 -77l146 -4q30 49 97 153z" unicode="Æ" horiz-adv-x="1733" glyph-name="AE"/>
<glyph d="M1153 665q0 -103 -164 -210q-129 -85 -335 -158q-170 -60 -277 -76q-25 -58 -25 -102q0 -46 38 -72t97 -26q118 0 251 53q116 46 208 117q19 0 15 -13q-74 -68 -199 -121q-143 -62 -267 -62q-7 0 -13 1l-37 -53h14q61 0 61 -33q0 -35 -41 -57q-34 -17 -72 -17 q-19 0 -30 3q-6 1 -5 5q2 5 7 5q90 -6 104 48q1 4 1 8q0 21 -33 21h-23l-6 10l43 60q-169 12 -169 179q0 17 4 38q-26 -2 -45 -2q-77 0 -144 25q-57 21 -74 46q-3 8 2 11.5t15 3.5q75 -60 205 -60q20 0 47 2q32 119 163 242q122 116 280 192q162 78 286 78q57 0 89 -25 q29 -22 29 -61zM1121 681q0 49 -68 49q-176 0 -382 -159q-189 -146 -279 -318q90 18 252 83q195 78 319 159q158 103 158 186z" unicode="Ç" horiz-adv-x="976" glyph-name="Ccedilla"/>
<glyph d="M835 695q0 -74 -121 -121q-107 -42 -266 -49q-8 -21 -8 -39q0 -23 14 -36q62 9 121 9q62 0 101 -8.5t39 -20.5q0 -13 -38 -23t-86 -10q-79 0 -138 30q-141 -33 -237 -122.5t-96 -182.5q0 -98 142 -98q266 0 452 182q14 0 10 -14q-66 -89 -207 -144q-128 -50 -251 -50 q-114 0 -173 48q-52 44 -52 119q0 103 119 182q106 70 266 98q-39 32 -40 79q-80 3 -172 37q-81 29 -103 55q-2 5 2 9.5t9 4.5q19 -18 84 -43q88 -35 181 -41q14 77 121 142t223 65q104 0 104 -58zM796 703q0 31 -50 31q-79 0 -169 -60q-84 -58 -121 -129q117 6 228.5 57 t111.5 101zM786 779q0 -2 -4 -3q-17 0 -64 45q-50 47 -50 76q0 18 20 18t28 -29q12 -44 22.5 -59t30.5 -32q17 -13 17 -16z" unicode="È" horiz-adv-x="709" glyph-name="Egrave"/>
<glyph d="M835 695q0 -74 -121 -121q-107 -42 -266 -49q-8 -21 -8 -39q0 -23 14 -36q62 9 121 9q62 0 101 -8.5t39 -20.5q0 -13 -38 -23t-86 -10q-79 0 -138 30q-141 -33 -237 -122.5t-96 -182.5q0 -98 142 -98q266 0 452 182q14 0 10 -14q-66 -89 -207 -144q-128 -50 -251 -50 q-114 0 -173 48q-52 44 -52 119q0 103 119 182q106 70 266 98q-39 32 -40 79q-80 3 -172 37q-81 29 -103 55q-2 5 2 9.5t9 4.5q19 -18 84 -43q88 -35 181 -41q14 77 121 142t223 65q104 0 104 -58zM796 703q0 31 -50 31q-79 0 -169 -60q-84 -58 -121 -129q117 6 228.5 57 t111.5 101zM819 904q0 -29 -48.5 -75t-65.5 -46q-4 1 -4 3q0 3 17 16q20 17 30.5 32t22.5 59q8 29 28 29t20 -18z" unicode="É" horiz-adv-x="709" glyph-name="Eacute"/>
<glyph d="M835 695q0 -74 -121 -121q-107 -42 -266 -49q-8 -21 -8 -39q0 -23 14 -36q62 9 121 9q62 0 101 -8.5t39 -20.5q0 -13 -38 -23t-86 -10q-79 0 -138 30q-141 -33 -237 -122.5t-96 -182.5q0 -98 142 -98q266 0 452 182q14 0 10 -14q-66 -89 -207 -144q-128 -50 -251 -50 q-114 0 -173 48q-52 44 -52 119q0 103 119 182q106 70 266 98q-39 32 -40 79q-80 3 -172 37q-81 29 -103 55q-2 5 2 9.5t9 4.5q19 -18 84 -43q88 -35 181 -41q14 77 121 142t223 65q104 0 104 -58zM796 703q0 31 -50 31q-79 0 -169 -60q-84 -58 -121 -129q117 6 228.5 57 t111.5 101zM838 774q-1 -1 -2 -1q-10 0 -33 39q-21 35 -26 50q-30 -28 -71 -58.5t-47 -30.5q-3 0 -3 1q0 2 47 46q53 50 81 92h12q4 -42 23 -91.5t19 -46.5z" unicode="Ê" horiz-adv-x="709" glyph-name="Ecircumflex"/>
<glyph d="M835 695q0 -74 -121 -121q-107 -42 -266 -49q-8 -21 -8 -39q0 -23 14 -36q62 9 121 9q62 0 101 -8.5t39 -20.5q0 -13 -38 -23t-86 -10q-79 0 -138 30q-141 -33 -237 -122.5t-96 -182.5q0 -98 142 -98q266 0 452 182q14 0 10 -14q-66 -89 -207 -144q-128 -50 -251 -50 q-114 0 -173 48q-52 44 -52 119q0 103 119 182q106 70 266 98q-39 32 -40 79q-80 3 -172 37q-81 29 -103 55q-2 5 2 9.5t9 4.5q19 -18 84 -43q88 -35 181 -41q14 77 121 142t223 65q104 0 104 -58zM796 703q0 31 -50 31q-79 0 -169 -60q-84 -58 -121 -129q117 6 228.5 57 t111.5 101zM822 837q0 -37 -34 -37q-21 0 -21 24q0 34 30 34q25 0 25 -21zM719 837q0 -37 -33 -37q-21 0 -21 24q0 34 30 34q24 0 24 -21z" unicode="Ë" horiz-adv-x="709" glyph-name="Edieresis"/>
<glyph d="M1038 697q-10 -7 -28 -17q6 -1 8 -4q2 -4 -4 -9q-54 -49 -80 -98q-2 -4 -56 -153q-44 -122 -100 -195q-75 -98 -208 -160.5t-263 -62.5q-124 0 -191 49q-61 46 -61 125q0 114 154 188q125 60 242 60q127 0 188 -33q3 -5 -1.5 -9t-12.5 -3q-39 24 -134 24q-126 0 -255 -75 q-139 -80 -139 -177q0 -65 60 -99q54 -30 148 -30q122 0 241 68q115 66 175 164q27 45 87 175q49 108 82 147q49 60 100 98q-69 -33 -128 -33q-66 0 -208 43.5t-223 43.5q-126 0 -228 -74q-94 -68 -94 -137q0 -26 5 -38q-5 -10 -17 3q-10 17 -10 39q0 98 101 163 q111 71 297 71q102 0 259 -33.5t180 -33.5q61 0 101 25q8 1 12 -2.5t1 -9.5zM853 772q0 -2 -4 -3q-17 0 -64 45q-50 47 -50 76q0 18 20 18t28 -29q12 -44 22.5 -59t30.5 -32q17 -13 17 -16z" unicode="Ì" horiz-adv-x="836" glyph-name="Igrave"/>
<glyph d="M1038 697q-10 -7 -28 -17q6 -1 8 -4q2 -4 -4 -9q-54 -49 -80 -98q-2 -4 -56 -153q-44 -122 -100 -195q-75 -98 -208 -160.5t-263 -62.5q-124 0 -191 49q-61 46 -61 125q0 114 154 188q125 60 242 60q127 0 188 -33q3 -5 -1.5 -9t-12.5 -3q-39 24 -134 24q-126 0 -255 -75 q-139 -80 -139 -177q0 -65 60 -99q54 -30 148 -30q122 0 241 68q115 66 175 164q27 45 87 175q49 108 82 147q49 60 100 98q-69 -33 -128 -33q-66 0 -208 43.5t-223 43.5q-126 0 -228 -74q-94 -68 -94 -137q0 -26 5 -38q-5 -10 -17 3q-10 17 -10 39q0 98 101 163 q111 71 297 71q102 0 259 -33.5t180 -33.5q61 0 101 25q8 1 12 -2.5t1 -9.5zM856 896q0 -29 -43.5 -75t-60.5 -46q-4 0 -9 0.5t-5 2.5q0 3 17 16q20 17 30.5 32t22.5 59q8 29 28 29t20 -18z" unicode="Í" horiz-adv-x="836" glyph-name="Iacute"/>
<glyph d="M1038 697q-10 -7 -28 -17q6 -1 8 -4q2 -4 -4 -9q-54 -49 -80 -98q-2 -4 -56 -153q-44 -122 -100 -195q-75 -98 -208 -160.5t-263 -62.5q-124 0 -191 49q-61 46 -61 125q0 114 154 188q125 60 242 60q127 0 188 -33q3 -5 -1.5 -9t-12.5 -3q-39 24 -134 24q-126 0 -255 -75 q-139 -80 -139 -177q0 -65 60 -99q54 -30 148 -30q122 0 241 68q115 66 175 164q27 45 87 175q49 108 82 147q49 60 100 98q-69 -33 -128 -33q-66 0 -208 43.5t-223 43.5q-126 0 -228 -74q-94 -68 -94 -137q0 -26 5 -38q-5 -10 -17 3q-10 17 -10 39q0 98 101 163 q111 71 297 71q102 0 259 -33.5t180 -33.5q61 0 101 25q8 1 12 -2.5t1 -9.5zM921 778q-1 -1 -2 -1q-10 0 -33 39q-21 35 -26 50q-30 -28 -71 -58.5t-47 -30.5q-3 0 -3 1q0 2 47 46q53 50 81 92h12q4 -42 23 -91.5t19 -46.5z" unicode="Î" horiz-adv-x="836" glyph-name="Icircumflex"/>
<glyph d="M1038 697q-10 -7 -28 -17q6 -1 8 -4q2 -4 -4 -9q-54 -49 -80 -98q-2 -4 -56 -153q-44 -122 -100 -195q-75 -98 -208 -160.5t-263 -62.5q-124 0 -191 49q-61 46 -61 125q0 114 154 188q125 60 242 60q127 0 188 -33q3 -5 -1.5 -9t-12.5 -3q-39 24 -134 24q-126 0 -255 -75 q-139 -80 -139 -177q0 -65 60 -99q54 -30 148 -30q122 0 241 68q115 66 175 164q27 45 87 175q49 108 82 147q49 60 100 98q-69 -33 -128 -33q-66 0 -208 43.5t-223 43.5q-126 0 -228 -74q-94 -68 -94 -137q0 -26 5 -38q-5 -10 -17 3q-10 17 -10 39q0 98 101 163 q111 71 297 71q102 0 259 -33.5t180 -33.5q61 0 101 25q8 1 12 -2.5t1 -9.5zM838 837q0 -37 -33 -37q-21 0 -21 24q0 34 30 34q24 0 24 -21zM736 837q0 -37 -33 -37q-22 0 -22 24q0 34 30 34q25 0 25 -21z" unicode="Ï" horiz-adv-x="836" glyph-name="Idieresis"/>
<glyph d="M1255 410q0 -178 -166 -296q-162 -115 -399 -115q-89 0 -238.5 29.5t-274.5 29.5q-73 0 -133 -48q-7 -3 -11 2t-1 13q19 23 68 49q70 37 145 37q90 0 280.5 -38.5t270.5 -38.5q140 0 256 95q129 107 129 266q0 113 -98 193q-31 -40 -150 -246h123l-23 -39h-123 q-35 -59 -63 -99q-24 -35 -66 -74q-47 -45 -80 -58q-13 -5 -13 5q0 6 8 11q46 27 89 95q28 46 67 120h-147l23 39h144q97 185 182 268q-151 102 -407 102q-208 0 -363 -96q-145 -90 -145 -194t117 -165q113 -60 294 -60q51 0 109 15q53 14 72 28q16 5 16 -8q0 -4 -2 -7 q-31 -24 -94 -49q-78 -32 -136 -32q-175 0 -287 74q-116 76 -116 201t181 229q178 103 384 103q265 0 429 -100q58 40 94 45q4 -2 4 -6q0 -5 -5 -8q-35 -19 -69 -47q125 -88 125 -225z" unicode="Ð" horiz-adv-x="1234" glyph-name="Eth"/>
<glyph d="M1452 672q0 -113 -180 -337q-82 -100 -190 -207q-90 -88 -140 -125q-6 -5 -12 -5q-8 0 -8 9q0 6 5 13q49 69 92 163q40 100 124 293q43 92 62 126l-5 3q-17 -29 -111 -140q-120 -140 -214 -218q-298 -250 -570 -250q-114 0 -186 53q-76 55 -76 150q0 124 135 208t338 84 q173 0 291 -62q2 -4 -2 -10t-9 -6q-122 56 -261 56q-168 0 -308 -90q-143 -92 -143 -207q0 -73 65 -116q59 -40 142 -40q137 0 302.5 76.5t302.5 205.5q123 115 260 284l120 154q15 15 33 15q10 0 10 -11q0 -2 -13 -22q-17 -25 -27 -48q-38 -118 -121 -331 q-66 -140 -118 -214h5q19 11 89 85q84 91 142 177q141 208 141 312q0 18 -4 30q2 13 16 11q23 -26 23 -69zM1488 853q-1 -13 -15 -30q-21 -24 -52 -21q-18 2 -50.5 18.5t-50.5 18.5q-19 2 -32.5 -13.5t-14.5 -14.5q-3 0 -3 5q1 11 17 30q20 25 43 22q19 -2 54.5 -20 t52.5 -19q23 -3 35.5 13.5l12.5 16.5q4 0 3 -6z" unicode="Ñ" horiz-adv-x="1242" glyph-name="Ntilde"/>
<glyph d="M952 561q0 -147 -110 -283q-99 -125 -255.5 -203.5t-298.5 -78.5q-26 0 -51 4q12 -34 40 -65q1 -6 -6 -10.5t-14 -1.5q-34 32 -47 82q-153 36 -153 197q0 143 113 277q101 120 261 198q156 75 294 75q91 0 142 -21q3 -5 0 -10q-4 -5 -10 -6q-44 16 -132 16 q-123 0 -271 -89q-144 -87 -241 -215q-104 -138 -104 -264q0 -105 96 -136q-6 32 -6 71q0 140 81.5 284t208.5 235q136 97 276 97q90 0 141 -47q46 -42 46 -106zM914 574q0 57 -42 88t-107 31q-123 0 -255 -105q-120 -96 -202.5 -242t-82.5 -267q0 -31 6 -58q17 -3 32 -3 q125 0 280 83.5t258 207.5q113 136 113 265zM861 777q0 -2 -4 -3q-17 0 -64 45q-50 47 -50 76q0 18 20 18t28 -29q12 -44 22.5 -59t30.5 -32q17 -13 17 -16z" unicode="Ò" horiz-adv-x="870" glyph-name="Ograve"/>
<glyph d="M952 561q0 -147 -110 -283q-99 -125 -255.5 -203.5t-298.5 -78.5q-26 0 -51 4q12 -34 40 -65q1 -6 -6 -10.5t-14 -1.5q-34 32 -47 82q-153 36 -153 197q0 143 113 277q101 120 261 198q156 75 294 75q91 0 142 -21q3 -5 0 -10q-4 -5 -10 -6q-44 16 -132 16 q-123 0 -271 -89q-144 -87 -241 -215q-104 -138 -104 -264q0 -105 96 -136q-6 32 -6 71q0 140 81.5 284t208.5 235q136 97 276 97q90 0 141 -47q46 -42 46 -106zM914 574q0 57 -42 88t-107 31q-123 0 -255 -105q-120 -96 -202.5 -242t-82.5 -267q0 -31 6 -58q17 -3 32 -3 q125 0 280 83.5t258 207.5q113 136 113 265zM886 904q0 -29 -50 -76q-46 -45 -63 -45q-4 1 -4 3q0 3 17 16q20 17 30.5 32t22.5 59q8 29 28 29q19 0 19 -18z" unicode="Ó" horiz-adv-x="870" glyph-name="Oacute"/>
<glyph d="M952 561q0 -147 -110 -283q-99 -125 -255.5 -203.5t-298.5 -78.5q-26 0 -51 4q12 -34 40 -65q1 -6 -6 -10.5t-14 -1.5q-34 32 -47 82q-153 36 -153 197q0 143 113 277q101 120 261 198q156 75 294 75q91 0 142 -21q3 -5 0 -10q-4 -5 -10 -6q-44 16 -132 16 q-123 0 -271 -89q-144 -87 -241 -215q-104 -138 -104 -264q0 -105 96 -136q-6 32 -6 71q0 140 81.5 284t208.5 235q136 97 276 97q90 0 141 -47q46 -42 46 -106zM914 574q0 57 -42 88t-107 31q-123 0 -255 -105q-120 -96 -202.5 -242t-82.5 -267q0 -31 6 -58q17 -3 32 -3 q125 0 280 83.5t258 207.5q113 136 113 265zM895 780q0 -2 -1 -2q-10 0 -34 39q-21 35 -26 50q-29 -28 -70 -58.5t-47 -30.5q-3 0 -3 2q0 1 46 45q54 51 82 92h12q3 -42 23 -93q18 -47 18 -44z" unicode="Ô" horiz-adv-x="870" glyph-name="Ocircumflex"/>
<glyph d="M952 561q0 -147 -110 -283q-99 -125 -255.5 -203.5t-298.5 -78.5q-26 0 -51 4q12 -34 40 -65q1 -6 -6 -10.5t-14 -1.5q-34 32 -47 82q-153 36 -153 197q0 143 113 277q101 120 261 198q156 75 294 75q91 0 142 -21q3 -5 0 -10q-4 -5 -10 -6q-44 16 -132 16 q-123 0 -271 -89q-144 -87 -241 -215q-104 -138 -104 -264q0 -105 96 -136q-6 32 -6 71q0 140 81.5 284t208.5 235q136 97 276 97q90 0 141 -47q46 -42 46 -106zM914 574q0 57 -42 88t-107 31q-123 0 -255 -105q-120 -96 -202.5 -242t-82.5 -267q0 -31 6 -58q17 -3 32 -3 q125 0 280 83.5t258 207.5q113 136 113 265zM927 850q-2 -13 -16 -30q-20 -24 -51 -21q-18 2 -50.5 18.5t-50.5 18.5q-19 2 -33 -13.5t-15 -14.5q-3 0 -2 5q1 11 17 30q20 25 43 22q18 -2 53.5 -20t53.5 -19q22 -3 34.5 13.5t13.5 16.5q3 0 3 -6z" unicode="Õ" horiz-adv-x="870" glyph-name="Otilde"/>
<glyph d="M952 561q0 -147 -110 -283q-99 -125 -255.5 -203.5t-298.5 -78.5q-26 0 -51 4q12 -34 40 -65q1 -6 -6 -10.5t-14 -1.5q-34 32 -47 82q-153 36 -153 197q0 143 113 277q101 120 261 198q156 75 294 75q91 0 142 -21q3 -5 0 -10q-4 -5 -10 -6q-44 16 -132 16 q-123 0 -271 -89q-144 -87 -241 -215q-104 -138 -104 -264q0 -105 96 -136q-6 32 -6 71q0 140 81.5 284t208.5 235q136 97 276 97q90 0 141 -47q46 -42 46 -106zM914 574q0 57 -42 88t-107 31q-123 0 -255 -105q-120 -96 -202.5 -242t-82.5 -267q0 -31 6 -58q17 -3 32 -3 q125 0 280 83.5t258 207.5q113 136 113 265zM861 837q0 -37 -33 -37q-21 0 -21 24q0 34 30 34q24 0 24 -21zM759 837q0 -37 -33 -37q-22 0 -22 24q0 34 30 34q25 0 25 -21z" unicode="Ö" horiz-adv-x="870" glyph-name="Odieresis"/>
<glyph d="M979 743l-82 -71q52 -42 52 -111q0 -147 -110 -283q-99 -125 -255.5 -203.5t-298.5 -78.5q-26 0 -51 4q12 -34 40 -65q1 -6 -6 -10.5t-14 -1.5q-34 32 -47 82q-33 8 -60 23l-109 -94v37l85 73q-69 55 -69 158q0 143 113 277q101 120 261 198q156 75 294 75q91 0 142 -21 q3 -5 0 -10q-4 -5 -10 -6q-44 16 -132 16q-123 0 -271 -89q-144 -87 -241 -215q-104 -138 -104 -264q0 -61 38 -101l52 45q3 138 85 280t208 232q134 95 273 95q65 0 111 -25l106 91v-37zM854 672q-38 21 -92 21q-118 0 -242 -94q-111 -84 -194 -218q-81 -130 -100 -248z M911 574q0 50 -34 81l-655 -563v-13q0 -31 6 -58q17 -3 32 -3q125 0 280 83.5t258 207.5q113 136 113 265zM202 27q-4 20 -5 44l-31 -27q16 -11 36 -17z" unicode="Ø" horiz-adv-x="870" glyph-name="Oslash"/>
<glyph d="M1303 726q-46 -97 -158 -332q-136 -290 -136 -350q0 -7 6.5 -14.5t14.5 -7.5q41 0 109 73q53 58 84 112q7 5 13 5q7 -1 7 -8q-25 -58 -77 -119q-74 -86 -141 -86q-76 0 -76 74q0 76 99 271q-73 -96 -119 -147q-184 -203 -292 -203q-76 0 -76 79q0 60 79 194q1 3 146 230 q79 124 79 159q0 31 -39.5 52t-99.5 21q-158 0 -319 -84q-139 -71 -237 -179q-92 -102 -92 -170q0 -86 97 -86q70 0 156 33q90 35 163 93q77 61 147 153q61 80 76 123q11 33 20 33q6 0 6 -12q0 -10 -5 -25q-14 -46 -66 -122q-70 -101 -162 -174q-77 -61 -171 -95 q-85 -30 -159 -30q-137 0 -137 120q0 88 91 192.5t233 173.5q158 76 325 76q219 0 219 -130q0 -60 -79 -195q-23 -39 -147 -231q-80 -122 -80 -148q0 -28 43 -28q37 0 116.5 61t147.5 144q96 117 225 295l100 196q5 14 24 21q39 14 40 14q7 0 7 -7q0 -5 -5 -15zM1124 773 q0 -2 -4 -3q-17 0 -63 45q-50 48 -50 76q0 18 19 18q20 0 28 -28q12 -45 22.5 -60t30.5 -31q17 -14 17 -17z" unicode="Ù" horiz-adv-x="1227" glyph-name="Ugrave"/>
<glyph d="M1303 726q-46 -97 -158 -332q-136 -290 -136 -350q0 -7 6.5 -14.5t14.5 -7.5q41 0 109 73q53 58 84 112q7 5 13 5q7 -1 7 -8q-25 -58 -77 -119q-74 -86 -141 -86q-76 0 -76 74q0 76 99 271q-73 -96 -119 -147q-184 -203 -292 -203q-76 0 -76 79q0 60 79 194q1 3 146 230 q79 124 79 159q0 31 -39.5 52t-99.5 21q-158 0 -319 -84q-139 -71 -237 -179q-92 -102 -92 -170q0 -86 97 -86q70 0 156 33q90 35 163 93q77 61 147 153q61 80 76 123q11 33 20 33q6 0 6 -12q0 -10 -5 -25q-14 -46 -66 -122q-70 -101 -162 -174q-77 -61 -171 -95 q-85 -30 -159 -30q-137 0 -137 120q0 88 91 192.5t233 173.5q158 76 325 76q219 0 219 -130q0 -60 -79 -195q-23 -39 -147 -231q-80 -122 -80 -148q0 -28 43 -28q37 0 116.5 61t147.5 144q96 117 225 295l100 196q5 14 24 21q39 14 40 14q7 0 7 -7q0 -5 -5 -15zM1189 885 q0 -28 -50 -76q-47 -44 -64 -44q-4 1 -4 3t18.5 17.5t29 30.5t22.5 59q8 29 28 29t20 -19z" unicode="Ú" horiz-adv-x="1227" glyph-name="Uacute"/>
<glyph d="M1303 726q-46 -97 -158 -332q-136 -290 -136 -350q0 -7 6.5 -14.5t14.5 -7.5q41 0 109 73q53 58 84 112q7 5 13 5q7 -1 7 -8q-25 -58 -77 -119q-74 -86 -141 -86q-76 0 -76 74q0 76 99 271q-73 -96 -119 -147q-184 -203 -292 -203q-76 0 -76 79q0 60 79 194q1 3 146 230 q79 124 79 159q0 31 -39.5 52t-99.5 21q-158 0 -319 -84q-139 -71 -237 -179q-92 -102 -92 -170q0 -86 97 -86q70 0 156 33q90 35 163 93q77 61 147 153q61 80 76 123q11 33 20 33q6 0 6 -12q0 -10 -5 -25q-14 -46 -66 -122q-70 -101 -162 -174q-77 -61 -171 -95 q-85 -30 -159 -30q-137 0 -137 120q0 88 91 192.5t233 173.5q158 76 325 76q219 0 219 -130q0 -60 -79 -195q-23 -39 -147 -231q-80 -122 -80 -148q0 -28 43 -28q37 0 116.5 61t147.5 144q96 117 225 295l100 196q5 14 24 21q39 14 40 14q7 0 7 -7q0 -5 -5 -15zM1177 772 q-1 -1 -2 -1q-10 0 -33 39q-21 35 -26 50q-30 -28 -71 -58.5t-47 -30.5q-3 0 -3 1q0 2 47 46q53 50 81 92h12q4 -42 23 -91.5t19 -46.5z" unicode="Û" horiz-adv-x="1227" glyph-name="Ucircumflex"/>
<glyph d="M1303 726q-46 -97 -158 -332q-136 -290 -136 -350q0 -7 6.5 -14.5t14.5 -7.5q41 0 109 73q53 58 84 112q7 5 13 5q7 -1 7 -8q-25 -58 -77 -119q-74 -86 -141 -86q-76 0 -76 74q0 76 99 271q-73 -96 -119 -147q-184 -203 -292 -203q-76 0 -76 79q0 60 79 194q1 3 146 230 q79 124 79 159q0 31 -39.5 52t-99.5 21q-158 0 -319 -84q-139 -71 -237 -179q-92 -102 -92 -170q0 -86 97 -86q70 0 156 33q90 35 163 93q77 61 147 153q61 80 76 123q11 33 20 33q6 0 6 -12q0 -10 -5 -25q-14 -46 -66 -122q-70 -101 -162 -174q-77 -61 -171 -95 q-85 -30 -159 -30q-137 0 -137 120q0 88 91 192.5t233 173.5q158 76 325 76q219 0 219 -130q0 -60 -79 -195q-23 -39 -147 -231q-80 -122 -80 -148q0 -28 43 -28q37 0 116.5 61t147.5 144q96 117 225 295l100 196q5 14 24 21q39 14 40 14q7 0 7 -7q0 -5 -5 -15zM1178 831 q0 -37 -33 -37q-21 0 -21 24q0 34 30 34q24 0 24 -21zM1076 831q0 -37 -33 -37q-22 0 -22 24q0 34 30 34q25 0 25 -21z" unicode="Ü" horiz-adv-x="1227" glyph-name="Udieresis"/>
<glyph d="M1292 723q-49 -72 -165 -306l-128 -268q-76 -156 -127 -217q-131 -159 -272 -159q-38 0 -62.5 22.5t-24.5 59.5q0 28 16.5 45t40.5 17q21 0 36 -14.5t15 -37.5q0 -20 -14.5 -35t-33.5 -15q-12 0 -14 -4t6 -10.5t32 -6.5q104 0 212 152q38 54 112 197q58 113 115 227 q-91 -112 -157 -181q-181 -190 -279 -190q-72 0 -72 77q0 53 76 177q70 108 141 217q76 121 76 170q0 82 -118 82q-164 0 -319 -83q-131 -71 -221 -179q-83 -100 -83 -170q0 -44 26 -67q23 -20 58 -20q155 0 302 127q74 63 142 150q64 81 76 121q13 17 21 -4 q-13 -44 -67 -122q-70 -100 -158 -169q-158 -126 -305 -126q-127 0 -127 121q0 88 85.5 194t218.5 176q148 78 303 78q217 0 217 -138q0 -71 -78 -202q-31 -52 -146 -217q-78 -113 -78 -139q0 -28 34 -28q82 0 259 189q198 212 263 326l105 185q1 3 38 12q26 7 26 -6 q0 -3 -3 -8zM1165 890q0 -29 -43.5 -75t-60.5 -46q-4 0 -9 0.5t-5 2.5q0 3 17 16q20 17 30.5 32t22.5 59q8 29 28 29t20 -18z" unicode="Ý" horiz-adv-x="1086" glyph-name="Yacute"/>
<glyph d="M1097 305q0 -126 -140 -235q-136 -107 -280 -107q-38 0 -70 7q-171 -185 -331 -185q-70 0 -102 29q-7 15 14 16q38 -22 80 -22q148 0 286 181q-78 39 -78 125q0 109 103 186q73 56 138 66q8 -2 11 -7q3 -4 -2 -8q-52 -13 -113 -68q-88 -78 -88 -178q0 -70 43 -98 q62 87 138 231q63 120 125 240q-201 0 -392 -91q-179 -86 -291 -222q-113 -139 -113 -277q0 -35 9 -67q2 -14 -11 -14q-5 0 -9 3q-15 33 -15 112q0 165 128 305q115 126 303 203q181 73 357 73q25 0 47 -1q26 45 43 72q49 76 92 124t58 48t15 -8l-12 -13q-42 -45 -136 -230 q193 -32 193 -190zM1032 332q0 122 -138 142q-61 -122 -123 -257q-57 -125 -148 -229q19 -3 42 -3q131 0 252 122q115 116 115 225z" unicode="Þ" horiz-adv-x="1100" glyph-name="Thorn"/>
<glyph d="M385 530q0 -40 -20 -93t-48 -82q-50 -51 -50 -80q0 -16 8.5 -45.5t8.5 -45.5q0 -71 -45 -126q-48 -58 -118 -58q-62 0 -62 57q0 23 11 40q13 21 34 21q34 0 34 -35q0 -18 -13 -31t-31 -13q-3 0 -8 -2q1 -22 29 -22q49 0 82 66q26 55 26 111q0 13 -5 37.5t-5 37.5 q0 29 31 61q27 23 54 48t44 67.5t17 77.5q0 32 -20 32q-32 0 -82 -84l-104 -196q-113 -212 -165 -292q-92 -143 -144 -143q-18 0 -30.5 13t-12.5 31q4 5 10 5q8 0 12 -8q1 -20 21 -20q47 0 143 186q87 174 175 347q105 187 175 187q48 0 48 -49z" unicode="ß" horiz-adv-x="299" glyph-name="germandbls"/>
<glyph d="M335 298q0 -3 -6 -12q-2 -3 -53 -120q-45 -103 -45 -125q0 -15 12 -15q23 0 76 62q4 1 8.5 -3t3.5 -9q-54 -77 -112 -77q-47 0 -47 47q0 16 16 59q-82 -104 -131 -104q-51 0 -51 63q0 88 87 168q84 77 173 77q45 0 65 -6q4 -2 4 -5zM250 265q0 18 -14 18 q-41 0 -110.5 -96t-69.5 -143q0 -18 16 -18q26 0 105 99q36 46 54.5 83t18.5 57zM313 346q0 -2 -4 -3q-17 0 -63 45q-50 48 -50 76q0 18 19 18q20 0 28 -28q12 -45 22.5 -60t30.5 -31q17 -14 17 -17z" unicode="à" horiz-adv-x="352" glyph-name="agrave"/>
<glyph d="M335 298q0 -3 -6 -12q-2 -3 -53 -120q-45 -103 -45 -125q0 -15 12 -15q23 0 76 62q4 1 8.5 -3t3.5 -9q-54 -77 -112 -77q-47 0 -47 47q0 16 16 59q-82 -104 -131 -104q-51 0 -51 63q0 88 87 168q84 77 173 77q45 0 65 -6q4 -2 4 -5zM250 265q0 18 -14 18 q-41 0 -110.5 -96t-69.5 -143q0 -18 16 -18q26 0 105 99q36 46 54.5 83t18.5 57zM383 461q0 -28 -50 -76q-47 -44 -64 -44q-4 1 -4 3t18.5 17.5t29 30.5t22.5 59q8 29 28 29t20 -19z" unicode="á" horiz-adv-x="352" glyph-name="aacute"/>
<glyph d="M335 298q0 -3 -6 -12q-2 -3 -53 -120q-45 -103 -45 -125q0 -15 12 -15q23 0 76 62q4 1 8.5 -3t3.5 -9q-54 -77 -112 -77q-47 0 -47 47q0 16 16 59q-82 -104 -131 -104q-51 0 -51 63q0 88 87 168q84 77 173 77q45 0 65 -6q4 -2 4 -5zM250 265q0 18 -14 18 q-41 0 -110.5 -96t-69.5 -143q0 -18 16 -18q26 0 105 99q36 46 54.5 83t18.5 57zM358 338q-1 -1 -2 -1q-10 0 -33 39q-21 35 -26 50q-30 -28 -71 -58.5t-47 -30.5q-3 0 -3 1q0 2 47 46q53 50 81 92h12q4 -42 23 -91.5t19 -46.5z" unicode="â" horiz-adv-x="352" glyph-name="acircumflex"/>
<glyph d="M335 298q0 -3 -6 -12q-2 -3 -53 -120q-45 -103 -45 -125q0 -15 12 -15q23 0 76 62q4 1 8.5 -3t3.5 -9q-54 -77 -112 -77q-47 0 -47 47q0 16 16 59q-82 -104 -131 -104q-51 0 -51 63q0 88 87 168q84 77 173 77q45 0 65 -6q4 -2 4 -5zM250 265q0 18 -14 18 q-41 0 -110.5 -96t-69.5 -143q0 -18 16 -18q26 0 105 99q36 46 54.5 83t18.5 57zM382 399q-1 -14 -15 -30q-20 -25 -52 -21q-18 2 -50.5 18.5t-50.5 18.5t-32 -13.5t-15 -15.5q-3 0 -3 6q2 11 17 30q20 24 43 22q19 -2 54.5 -20t53.5 -20q22 -2 34.5 14.5t13.5 16.5 q3 -1 2 -6z" unicode="ã" horiz-adv-x="352" glyph-name="atilde"/>
<glyph d="M335 298q0 -3 -6 -12q-2 -3 -53 -120q-45 -103 -45 -125q0 -15 12 -15q23 0 76 62q4 1 8.5 -3t3.5 -9q-54 -77 -112 -77q-47 0 -47 47q0 16 16 59q-82 -104 -131 -104q-51 0 -51 63q0 88 87 168q84 77 173 77q45 0 65 -6q4 -2 4 -5zM250 265q0 18 -14 18 q-41 0 -110.5 -96t-69.5 -143q0 -18 16 -18q26 0 105 99q36 46 54.5 83t18.5 57zM359 393q0 -37 -33 -37q-21 0 -21 24q0 34 30 34q24 0 24 -21zM257 393q0 -37 -33 -37q-22 0 -22 24q0 34 30 34q25 0 25 -21z" unicode="ä" horiz-adv-x="352" glyph-name="adieresis"/>
<glyph d="M335 298q0 -3 -6 -12q-2 -3 -53 -120q-45 -103 -45 -125q0 -15 12 -15q23 0 76 62q4 1 8.5 -3t3.5 -9q-54 -77 -112 -77q-47 0 -47 47q0 16 16 59q-82 -104 -131 -104q-51 0 -51 63q0 88 87 168q84 77 173 77q45 0 65 -6q4 -2 4 -5zM250 265q0 18 -14 18 q-41 0 -110.5 -96t-69.5 -143q0 -18 16 -18q26 0 105 99q36 46 54.5 83t18.5 57zM382 445q0 -36 -28.5 -63.5t-64.5 -27.5q-26 0 -43 16.5t-17 42.5q0 36 28 63.5t64 27.5q26 0 43.5 -16.5t17.5 -42.5zM354 439q0 38 -39 38q-23 0 -41.5 -18t-18.5 -40q0 -38 39 -38 q23 0 41.5 17.5t18.5 40.5z" unicode="å" horiz-adv-x="352" glyph-name="aring"/>
<glyph d="M441 265q0 -65 -75 -117q-60 -40 -110 -45q-12 -32 -12 -49q0 -35 37 -35q30 0 68 27q30 22 46 44q13 7 16 -9q-17 -24 -48 -47q-46 -34 -91 -34q-77 0 -77 76q0 18 4 37q-13 -14 -26 -30q-68 -82 -113 -82q-51 0 -51 63q0 88 87 168q84 77 173 77q45 0 65 -6q4 -2 4 -5 q0 -1 -1 -3q28 15 51 15q53 0 53 -45zM400 271q0 19 -14 19q-22 0 -60 -56q-36 -50 -62 -109q45 2 90.5 52t45.5 94zM253 265q0 18 -14 18q-41 0 -110.5 -96t-69.5 -143q0 -18 16 -18q26 0 105 99q36 46 54.5 83t18.5 57z" unicode="æ" horiz-adv-x="455" glyph-name="ae"/>
<glyph d="M253 256q0 -25 -14.5 -38.5t-30.5 -13.5q-30 0 -30 29q0 14 15.5 26.5t15.5 18.5q0 10 -10 10q-34 0 -83 -102q-45 -96 -45 -141q0 -22 19 -22q25 0 62 32q31 26 43 46q5 2 10.5 -2.5t5.5 -11.5q-24 -35 -58 -59q-40 -29 -75 -29l-33 -47h13q62 0 62 -34t-42 -56 q-34 -17 -71 -17q-20 0 -30 2q-6 2 -5 6q1 5 6 5q90 -6 104 47q1 5 1 9q0 21 -32 21h-24l-5 10l40 57q-47 11 -47 80q0 72 63.5 150t124.5 78q50 0 50 -54z" unicode="ç" horiz-adv-x="262" glyph-name="ccedilla"/>
<glyph d="M261 265q0 -65 -75 -117q-60 -40 -110 -45q-12 -32 -12 -49q0 -35 37 -35q30 0 68 27q30 22 46 44q13 7 16 -9q-17 -24 -47 -47q-47 -34 -92 -34q-77 0 -77 76q0 77 67 155.5t126 78.5q53 0 53 -45zM220 271q0 19 -14 19q-21 0 -60 -56q-36 -50 -62 -109q45 2 90.5 52 t45.5 94zM255 346q0 -2 -5 -3q-16 0 -63 45q-50 48 -50 76q0 18 20 18q19 0 28 -28q12 -45 22.5 -60t30.5 -31q17 -14 17 -17z" unicode="è" horiz-adv-x="264" glyph-name="egrave"/>
<glyph d="M257 265q0 -65 -75 -117q-60 -40 -110 -45q-12 -32 -12 -49q0 -35 37 -35q30 0 68 27q30 22 46 44q13 7 16 -9q-17 -24 -47 -47q-47 -34 -92 -34q-77 0 -77 76q0 77 67 155.5t126 78.5q53 0 53 -45zM216 271q0 19 -14 19q-21 0 -60 -56q-36 -50 -62 -109q45 2 90.5 52 t45.5 94zM304 461q0 -28 -45 -76q-42 -44 -58 -44h-8q-6 1 -6 3t18.5 17.5t29 30.5t22.5 59q8 29 28 29q19 0 19 -19z" unicode="é" horiz-adv-x="264" glyph-name="eacute"/>
<glyph d="M261 265q0 -65 -75 -117q-60 -40 -110 -45q-12 -32 -12 -49q0 -35 37 -35q30 0 68 27q30 22 46 44q13 7 16 -9q-17 -24 -47 -47q-47 -34 -92 -34q-77 0 -77 76q0 77 67 155.5t126 78.5q53 0 53 -45zM220 271q0 19 -14 19q-21 0 -60 -56q-36 -50 -62 -109q45 2 90.5 52 t45.5 94zM300 338q-1 -1 -2 -1q-10 0 -34 39q-21 35 -25 50q-30 -28 -71 -58.5t-47 -30.5q-3 0 -3 1q0 2 46 46q54 50 82 92h12q4 -42 22.5 -91.5t19.5 -46.5z" unicode="ê" horiz-adv-x="264" glyph-name="ecircumflex"/>
<glyph d="M261 265q0 -65 -75 -117q-60 -40 -110 -45q-12 -32 -12 -49q0 -35 37 -35q30 0 68 27q30 22 46 44q13 7 16 -9q-17 -24 -47 -47q-47 -34 -92 -34q-77 0 -77 76q0 77 67 155.5t126 78.5q53 0 53 -45zM220 271q0 19 -14 19q-21 0 -60 -56q-36 -50 -62 -109q45 2 90.5 52 t45.5 94zM305 393q0 -37 -34 -37q-21 0 -21 24q0 34 30 34q25 0 25 -21zM202 393q0 -37 -33 -37q-21 0 -21 24q0 34 30 34q24 0 24 -21z" unicode="ë" horiz-adv-x="264" glyph-name="edieresis"/>
<glyph d="M192 294q-33 -66 -65 -132q-52 -107 -52 -125q0 -13 11 -13q15 0 45 25q25 20 38 37q3 1 8 -2.5t4 -8.5q-14 -20 -39 -42q-40 -34 -73 -34q-50 0 -50 48q0 20 47 124q19 39 44 95q4 11 -7 11q-22 0 -22 15t17 14q43 -3 82 4q7 1 11 -3.5t1 -12.5zM206 346q0 -2 -4 -3 q-17 0 -64 45q-50 48 -50 76q0 18 20 18t28 -28q12 -45 22.5 -60t30.5 -31q17 -14 17 -17z" unicode="ì" horiz-adv-x="210" glyph-name="igrave"/>
<glyph d="M192 294q-33 -66 -65 -132q-52 -107 -52 -125q0 -13 11 -13q15 0 45 25q25 20 38 37q3 1 8 -2.5t4 -8.5q-14 -20 -39 -42q-40 -34 -73 -34q-50 0 -50 48q0 20 47 124q19 39 44 95q4 11 -7 11q-22 0 -22 15t17 14q43 -3 82 4q7 1 11 -3.5t1 -12.5zM231 461q0 -28 -50 -76 q-47 -44 -63 -44q-5 1 -5 3t18.5 17.5t29 30.5t22.5 59q8 29 28 29t20 -19z" unicode="í" horiz-adv-x="210" glyph-name="iacute"/>
<glyph d="M192 294q-33 -66 -65 -132q-52 -107 -52 -125q0 -13 11 -13q15 0 45 25q25 20 38 37q3 1 8 -2.5t4 -8.5q-14 -20 -39 -42q-40 -34 -73 -34q-50 0 -50 48q0 20 47 124q19 39 44 95q4 11 -7 11q-22 0 -22 15t17 14q43 -3 82 4q7 1 11 -3.5t1 -12.5zM247 338q-1 -1 -2 -1 q-10 0 -33 39q-21 35 -26 50q-30 -28 -71 -58.5t-47 -30.5q-3 0 -3 1q0 2 47 46q53 50 81 92h12q4 -42 23 -91.5t19 -46.5z" unicode="î" horiz-adv-x="210" glyph-name="icircumflex"/>
<glyph d="M192 294q-33 -66 -65 -132q-52 -107 -52 -125q0 -13 11 -13q15 0 45 25q25 20 38 37q3 1 8 -2.5t4 -8.5q-14 -20 -39 -42q-40 -34 -73 -34q-50 0 -50 48q0 20 47 124q19 39 44 95q4 11 -7 11q-22 0 -22 15t17 14q43 -3 82 4q7 1 11 -3.5t1 -12.5zM246 393q0 -37 -34 -37 q-21 0 -21 24q0 34 30 34q25 0 25 -21zM143 393q0 -37 -33 -37q-21 0 -21 24q0 34 30 34q24 0 24 -21z" unicode="ï" horiz-adv-x="210" glyph-name="idieresis"/>
<glyph d="M293 141q-17 -17 -38 -17q-3 0 -9 1q-29 -53 -74 -89.5t-83 -36.5q-77 0 -77 77q0 91 71 165q68 71 139 71q0 44 -32 100q-31 52 -69 84l-34 -33l-12 12l32 31q-14 9 -59 21q-32 8 -32 24q0 27 23 27q47 0 95 -46l33 32l12 -12l-33 -32q37 -39 64 -95q30 -62 30 -108 q0 -21 -14 -21q-56 0 -113 -98q-52 -90 -52 -151q0 -32 30 -32q27 0 62.5 37t60.5 87q-32 24 -32 67q0 38 17 59q15 18 33 18q43 0 43 -57q0 -40 -21 -84q7 -1 8 -1q12 0 25 11q10 -2 6 -11zM242 231q0 34 -14 34q-18 0 -18 -56q0 -36 13 -52q19 44 19 74z" unicode="ð" horiz-adv-x="302" glyph-name="eth"/>
<glyph d="M326 297q0 3 -14 -25q-21 -42 -56 -121q-44 -99 -44 -114t18 -15q36 0 73 64q19 6 19 -6q-14 -25 -37 -48q-35 -33 -66 -33q-57 0 -57 45q0 32 31 104q22 50 39 79l-4 5q-24 -14 -97 -107q-47 -61 -76 -102q-14 -21 -41 -21q-12 0 -12 12q0 2 55 119q48 103 48 122 t-14 19q-5 0 -39 -11q-11 4 -7 16q38 28 82 28q14 0 25.5 -9.5t11.5 -26.5q0 -31 -51 -133l4 -2q29 40 80 92.5t73 66t45 13.5q11 0 11 -11zM345 400q-2 -13 -16 -30q-20 -24 -51 -21q-18 2 -50.5 18.5t-50.5 18.5q-19 2 -33 -13.5t-15 -14.5q-3 0 -2 5q1 11 17 30 q20 25 43 22q18 -2 53.5 -20t53.5 -19q22 -3 34.5 13.5t13.5 16.5q3 0 3 -6z" unicode="ñ" horiz-adv-x="347" glyph-name="ntilde"/>
<glyph d="M301 141q-17 -17 -38 -17q-3 0 -9 1q-29 -53 -74 -89.5t-83 -36.5q-77 0 -77 77q0 83 66 159.5t148 76.5q14 0 14 -6q0 -10 -14 -10q-56 0 -113 -98q-52 -90 -52 -151q0 -32 30 -32q27 0 62.5 37t60.5 87q-32 24 -32 67q0 38 17 59q15 18 33 18q43 0 43 -57 q0 -40 -21 -84q7 -1 8 -1q12 0 25 11q10 -2 6 -11zM250 231q0 34 -14 34q-18 0 -18 -56q0 -36 13 -52q19 44 19 74zM266 346q0 -2 -4 -3q-17 0 -64 45q-50 48 -50 76q0 18 20 18t28 -28q12 -45 22.5 -60t30.5 -31q17 -14 17 -17z" unicode="ò" glyph-name="ograve"/>
<glyph d="M301 141q-17 -17 -38 -17q-3 0 -9 1q-29 -53 -74 -89.5t-83 -36.5q-77 0 -77 77q0 83 66 159.5t148 76.5q14 0 14 -6q0 -10 -14 -10q-56 0 -113 -98q-52 -90 -52 -151q0 -32 30 -32q27 0 62.5 37t60.5 87q-32 24 -32 67q0 38 17 59q15 18 33 18q43 0 43 -57 q0 -40 -21 -84q7 -1 8 -1q12 0 25 11q10 -2 6 -11zM250 231q0 34 -14 34q-18 0 -18 -56q0 -36 13 -52q19 44 19 74zM322 461q0 -28 -50 -76q-46 -44 -63 -44q-4 1 -4 3t18.5 17.5t29 30.5t22.5 59q8 29 28 29q19 0 19 -19z" unicode="ó" glyph-name="oacute"/>
<glyph d="M301 141q-17 -17 -38 -17q-3 0 -9 1q-29 -53 -74 -89.5t-83 -36.5q-77 0 -77 77q0 83 66 159.5t148 76.5q14 0 14 -6q0 -10 -14 -10q-56 0 -113 -98q-52 -90 -52 -151q0 -32 30 -32q27 0 62.5 37t60.5 87q-32 24 -32 67q0 38 17 59q15 18 33 18q43 0 43 -57 q0 -40 -21 -84q7 -1 8 -1q12 0 25 11q10 -2 6 -11zM250 231q0 34 -14 34q-18 0 -18 -56q0 -36 13 -52q19 44 19 74zM321 338q-1 -1 -2 -1q-10 0 -33 39q-21 35 -26 50q-30 -28 -71 -58.5t-47 -30.5q-3 0 -3 1q0 2 47 46q53 50 81 92h12q4 -42 23 -91.5t19 -46.5z" unicode="ô" glyph-name="ocircumflex"/>
<glyph d="M301 141q-17 -17 -38 -17q-3 0 -9 1q-29 -53 -74 -89.5t-83 -36.5q-77 0 -77 77q0 83 66 159.5t148 76.5q14 0 14 -6q0 -10 -14 -10q-56 0 -113 -98q-52 -90 -52 -151q0 -32 30 -32q27 0 62.5 37t60.5 87q-32 24 -32 67q0 38 17 59q15 18 33 18q43 0 43 -57 q0 -40 -21 -84q7 -1 8 -1q12 0 25 11q10 -2 6 -11zM250 231q0 34 -14 34q-18 0 -18 -56q0 -36 13 -52q19 44 19 74zM352 388q-1 -14 -15 -30q-20 -25 -52 -21q-18 2 -50.5 18.5t-50.5 18.5t-32 -13.5t-15 -15.5q-3 0 -3 6q2 11 17 30q20 24 43 22q19 -2 54.5 -20t53.5 -20 q22 -2 34.5 14.5t13.5 16.5q3 -1 2 -6z" unicode="õ" glyph-name="otilde"/>
<glyph d="M301 141q-17 -17 -38 -17q-3 0 -9 1q-29 -53 -74 -89.5t-83 -36.5q-77 0 -77 77q0 83 66 159.5t148 76.5q14 0 14 -6q0 -10 -14 -10q-56 0 -113 -98q-52 -90 -52 -151q0 -32 30 -32q27 0 62.5 37t60.5 87q-32 24 -32 67q0 38 17 59q15 18 33 18q43 0 43 -57 q0 -40 -21 -84q7 -1 8 -1q12 0 25 11q10 -2 6 -11zM250 231q0 34 -14 34q-18 0 -18 -56q0 -36 13 -52q19 44 19 74zM323 393q0 -37 -34 -37q-21 0 -21 24q0 34 30 34q25 0 25 -21zM220 393q0 -37 -33 -37q-21 0 -21 24q0 34 30 34q24 0 24 -21z" unicode="ö" glyph-name="odieresis"/>
<glyph d="M293 141q-17 -17 -38 -17q-3 0 -9 1q-29 -53 -74 -89.5t-83 -36.5q-26 0 -44 9l-35 -43v29l21 26q-19 20 -19 56q0 83 66 159.5t148 76.5q14 0 14 -6q0 -10 -14 -10q-54 0 -110 -94q-50 -83 -55 -145l121 149q0 38 18 60q14 17 32 17q6 0 11 -1l46 56v-29l-29 -36 q15 -15 15 -47q0 -40 -21 -84q7 -1 8 -1q12 0 25 11q10 -2 6 -11zM242 231q0 11 -2 18l-30 -37v-3q0 -36 13 -52q19 44 19 74zM214 139q-22 16 -29 42l-122 -150q6 -16 28 -16q27 0 62.5 37t60.5 87z" unicode="ø" horiz-adv-x="302" glyph-name="oslash"/>
<glyph d="M339 296q-111 -210 -111 -258q0 -16 10 -16q15 0 42.5 29.5t35.5 48.5q15 6 20 -4q-11 -25 -41 -56q-39 -41 -76 -41q-15 0 -27 12q-15 13 -15 35t17 68q-88 -114 -133 -114t-45 44q0 25 41 113q25 55 51 109q4 11 -8 11q-22 0 -22 15t18 14q42 -3 81 4q8 2 12 -3 q4 -4 0 -12q-30 -60 -60 -121q-56 -115 -56 -132q0 -9 10 -9q25 0 147 165q22 45 46 93q8 17 18 17q4 0 16.5 1t16.5 1q19 0 12 -14zM272 346q0 -2 -4 -3q-17 0 -64 45q-50 48 -50 76q0 18 20 18t28 -28q12 -45 22.5 -60t30.5 -31q17 -14 17 -17z" unicode="ù" horiz-adv-x="360" glyph-name="ugrave"/>
<glyph d="M339 296q-111 -210 -111 -258q0 -16 10 -16q15 0 42.5 29.5t35.5 48.5q15 6 20 -4q-11 -25 -41 -56q-39 -41 -76 -41q-15 0 -27 12q-15 13 -15 35t17 68q-88 -114 -133 -114t-45 44q0 25 41 113q25 55 51 109q4 11 -8 11q-22 0 -22 15t18 14q42 -3 81 4q8 2 12 -3 q4 -4 0 -12q-30 -60 -60 -121q-56 -115 -56 -132q0 -9 10 -9q25 0 147 165q22 45 46 93q8 17 18 17q4 0 16.5 1t16.5 1q19 0 12 -14zM349 461q0 -28 -50 -76q-47 -44 -64 -44q-4 1 -4 3t18.5 17.5t29 30.5t22.5 59q8 29 28 29t20 -19z" unicode="ú" horiz-adv-x="360" glyph-name="uacute"/>
<glyph d="M339 296q-111 -210 -111 -258q0 -16 10 -16q15 0 42.5 29.5t35.5 48.5q15 6 20 -4q-11 -25 -41 -56q-39 -41 -76 -41q-15 0 -27 12q-15 13 -15 35t17 68q-88 -114 -133 -114t-45 44q0 25 41 113q25 55 51 109q4 11 -8 11q-22 0 -22 15t18 14q42 -3 81 4q8 2 12 -3 q4 -4 0 -12q-30 -60 -60 -121q-56 -115 -56 -132q0 -9 10 -9q25 0 147 165q22 45 46 93q8 17 18 17q4 0 16.5 1t16.5 1q19 0 12 -14zM326 338q-1 -1 -2 -1q-10 0 -33 39q-21 35 -26 50q-30 -28 -71 -58.5t-47 -30.5q-3 0 -3 1q0 2 47 46q53 50 81 92h12q4 -42 23 -91.5 t19 -46.5z" unicode="û" horiz-adv-x="360" glyph-name="ucircumflex"/>
<glyph d="M339 296q-111 -210 -111 -258q0 -16 10 -16q15 0 42.5 29.5t35.5 48.5q15 6 20 -4q-11 -25 -41 -56q-39 -41 -76 -41q-15 0 -27 12q-15 13 -15 35t17 68q-88 -114 -133 -114t-45 44q0 25 41 113q25 55 51 109q4 11 -8 11q-22 0 -22 15t18 14q42 -3 81 4q8 2 12 -3 q4 -4 0 -12q-30 -60 -60 -121q-56 -115 -56 -132q0 -9 10 -9q25 0 147 165q22 45 46 93q8 17 18 17q4 0 16.5 1t16.5 1q19 0 12 -14zM323 393q0 -37 -34 -37q-21 0 -21 24q0 34 30 34q25 0 25 -21zM220 393q0 -37 -33 -37q-21 0 -21 24q0 34 30 34q24 0 24 -21z" unicode="ü" horiz-adv-x="360" glyph-name="udieresis"/>
<glyph d="M310 291q-5 -11 -85 -230q28 20 38 34q12 0 17 -13q-17 -20 -67 -53l-7 -20q-30 -80 -91 -151q-70 -80 -130 -80q-42 0 -42 42q0 24 28 59.5t70 64.5q28 19 104 66l31 77q-21 -27 -55 -54q-42 -34 -65 -34q-20 0 -33.5 14t-13.5 34q0 29 48 114q52 92 52 106q0 16 -13 16 q-11 0 -40 -16q-11 3 -14 14q22 28 74 28q47 0 47 -41q0 -22 -54.5 -123t-54.5 -112t10 -11q30 0 87 65q49 58 65 95l41 100q9 19 18 21q14 3 20 3q17 0 17 -9q0 -2 -2 -6zM133 -21q-49 -30 -63 -41q-32 -27 -56 -59q-28 -37 -28 -59q0 -18 16 -18q26 0 62 47.5t61 108.5z M314 461q0 -28 -45 -76q-42 -44 -58 -44h-8q-6 1 -6 3t18.5 17.5t29 30.5t22.5 59q8 29 28 29q19 0 19 -19z" unicode="ý" horiz-adv-x="320" glyph-name="yacute"/>
<glyph d="M303 259q0 -69 -62 -161q-67 -99 -131 -99q-34 0 -56 18q-42 -91 -107 -220q-3 -6 -15 -12.5t-22 -6.5q-16 0 -16 12q0 4 2 10l303 691q3 7 3 13q0 16 -12 16q-5 0 -24 -17q-16 -6 -19 11q28 42 74 42q35 0 35 -42q0 -15 -56 -150q-52 -129 -73 -171q75 116 125 116 q51 0 51 -50zM247 267q0 17 -9 17q-15 0 -67 -69q-46 -62 -85 -127q-12 -28 -24 -55q14 -13 32 -13q48 0 103 100q50 91 50 147z" unicode="þ" glyph-name="thorn"/>
<glyph d="M835 695q0 -74 -121 -121q-107 -42 -266 -49q-8 -21 -8 -39q0 -23 14 -36q62 9 121 9q62 0 101 -8.5t39 -20.5q0 -13 -38 -23t-86 -10q-79 0 -138 30q-141 -33 -237 -122.5t-96 -182.5q0 -98 142 -98q266 0 452 182q14 0 10 -14q-66 -89 -207 -144q-128 -50 -251 -50 q-114 0 -173 48q-52 44 -52 119q0 103 119 182q106 70 266 98q-39 32 -40 79q-80 3 -172 37q-81 29 -103 55q-2 5 2 9.5t9 4.5q19 -18 84 -43q88 -35 181 -41q14 77 121 142t223 65q104 0 104 -58zM796 703q0 31 -50 31q-79 0 -169 -60q-84 -58 -121 -129q117 6 228.5 57 t111.5 101zM822 837q0 -37 -34 -37q-21 0 -21 24q0 34 30 34q25 0 25 -21zM719 837q0 -37 -33 -37q-21 0 -21 24q0 34 30 34q24 0 24 -21z" unicode="Ё" horiz-adv-x="709" glyph-name="afii10023"/>
<glyph d="M1466 738q-60 -107 -191 -335q-38 -65 -76 -137q58 -2 80 -2q24 0 68 6q13 -6 3 -20q-31 -15 -167 -15q-9 -16 -17 -32q66 -37 66 -101q0 -48 -33.5 -76.5t-74.5 -28.5q-36 0 -60.5 26t-24.5 67q0 35 46 120q-64 19 -159 24q-299 -240 -576 -240q-126 0 -211 53 q-97 60 -97 168q0 126 138 213q127 80 284 80q166 0 262 -66q3 -3 3 -6q0 -17 -18 -12q-71 57 -213 57q-150 0 -277 -87q-134 -91 -134 -211q0 -76 77 -124q72 -44 175 -44q274 0 550 220l-96 2l-416 2h-33q-10 2 -10 10q0 9 27.5 24.5t49.5 15.5q15 0 191 -6q197 -7 272 -9 l61 -1q26 22 44 40q208 204 428 420q16 14 41 20q21 5 21 -6q0 -3 -3 -9zM1376 671l-8 1q-7 -8 -131 -136q-132 -136 -183 -187q-39 -39 -83 -77l146 -4q30 49 97 153zM1188 119q0 34 -34 60q-57 -113 -57 -137q0 -29 25 -29q23 0 44.5 33t21.5 73z" unicode="А" horiz-adv-x="1333" glyph-name="afii10017"/>
<glyph d="M1090 427q15 2 28.5 4t27.5 2q68 0 106.5 -36.5t38.5 -100.5q0 -49 -25.5 -100t-65.5 -93t-89.5 -69t-98.5 -27q-109 0 -109 96q0 27 16.5 48t39.5 21q44 0 44 -50q0 -21 -11 -34t-24 -19.5t-24 -9.5t-11 -4q0 -8 19 -16.5t40 -8.5q37 0 78 24t75 61.5t56 84t22 91.5 q0 54 -32.5 86t-77.5 32q-27 0 -55 -12q-26 -11 -48 -25q-6 -15 -12 -26q-14 -30 -19 -40l-20 -38q-36 -68 -88 -115.5t-136 -87.5q-143 -69 -299 -69q-85 0 -153.5 16.5t-117 46.5t-74.5 72.5t-26 94.5q0 54 33.5 104.5t90 90t130 63t154.5 23.5q45 0 88 -7v1 q17 50 61.5 95.5t107.5 80t139 55t155 20.5q63 0 180 -39q60 -20 93.5 -29t40.5 -9q29 0 49 32q3 2 7 2q9 0 9 -10q0 -15 -12 -29t-30.5 -25t-40.5 -18t-41 -7q-34 0 -159 46q-123 46 -203 46q-50 0 -101.5 -19t-96.5 -49.5t-79 -69t-48 -78.5l-1 -1q28 -6 55 -15 q82 -26 144 -68l2 -6q0 -8 -12 -8q-1 0 -9 2q-75 50 -184 75q-4 -19 -4 -27q0 -29 13 -58v-2q0 -6 -7 -6q-8 0 -14 9t-10 21t-6 24.5t-2 19.5v9q0 5 1 10v4q-18 2 -29 3q-14 1 -28 1q-72 0 -141 -22.5t-123 -60t-86.5 -85.5t-32.5 -100q0 -47 22.5 -83.5t64.5 -62t102 -39 t136 -13.5q140 1 249.5 62t184.5 188l22 37q17 32 36.5 68t38.5 68.5t36.5 59.5t31.5 41q13 14 34 30t43 29.5t41.5 22t30.5 8.5q9 0 9 -6q0 -9 -13 -13q-19 -8 -36.5 -20.5t-35.5 -33.5t-37 -52.5t-41 -77.5q-5 -11 -10 -21l24 10q23 9 39 10z" unicode="Б" horiz-adv-x="1298" glyph-name="afii10018"/>
<glyph d="M1160 650q0 -88 -99 -167q-77 -62 -193 -103q28 5 55 5q69 0 106 -36q34 -33 34 -88q0 -88 -85 -175q-88 -89 -186 -89q-106 0 -106 87q0 25 16 44.5t38 19.5q43 0 43 -46q0 -25 -17.5 -40.5t-38.5 -15.5q-13 0 -13 -5t15 -13q19 -10 43 -10q73 0 144.5 73t71.5 159 q0 52 -35 81q-30 26 -72 26q-31 0 -49 -6q-8 -4 -15 -8q-5 0 -8 6t-1 11q8 7 32 13q-5 2 -5 6q0 5 8 8q88 35 160 100q90 83 90 168q0 37 -25 55q-31 20 -108 20q-162 0 -374.5 -94.5t-356.5 -229.5q-158 -149 -158 -282q0 -51 42.5 -80.5t114.5 -29.5q116 0 228 74 q93 61 162 156q27 38 128 193q80 123 113 159q80 86 103 86q12 0 12 -10q0 -2 -19 -19q-25 -23 -44 -50q-39 -70 -79 -141q-71 -126 -137 -206q-215 -263 -474 -263q-93 0 -148 44.5t-55 122.5q0 129 164 273q151 133 373 224q227 93 407 93q198 0 198 -100z" unicode="В" horiz-adv-x="1076" glyph-name="afii10019"/>
<glyph d="M571 478q-27 3 -41.5 4t-28.5 1q-153 0 -271 -86q-112 -82 -112 -182q0 -101 100 -153q85 -45 225 -45q281 0 434 250l22 37q19 35 38 69.5t39 69.5q38 68 66 98q33 36 87 65q38 22 58 25q13 1 13 -6q0 -9 -13 -13q-50 -21 -102 -94q-17 -24 -48 -90q-24 -51 -38.5 -81.5 t-19.5 -40.5l-20 -38q-22 -42 -44 -68q-62 -78 -180 -135q-143 -69 -299 -69q-171 0 -271 63q-100 64 -100 167q0 104 116 190q122 91 292 91q23 0 46 -1.5t45 -5.5q131 -25 226 -88q2 -4 2 -6q0 -8 -12 -8q-3 0 -9 2q-79 54 -200 78zM592 496q-9 -35 -9 -48q0 -28 13 -58 q1 -7 -5 -8t-14 5q-20 34 -20 69v9.5t1 9.5l3 26q32 95 154 168q137 83 309 83q63 0 180 -39q120 -38 134 -38q29 0 49 32q7 4 12 1q6 -5 3 -15q-11 -26 -38 -45q-37 -28 -85 -28q-33 0 -159 46q-125 46 -203 46q-100 0 -198 -67q-99 -67 -127 -149z" unicode="Г" horiz-adv-x="1175" glyph-name="afii10020"/>
<glyph d="M1255 410q0 -178 -166 -296q-162 -115 -399 -115q-89 0 -238.5 29.5t-274.5 29.5q-73 0 -133 -48q-7 -3 -11 2t-1 13q19 23 68 49q70 37 145 37q90 0 280.5 -38.5t270.5 -38.5q140 0 256 95q129 107 129 266q0 113 -98 193q-28 -35 -94 -155q-72 -132 -111 -187 q92 34 203 109q16 5 16 -8q0 -3 -2 -7q-95 -81 -248 -136q-24 -35 -66 -74q-47 -45 -80 -58q-13 -5 -13 5q0 6 8 11q48 28 89 95q-135 -39 -270 -39q-177 0 -288 74q-115 76 -115 201t181 229q178 103 384 103q265 0 429 -100q58 40 94 45q4 -1 4 -6q-1 -5 -5 -8 q-30 -15 -69 -47q125 -88 125 -225zM1054 610q-151 102 -407 102q-208 0 -363 -96q-145 -90 -145 -194q0 -103 117 -165q114 -60 294 -60q151 0 258 27q54 101 109 203q66 114 137 183z" unicode="Д" horiz-adv-x="1231" glyph-name="afii10021"/>
<glyph d="M832 695q0 -74 -121 -121q-107 -42 -266 -49q-8 -21 -8 -39q0 -23 14 -36q62 9 121 9q62 0 101 -8.5t39 -20.5q0 -13 -38 -23t-86 -10q-79 0 -138 30q-141 -33 -237 -122.5t-96 -182.5q0 -98 142 -98q266 0 452 182q14 0 10 -14q-66 -89 -207 -144q-128 -50 -251 -50 q-114 0 -173 48q-52 44 -52 119q0 103 119 182q106 70 266 98q-39 32 -40 79q-80 3 -172 37q-81 29 -103 55q-2 5 2 9.5t9 4.5q19 -18 84 -43q88 -35 181 -41q14 77 121 142t223 65q104 0 104 -58zM793 703q0 31 -50 31q-79 0 -169 -60q-84 -58 -121 -129q117 6 228.5 57 t111.5 101z" unicode="Е" horiz-adv-x="709" glyph-name="afii10022"/>
<glyph d="M907 220q-24 -36 -36.5 -62t-18.5 -41q-20 -48 -25.5 -83.5t-0.5 -59.5q-2 -7 -10 -9t-15 1q-8 17 0 75q8 35 25 85.5t37 94.5q14 29 28 57t31 56q2 4 4 7l-79 -2q-14 -27 -31.5 -53t-37.5 -49q-45 -54 -95 -94.5t-107 -74.5q-118 -71 -218 -71q-35 0 -58 20t-23 53 q0 29 19.5 48t43.5 19q50 0 50 -45q0 -24 -20 -40.5t-43 -16.5l-12 2q-5 0 -5 -3q0 -6 12 -13t32 -7q88 0 194 76q100 70 183 182q11 16 21.5 32.5t20.5 33.5l20 37q29 56 47.5 109.5t18.5 94.5q0 149 -200 149q-125 0 -276 -84q-66 -37 -127 -86t-107.5 -100t-74.5 -99.5 t-28 -85.5q0 -39 23.5 -63.5t61.5 -24.5q129 0 317 153q174 142 217 252q2 1 6 1q5 0 10 -2.5t6 -7.5q-47 -122 -216 -264q-184 -154 -323 -154q-59 0 -93 30t-34 87q0 89 90 202q91 112 228 186q155 83 311 83q125 0 194 -46.5t69 -132.5q0 -33 -12 -86t-38 -111 q20 0 40 -0.5t43 -0.5q16 25 36.5 57.5t40 63.5t34.5 57t21 39q9 21 15 41t11 35q2 20 2 36t-3 28q3 12 12 12q6 -1 9 -10t4 -22.5t-0.5 -30.5t-5.5 -33q-6 -31 -19 -65.5t-27 -72.5q-11 -23 -30 -58t-42 -76q43 0 88 3q27 45 58 88.5t63.5 81t64 67.5t59.5 49q54 36 102 56 t93 20q38 0 58.5 -18t20.5 -47q0 -15 -5.5 -29t-14.5 -25.5t-21.5 -18t-25.5 -6.5q-44 0 -44 49q0 25 19 45t43 20q7 0 7 5q0 9 -27 9q-92 0 -219 -133q-40 -42 -80.5 -95t-97.5 -151q-10 -17 -19 -35t-17 -36q-55 -117 -55 -194q0 -28 17 -45.5t43 -17.5q30 0 72.5 17 t85 43.5t79 58t56.5 60.5h2q12 0 14 -12q-15 -30 -52 -63t-82 -60.5t-92 -46t-82 -18.5q-31 0 -51.5 11t-33 29.5t-17.5 42.5t-5 50q0 30 5 60t13 55q9 24 20.5 48.5t25.5 50.5q-17 0 -38.5 -0.5t-48.5 -0.5q-18 -31 -38 -62t-40 -60z" unicode="Ж" horiz-adv-x="1423" glyph-name="afii10024"/>
<glyph d="M664 765q-51 0 -106.5 -11.5t-108 -32t-100.5 -48t-84 -60.5q-60 -54 -60 -106q0 -18 9.5 -31.5t25 -22.5t35.5 -13.5t41 -4.5q34 0 69.5 8.5t69.5 23.5t64.5 35t56.5 43q10 9 19.5 20.5t17 21t12 16t6.5 6.5q5 0 7.5 -3t2.5 -5q-8 -17 -25 -36t-41 -41 q-63 -58 -131.5 -90.5t-134.5 -32.5q-26 0 -48.5 7t-39.5 20t-27 30.5t-10 37.5q0 33 21.5 67t59.5 69q38 36 86 64t101.5 48t109 30.5t108.5 10.5q48 0 84 -13t60 -34.5t36 -50t12 -58.5q0 -48 -28 -90.5t-74.5 -77t-106.5 -62.5q-50 -23 -102 -39q47 -22 69 -57 q27 -41 27 -86q0 -48 -26.5 -93t-73 -79.5t-111.5 -55t-141 -20.5q-48 0 -93 14t-79.5 39t-55 60t-20.5 78q0 34 19.5 59t48.5 25q23 0 37.5 -14t14.5 -31q0 -32 -15 -45t-33 -16.5t-33 -3t-15 -3.5q0 -5 2 -12t5 -14t6.5 -12.5t5.5 -7.5q42 -48 90 -68t97 -20q60 0 116 25 t100 64t70.5 85t26.5 88q0 33 -19 60q-14 20 -41 35q-25 -6 -50 -9t-48 -3q-33 0 -51.5 3t-20.5 12q1 5 10 10t22.5 8.5t30 6t32.5 2.5q20 0 38.5 -4t36.5 -11q49 18 94.5 47t80 65.5t55 80t20.5 89.5q0 22 -7.5 43t-22 36.5t-36 25t-50.5 9.5z" unicode="З" horiz-adv-x="680" glyph-name="afii10025"/>
<glyph d="M1300 726q-46 -97 -158 -332q-136 -290 -136 -350q0 -7 6.5 -14.5t14.5 -7.5q41 0 109 73q53 58 84 112q7 5 13 5q7 -1 7 -8q-25 -58 -77 -119q-74 -86 -141 -86q-76 0 -76 74q0 76 99 271q-73 -96 -119 -147q-184 -203 -292 -203q-76 0 -76 79q0 60 79 194q1 3 146 230 q79 124 79 159q0 31 -39.5 52t-99.5 21q-158 0 -319 -84q-139 -71 -237 -179q-92 -102 -92 -170q0 -86 97 -86q70 0 156 33q90 35 163 93q77 61 147 153q61 80 76 123q11 33 20 33q6 0 6 -12q0 -10 -5 -25q-14 -46 -66 -122q-70 -101 -162 -174q-77 -61 -171 -95 q-85 -30 -159 -30q-137 0 -137 120q0 88 91 192.5t233 173.5q158 76 325 76q219 0 219 -130q0 -60 -79 -195q-23 -39 -147 -231q-80 -122 -80 -148q0 -28 43 -28q37 0 116.5 61t147.5 144q96 117 225 295l100 196q5 14 24 21q39 14 40 14q7 0 7 -7q0 -5 -5 -15z" unicode="И" horiz-adv-x="1227" glyph-name="afii10026"/>
<glyph d="M1300 726q-3 -6 -14 -29t-26 -55t-33 -70t-35 -73t-30.5 -63t-19.5 -42q-69 -146 -102.5 -233t-33.5 -117q0 -7 6.5 -14.5t14.5 -7.5q17 0 42.5 17t53 43.5t53.5 59.5t44 65q8 5 13 5q7 -1 7 -8q-17 -38 -43 -74.5t-56 -65.5t-61 -47t-58 -18q-76 0 -76 74q0 76 99 271 q-37 -48 -66.5 -84.5t-52.5 -62.5q-185 -203 -292 -203q-76 0 -76 79q0 61 79 194q1 2 37 59t109 171q79 124 79 159q0 15 -10.5 28.5t-29 23.5t-44 15.5t-55.5 5.5q-159 0 -319 -84q-65 -33 -124.5 -79t-105 -94t-72.5 -94.5t-27 -81.5q0 -86 97 -86q36 0 77 9.5t83 26 t83 39.5t76 51q33 27 69 65t67.5 77.5t55 75t31.5 58.5q10 33 20 33q6 0 6 -12q0 -22 -20 -62t-53 -86t-75 -92t-85 -81q-36 -29 -77.5 -52t-84.5 -39t-86 -25t-82 -9q-137 0 -137 120q0 44 24.5 94t68 99t103 94t128.5 79q156 76 325 76q219 0 219 -130q0 -61 -79 -195 q0 1 -9.5 -14t-25.5 -39.5t-36.5 -56.5t-41.5 -66t-41.5 -67.5t-36.5 -61.5t-26 -48t-10 -26q0 -28 43 -28q18 0 49 17t68 45.5t75.5 65.5t71.5 77q48 59 104 132t121 163l100 196q3 9 14.5 16t23.5 11t20.5 6t5.5 2q7 0 7 -7q0 -3 -5 -15zM1041 874q4 -3 12.5 -15t23.5 -33 q16 -23 39 -23q34 0 69 57q21 3 24 -13q-8 -14 -19.5 -27t-27.5 -26q-39 -33 -80 -33q-33 0 -53 13.5t-25.5 32t3.5 37.5t34 30z" unicode="Й" horiz-adv-x="1227" glyph-name="afii10027"/>
<glyph d="M1492 736q0 -7 -12 -6q-3 0 -16.5 1.5t-22.5 1.5q-52 0 -115 -70q-31 -35 -107 -144q-65 -94 -101 -124q-55 -45 -114 -74q-42 -20 -64 -24q-9 -1 -12 -3q-1 -2 3 -7q63 -81 163 -197q60 -61 121 -61q45 0 89 45q13 -1 13 -13q-13 -21 -43 -37q-40 -21 -91 -21 q-125 0 -243 153q-42 54 -56 69q-28 30 -53 38q-93 -127 -231.5 -197t-297.5 -70q-113 0 -181 40q-72 44 -72 123q0 96 108 166q117 75 302 75q89 0 138 -19q4 -4 2 -11q-1 -6 -7 -8q-37 16 -110 16q-143 0 -265 -70q-128 -75 -128 -174q0 -52 55.5 -85t136.5 -33 q263 0 439 196q45 50 130 198q79 139 126 183q36 35 86 71q-99 -35 -163 -35q-49 0 -242.5 44t-274.5 44q-117 0 -211.5 -79t-94.5 -168q0 -23 6 -43q-2 -4 -7 -6q-6 -1 -9 2q-12 23 -12 66q0 122 133 196q115 65 265 65q66 0 277.5 -33t247.5 -33q100 0 167 36q4 -1 7 -7 q2 -7 -1 -11q-12 -9 -60 -27q5 -8 -6 -16q-27 -19 -62 -63q-15 -18 -65 -118q-57 -112 -100 -177q106 10 188 93q22 22 102 135q73 104 129 153q82 72 167 72q49 0 49 -18z" unicode="К" horiz-adv-x="1325" glyph-name="afii10028"/>
<glyph d="M1359 738q9 6 34 12q20 5 20 -8q0 -3 -4 -7q-28 -25 -100 -163q-14 -23 -23.5 -41.5t-18.5 -37t-20 -40.5l-26 -52q-54 -106 -97 -209q-47 -115 -47 -146q0 -27 25 -27q48 0 128 64q76 60 102 108q15 4 19 -10q-16 -27 -43 -56t-67 -60q-85 -67 -139 -67q-90 0 -90 95 q0 46 33 117q21 47 77 142q66 109 138 228l37 71q-47 -51 -120 -131t-173 -192q-106 -122 -261 -211q-206 -119 -413 -119q-123 0 -200 53q-81 55 -81 154q0 138 163 235q156 93 357 93q89 0 166 -20q58 -17 78 -34q1 -3 -7 -6t-17 -1q-71 38 -208 38q-173 0 -330 -105 q-158 -104 -158 -219q0 -166 240 -166q168 0 350 93q169 85 291 221q165 183 261 283.5t124 120.5z" unicode="Л" horiz-adv-x="1359" glyph-name="afii10029"/>
<glyph d="M1621 735q-81 -125 -187 -334q-54 -106 -97 -209q-47 -114 -47 -146q0 -27 25 -27q47 0 128 64q77 60 102 108q15 5 19 -10q-31 -54 -110 -116q-85 -67 -139 -67q-90 0 -90 95q0 46 33 117q21 47 77 142q66 109 138 228l-11 -7q-71 -96 -220 -290q-64 -79 -170 -182 q-86 -83 -106 -96q-10 -7 -15 -4q-7 4 1 18q27 42 96 168q87 177 159 301q43 73 97 162l-7 1q-93 -100 -293 -323q-107 -123 -261 -211q-206 -119 -413 -119q-124 0 -200 53q-81 56 -81 154q0 137 163 235q156 93 357 93q91 0 166 -20q57 -16 78 -34q1 -3 -7 -6t-17 -1 q-70 38 -208 38q-172 0 -330 -104.5t-158 -219.5q0 -166 240 -166q169 0 350 93q169 86 291 221q329 364 385 404q9 6 34 12q20 5 20 -8q0 -3 -4 -7q-28 -25 -100 -163q-58 -118 -164 -322q-55 -94 -87 -132l3 -3q14 12 85 95q90 105 164 202q118 152 245 314q7 9 36 20 q15 5 25 5q16 0 5 -16z" unicode="М" horiz-adv-x="1565" glyph-name="afii10030"/>
<glyph d="M1153 734q-31 -23 -87 -46q-74 -31 -132 -31q-57 0 -204 30t-243 30q-153 0 -262 -55q-87 -44 -136 -117q-39 -57 -39 -103q0 -22 4 -39q0 -6 -7 -9q-6 -2 -12 3q-9 20 -9 50q0 158 202 245q151 65 317 65q107 0 251.5 -26t178.5 -26q110 0 165 45q14 1 14 -13 q0 -2 -1 -3zM1404 709q0 -49 -60 -111q-68 -71 -192 -128q-25 -11 -56 -22q-142 -244 -142 -383q0 -46 47 -46q52 0 124 49q59 41 93 86q7 4 12 2t4 -9q-26 -41 -80 -84q-83 -65 -167 -65q-100 0 -100 98q0 119 127 325q-53 -16 -111 -27q-76 -130 -155 -203 q-92 -87 -229 -140.5t-262 -53.5q-78 0 -124 30t-46 84q0 79 87.5 149t244.5 113q92 25 219 36q107 8 215 16q45 72 116 174q36 42 103 83q7 1 10 -3t-1 -8q-33 -19 -62 -65q-26 -49 -92 -172q60 9 110 22q82 124 167 205q92 89 150 89q50 0 50 -41zM1367 710q0 21 -19 21 q-36 0 -102 -73q-63 -69 -129 -176q77 30 153 88q97 76 97 140zM822 379q-55 -9 -238 -30q-133 -16 -195 -32q-104 -28 -186 -84q-94 -63 -94 -123q0 -42 38 -68t100 -26q101 0 214.5 44t195.5 115q67 59 165 204z" unicode="Н" horiz-adv-x="1226" glyph-name="afii10031"/>
<glyph d="M949 561q0 -147 -110 -283q-99 -125 -255.5 -203.5t-298.5 -78.5q-26 0 -51 4q12 -34 40 -65q1 -6 -6 -10.5t-14 -1.5q-34 32 -47 82q-153 36 -153 197q0 143 113 277q101 120 261 198q156 75 294 75q91 0 142 -21q3 -5 0 -10q-4 -5 -10 -6q-44 16 -132 16 q-123 0 -271 -89q-144 -87 -241 -215q-104 -138 -104 -264q0 -105 96 -136q-6 32 -6 71q0 140 81.5 284t208.5 235q136 97 276 97q90 0 141 -47q46 -42 46 -106zM911 574q0 57 -42 88t-107 31q-123 0 -255 -105q-120 -96 -202.5 -242t-82.5 -267q0 -31 6 -58q17 -3 32 -3 q125 0 280 83.5t258 207.5q113 136 113 265z" unicode="О" horiz-adv-x="870" glyph-name="afii10032"/>
<glyph d="M985 333q19 32 45.5 73.5t53.5 84.5t49.5 84.5t33 74t5 52.5t-35.5 20q-38 0 -120 -61q-41 -31 -83.5 -66.5t-78.5 -77.5q-25 -29 -52 -60t-56.5 -66t-61.5 -76.5t-67 -92.5l-123 -202q-6 -7 -19 -13t-25 -8.5t-19.5 -1t-2.5 9.5q2 4 16 31t36 69t50 96t59 113 q0 4 125 247q67 133 64 168q-1 15 -12.5 27t-31 19.5t-45 9.5t-55.5 -2q-157 -19 -311 -125q-66 -45 -121 -96.5t-99 -111.5q-83 -111 -77 -180q8 -87 104 -73q70 9 152 53q88 46 155 113q69 69 133 171q27 44 43 76.5t22 55.5q9 34 17 35q5 1 7 -11v-11t-2 -14 q-5 -24 -19 -56t-37 -74q-59 -107 -146 -193q-35 -35 -76 -64.5t-86 -52.5q-84 -41 -156 -50q-135 -18 -146 101q-8 87 73 202q82 116 216 203q150 95 318 118q219 29 230 -101q5 -60 -61 -203l-6.5 -13t-8.5 -17.5t-12.5 -25t-18.5 -35.5q38 48 65.5 79t51.5 57 q97 102 176.5 152.5t133.5 50.5q76 0 73 -79q-1 -15 -10.5 -43.5t-26.5 -67t-41 -84t-54 -93.5q-88 -143 -141 -234.5t-58 -121.5q-1 -7 4.5 -14.5t13.5 -8.5q43 -2 118 68q30 28 55 55t44 53q8 4 15 4q6 -1 5 -8q-32 -56 -93 -115q-88 -83 -152 -79q-77 3 -66 77 q3 19 15 47t32 64t46.5 78t57.5 90z" unicode="П" horiz-adv-x="1158" glyph-name="afii10033"/>
<glyph d="M1163 553q0 -126 -140 -236q-136 -106 -280 -106q-16 0 -30 1q-81 -175 -219 -298q-144 -129 -274 -129q-70 0 -102 29q-6 15 14 16q38 -22 80 -22q79 0 159.5 56t150.5 157q48 70 118 206q-98 37 -98 135q0 109 103 186q73 55 138 65q8 -1 11 -6q3 -4 -2 -8 q-52 -13 -113 -68q-88 -78 -88 -178q0 -80 59 -106q36 68 71 137q39 73 66 115q49 76 93 125q41 47 56 47t15 -8q-12 -15 -27 -31q-45 -55 -202 -399h9q131 -2 252 121q115 117 115 225q0 147 -199 147q-202 0 -393 -91q-179 -85 -292 -223t-113 -277q0 -34 9 -67 q2 -13 -11 -13q-5 0 -9 2q-15 33 -15 112q0 165 128 306q115 126 303 203q181 73 357 73q300 0 300 -198z" unicode="Р" horiz-adv-x="1046" glyph-name="afii10034"/>
<glyph d="M1153 665q0 -103 -164 -210q-129 -85 -335 -158q-170 -60 -277 -76q-25 -58 -25 -102q0 -46 38 -72t97 -26q118 0 251 53q116 46 208 117q19 0 15 -13q-74 -68 -199 -121q-143 -62 -267 -62q-199 0 -199 180q0 17 4 38q-26 -2 -45 -2q-77 0 -144 25q-57 21 -74 46 q-3 8 2 11.5t15 3.5q75 -60 205 -60q20 0 47 2q32 119 163 242q122 116 280 192q162 78 286 78q57 0 89 -25q29 -22 29 -61zM1121 681q0 49 -68 49q-176 0 -382 -159q-189 -146 -279 -318q90 18 252 83q195 78 319 159q158 103 158 186z" unicode="С" horiz-adv-x="976" glyph-name="afii10035"/>
<glyph d="M494 20q-6 -7 -25 -12.5t-38.5 -7.5t-33 0t-8.5 10q25 46 61.5 104t79.5 127.5t90 150t94 171.5q67 133 64 168q-1 15 -12.5 27t-31 19.5t-45 9.5t-55.5 -2q-157 -19 -311 -125q-66 -45 -121 -96.5t-99 -111.5q-83 -111 -77 -180q8 -87 104 -73q70 9 152 53 q88 46 155 113q69 69 133 171q27 44 43 76.5t22 55.5q9 34 17 35q5 1 7 -11v-11t-2 -14q-5 -24 -19 -56t-37 -74q-59 -107 -146 -193q-35 -35 -76 -64.5t-86 -52.5q-84 -41 -156 -50q-135 -18 -146 101q-8 87 73 202q82 116 216 203q150 95 318 118q219 29 230 -101 q5 -60 -61 -203l-6.5 -13t-8.5 -17.5t-12.5 -25t-18.5 -35.5q38 48 65.5 79t51.5 57q97 102 176.5 152.5t133.5 50.5q38 0 56.5 -19.5t21.5 -59.5q2 -32 -12 -80.5t-38 -105.5q41 45 88.5 91t94.5 84t89.5 62t74.5 24q38 0 56.5 -19.5t21.5 -59.5q2 -28 -12 -67.5t-37.5 -86 t-54.5 -97.5t-62.5 -101.5t-61.5 -98t-51.5 -87t-33 -68.5t-5.5 -43q2 -6 6 -14t12 -9q43 -2 118 68q30 28 55 55t44 53q8 4 15 4q6 -1 5 -8q-32 -56 -93 -115q-88 -83 -152 -79q-40 19 -54 43.5t-6.5 61.5t33.5 89t66.5 124t92.5 168.5t112 221.5q4 9 2 16.5t-8.5 13 t-16 6.5t-21.5 -3q-22 -8 -59 -34t-84 -67t-101.5 -95.5t-111.5 -120.5q-29 -60 -61.5 -119.5t-63 -111t-55.5 -91.5t-38 -59q-7 -7 -27.5 -10t-41 -2t-35 5.5t-8.5 12.5q3 6 26 39t57 83.5t74.5 113t79 127t70 125.5t47.5 109t12 77.5t-37 30.5q-36 1 -120 -61 q-41 -31 -83.5 -66.5t-78.5 -77.5q-25 -29 -52 -60t-56.5 -66t-61.5 -76.5t-67 -92.5z" unicode="Т" horiz-adv-x="1564" glyph-name="afii10036"/>
<glyph d="M1289 723q-49 -72 -165 -306l-128 -268q-76 -156 -127 -217q-131 -159 -272 -159q-38 0 -62.5 22.5t-24.5 59.5q0 28 16.5 45t40.5 17q21 0 36 -14.5t15 -37.5q0 -20 -14.5 -35t-33.5 -15q-12 0 -14 -4t6 -10.5t32 -6.5q104 0 212 152q38 54 112 197q58 113 115 227 q-91 -112 -157 -181q-181 -190 -279 -190q-72 0 -72 77q0 53 76 177q70 108 141 217q76 121 76 170q0 82 -118 82q-164 0 -319 -83q-131 -71 -221 -179q-83 -100 -83 -170q0 -44 26 -67q23 -20 58 -20q155 0 302 127q74 63 142 150q64 81 76 121q13 17 21 -4 q-13 -44 -67 -122q-70 -100 -158 -169q-158 -126 -305 -126q-127 0 -127 121q0 88 85.5 194t218.5 176q148 78 303 78q217 0 217 -138q0 -71 -78 -202q-31 -52 -146 -217q-78 -113 -78 -139q0 -28 34 -28q82 0 259 189q198 212 263 326l105 185q1 3 38 12q26 7 26 -6 q0 -3 -3 -8z" unicode="У" horiz-adv-x="1080" glyph-name="afii10037"/>
<glyph d="M1052 713q-5 -4 -12 -8t-16 -10q8 -2 8 -6t-4 -7q-28 -26 -48 -50t-34 -50q0 -1 -1 -3.5l-3 -7.5q29 14 59.5 23t51.5 9q51 0 92 -15t69.5 -38.5t43.5 -53.5t15 -60q0 -46 -21 -88.5t-56.5 -76.5t-83 -57t-100.5 -29.5t-108.5 5.5t-106.5 48l-9 -12q-39 -51 -91.5 -92 t-120.5 -73q-134 -63 -268 -63q-121 0 -188.5 45t-67.5 133q0 117 157 192q99 49 193 59q13 38 41.5 72t67 59.5t84.5 41t95.5 17.5t99 -11t95.5 -45q5 8 9 13.5t8 10.5q26 31 50.5 57t50.5 43q-71 -34 -130 -34q-35 0 -87.5 11t-124.5 33q-146 45 -226 45q-59 0 -118 -19.5 t-105.5 -50t-75.5 -69t-29 -76.5q0 -14 1.5 -23t3.5 -16q-2 -5 -6 -5q-10 0 -15.5 16t-5.5 32q0 53 30 97t83.5 75.5t128 49t163.5 17.5q28 0 71.5 -5t92.5 -13t98.5 -16.5t89.5 -16.5t66 -13t28 -5q32 0 57 6.5t46 19.5h3q11 0 11 -7q0 -4 -1 -5zM236 331 q-141 -83 -141 -181q0 -64 54 -98t157 -34q123 0 246 70q96 54 156 135q-27 -12 -53 -19t-44 -7q-51 0 -92 15t-69.5 39t-43.5 54t-15 60v15.5t2 15.5q-39 -10 -78 -26t-79 -39zM647 392q0 -5 -4.5 -6.5t-10.5 -1.5q-39 24 -136 24h-10.5t-10.5 -1v-2q-11 -48 -0.5 -92.5 t42.5 -70t86 -24t131 45.5q8 16 24.5 50t36 74.5t40 81.5t38.5 71q-78 39 -143 42.5t-115 -16.5t-84 -57.5t-49 -80.5q25 -1 54 -4t53.5 -7.5t41 -11t16.5 -14.5zM889 425q-17 -49 -37 -90.5t-42 -75.5q82 -41 147.5 -42t113.5 23t77.5 66.5t40.5 89.5q10 48 0 92.5t-42 70 t-86.5 24t-131.5 -45.5q-7 -20 -17 -47.5t-23 -64.5zM856 505q1 2 1 3.5t2 3.5q-2 2 -3 -7z" unicode="Ф" horiz-adv-x="1193" glyph-name="afii10038"/>
<glyph d="M1356 675q0 -29 -18 -53q-21 -26 -49 -26q-44 0 -44 49q0 25 19 45t43 20q7 0 7 5q0 9 -27 9q-92 0 -219 -133q-116 -122 -197 -282q163 4 190 5.5t61 6.5q30 4 34.5 4t4.5 -10t-39 -24q-42 -14 -84 -14q-33 0 -184 -3q-55 -118 -55 -194q0 -28 17 -45.5t43 -17.5 q69 0 168 66q87 58 125 113q14 2 16 -12q-30 -58 -127 -121q-104 -67 -181 -67q-48 0 -77 30.5t-29 79.5q0 62 24 138q-88 -108 -202 -176q-117 -71 -218 -71q-35 0 -58 20t-23 53q0 29 19.5 48t43.5 19q50 0 50 -45q0 -24 -20 -40.5t-43 -16.5l-12 2q-5 0 -5 -3 q0 -6 12 -13t32 -7q87 0 194 76q100 71 183 182l-126 -2q-20 0 -20 11q0 9 9 16t18 7q13 0 144 3q103 152 103 272q0 149 -200 149q-125 0 -276 -84q-137 -77 -237 -186.5t-100 -184.5q0 -39 23.5 -63.5t61.5 -24.5q129 0 317 153q173 141 217 252q6 2 13.5 -0.5t8.5 -8.5 q-46 -122 -216 -264q-185 -154 -323 -154q-54 0 -88 26q-39 31 -39 91q0 90 90.5 202t227.5 186q154 83 311 83q132 0 201 -52q62 -47 62 -127q0 -45 -12 -93q83 115 181 185q105 76 195 76q38 0 58.5 -18t20.5 -47z" unicode="Х" horiz-adv-x="1154" glyph-name="afii10039"/>
<glyph d="M1140 88q-12 -64 -28 -102t-32.5 -59t-32.5 -28.5t-29 -11.5q-21 -9 -117 6q-32 5 -64.5 7t-60.5 -7q-20 -7 -37.5 -24.5t-31 -38t-22 -41t-10.5 -33.5q-1 -5 -1.5 -15.5t-1.5 -21t-2 -18.5t-2 -8q-5 -2 -7.5 4t-4.5 14q-4 25 0 47t6 30q12 30 29.5 54.5t38 44t43 33.5 t43.5 23q22 8 56 7.5t77 -5.5q42 -10 72 -2.5t50.5 26.5t32.5 47q10 22 16 45q-11 -17 -23 -31q-13 -14 -30 -22.5t-45 -8.5q-76 0 -76 74q0 76 99 271q-37 -48 -66.5 -84.5t-52.5 -62.5q-185 -203 -292 -203q-76 0 -76 79q0 61 79 194q1 2 37 59t109 171q79 124 79 159 q0 15 -10.5 28.5t-29 23.5t-44 15.5t-55.5 5.5q-159 0 -319 -84q-65 -34 -124.5 -79.5t-105 -94t-72.5 -94.5t-27 -81q0 -86 97 -86q36 0 77 9.5t83 26t83 39.5t76 51q33 27 69 65t67.5 77.5t55 75t31.5 58.5q10 33 20 33q6 0 6 -12q0 -22 -20 -62t-53 -86t-75 -92t-85 -81 q-36 -29 -77.5 -52t-84.5 -39t-86 -25t-82 -9q-137 0 -137 120q0 47 26 98.5t71 100.5t107 93t134 77.5t151.5 53t159.5 19.5q219 0 219 -130q0 -61 -79 -195q0 1 -9.5 -14t-25.5 -39.5t-36.5 -56.5t-41.5 -66t-41.5 -67.5t-36.5 -61.5t-26 -48t-10 -26q0 -28 43 -28 q18 0 49 17t68 45.5t75.5 65.5t71.5 77q48 59 104 132t121 163l100 196q3 9 13.5 15t22 10.5t20.5 6.5l9 3q6 -1 6 -7q0 -3 -5 -15q-3 -6 -14 -29t-26 -55t-33 -70t-35 -73t-30.5 -63t-19.5 -42q-69 -146 -102.5 -233t-33.5 -117q0 -7 6.5 -14.5t14.5 -7.5q21 0 37 8t28 20 t21 26.5t16 27.5q8 5 13 5q7 -1 7 -8q-9 -10 -16 -20h2q3 1 5 7z" unicode="Ц" horiz-adv-x="1171" glyph-name="afii10040"/>
<glyph d="M1231 713q2 7 9.5 12t17.5 9l40 14q7 0 7 -7q0 -3 -5 -15q-23 -49 -62 -131.5t-96 -200.5q-136 -288 -136 -350q0 -7 6.5 -14.5t14.5 -7.5q42 0 109 73q53 59 84 112q8 5 13 5q7 -1 7 -8q-26 -59 -77 -119q-74 -86 -141 -86q-76 0 -76 74q0 38 23 105.5t73 165.5l44 87 q-6 -8 -12.5 -15.5t-11.5 -13.5q-93 -102 -165.5 -149.5t-126.5 -47.5q-76 0 -76 79q0 61 79 194q20 31 36.5 59.5t28 52t18 40.5t6.5 26q0 15 -10.5 28.5t-29 23.5t-44 15.5t-55.5 5.5q-159 0 -319 -84q-139 -70 -237 -179q-92 -103 -92 -170q0 -86 97 -86q70 0 156 33 q89 34 163 93q76 61 147 153q61 78 76 123q10 33 20 33q6 0 6 -12q0 -8 -5 -25q-13 -45 -66 -122q-71 -101 -162 -174q-38 -31 -80.5 -54.5t-90.5 -40.5q-86 -30 -159 -30q-137 0 -137 120q0 89 91 192q92 106 233 174q156 76 325 76q219 0 219 -130q0 -30 -22 -87.5 t-68 -127.5q-80 -122 -80 -148q0 -28 43 -28q37 0 116 61q40 31 76.5 63t71.5 72q31 35 57 69t51 69z" unicode="Ч" horiz-adv-x="1227" glyph-name="afii10041"/>
<glyph d="M1146 391q-1 -1 -15 -24.5t-35 -59t-45 -78t-44.5 -81t-34.5 -67t-14 -37.5q0 -28 43 -28q18 0 49 17t68 45.5t75.5 65.5t71.5 77q48 59 100 124t127 169l100 196q3 9 13 15t21 10.5t20 6.5t10 3q7 0 7 -7q0 -3 -5 -15q-3 -6 -14 -29t-26 -55t-33 -70t-35 -73t-30.5 -63 t-19.5 -42q-69 -146 -102.5 -233t-33.5 -117q0 -7 6.5 -14.5t14.5 -7.5q17 0 42.5 17t53 43.5t53.5 59.5t44 65q8 5 13 5q7 -1 7 -8q-17 -38 -43 -74.5t-56 -65.5t-61 -47t-58 -18q-76 0 -76 74q0 78 99 273q-37 -48 -67.5 -84.5t-53.5 -62.5q-185 -203 -292 -203 q-76 0 -76 79q0 15 14.5 46.5t35.5 70.5t45 79.5t43 72.5q-9 -9 -28 -30t-39 -44.5t-36.5 -43.5t-22.5 -26q-185 -203 -292 -203q-76 0 -76 79q0 61 79 194q1 2 37 59t109 171q79 124 79 159q0 15 -10.5 28.5t-29 23.5t-44 15.5t-55.5 5.5q-159 0 -319 -84 q-65 -33 -124.5 -79t-105 -94t-72.5 -94.5t-27 -81.5q0 -86 97 -86q36 0 77 9.5t83 26t83 39.5t76 51q33 27 69 65t67.5 77.5t55 75t31.5 58.5q10 33 20 33q6 0 6 -12q0 -22 -20 -62t-53 -86t-75 -92t-85 -81q-36 -29 -77.5 -52t-84.5 -39t-86 -25t-82 -9q-137 0 -137 120 q0 44 24.5 94t68 99t103 94t128.5 79q156 76 325 76q219 0 219 -130q0 -61 -79 -195q0 1 -9.5 -14t-25.5 -39.5t-36.5 -56.5t-41.5 -66t-41.5 -67.5t-36.5 -61.5t-26 -48t-10 -26q0 -28 43 -28q18 0 49 17t68 45.5t75.5 65.5t71.5 77q20 24 52.5 59t76.5 91t99 138t120 200 q3 9 13 15t21 10.5t20 6.5t10 3q7 0 7 -7q0 -3 -5 -15q-3 -6 -13.5 -26t-25.5 -49t-33.5 -64l-37 -70t-36.5 -67.5t-31 -55.5z" unicode="Ш" horiz-adv-x="1605" glyph-name="afii10042"/>
<glyph d="M1146 391q-1 -1 -15 -24.5t-35 -59t-45 -78t-44.5 -81t-34.5 -67t-14 -37.5q0 -28 43 -28q18 0 49 17t68 45.5t75.5 65.5t71.5 77q48 59 105 131t122 162l100 196q3 9 13 15t21 10.5t20 6.5t10 3q7 0 7 -7q0 -3 -5 -15q-3 -6 -14 -29t-26 -55t-33 -70t-35 -73t-30.5 -63 t-19.5 -42q-69 -146 -102.5 -233t-33.5 -117q0 -7 6.5 -15.5t14.5 -6.5q42 6 65 30q10 10 19 23q1 5 3 5q11 17 21 39q8 5 13 5q7 -1 7 -8q-13 -17 -24 -38q-4 -9 -10 -18q-12 -45 -25 -74q-17 -38 -34 -58t-33.5 -27.5t-29.5 -10.5q-23 -8 -117 11q-32 6 -64 9t-61 -5 q-20 -6 -38 -22.5t-32.5 -36.5t-23.5 -40.5t-12 -33.5q-1 -5 -2 -15l-2 -21q-1 -11 -2.5 -19t-2.5 -8q-5 -1 -7 5t-4 14q-3 25 1.5 47t6.5 30q26 58 71 95t89 54q22 7 56 5.5t77 -8.5q41 -12 71.5 -5.5t52 25t34.5 45.5l5 11q-10 -9 -22 -16q-20 -12 -51 -12q-76 0 -76 74 q0 78 99 273q-37 -48 -67.5 -84.5t-53.5 -62.5q-185 -203 -292 -203q-76 0 -76 79q0 15 14.5 46.5t35.5 70.5t45 79.5t43 72.5q-9 -9 -28 -30t-39 -44.5t-36.5 -43.5t-22.5 -26q-185 -203 -292 -203q-76 0 -76 79q0 61 79 194q1 2 37 59t109 171q79 124 79 159 q0 15 -10.5 28.5t-29 23.5t-44 15.5t-55.5 5.5q-159 0 -319 -84q-65 -33 -124.5 -79t-105 -94t-72.5 -94.5t-27 -81.5q0 -86 97 -86q36 0 77 9.5t83 26t83 39.5t76 51q33 27 69 65t67.5 77.5t55 75t31.5 58.5q10 33 20 33q6 0 6 -12q0 -22 -20 -62t-53 -86t-75 -92t-85 -81 q-36 -29 -77.5 -52t-84.5 -39t-86 -25t-82 -9q-137 0 -137 120q0 44 24.5 94t68 99t103 94t128.5 79q156 76 325 76q219 0 219 -130q0 -61 -79 -195q0 1 -9.5 -14t-25.5 -39.5t-36.5 -56.5t-41.5 -66t-41.5 -67.5t-36.5 -61.5t-26 -48t-10 -26q0 -28 43 -28q18 0 49 17 t68 45.5t75.5 65.5t71.5 77q20 24 52.5 59t76.5 91t99 138t120 200q3 9 13 15t21 10.5t20 6.5t10 3q7 0 7 -7q0 -3 -5 -15q-3 -6 -13.5 -26t-25.5 -49t-34 -64l-37 -70q-18 -35 -36 -67.5t-31 -55.5z" unicode="Щ" horiz-adv-x="1513" glyph-name="afii10043"/>
<glyph d="M63 0v935h375v-935h-375zM125 63h250v810h-250v-810z" unicode="Ъ" horiz-adv-x="500" glyph-name="afii10044"/>
<glyph d="M63 0v935h375v-935h-375zM125 63h250v810h-250v-810z" unicode="Ы" horiz-adv-x="500" glyph-name="afii10045"/>
<glyph d="M63 0v935h375v-935h-375zM125 63h250v810h-250v-810z" unicode="Ь" horiz-adv-x="500" glyph-name="afii10046"/>
<glyph d="M854 372q28 46 43 86.5t19.5 73.5t4 56t-3 35t-2.5 10q0 23 -13.5 42t-35.5 32.5t-50 21t-58 7.5t-57 -4t-54 -11.5t-56 -18.5t-62 -24q-118 -47 -208 -117q-16 0 -16 8q0 3 1 5q37 34 88 61.5t111 59.5q54 29 113.5 45.5t117 17.5t108.5 -12.5t88 -43.5t56.5 -77 t12.5 -112q-8 -70 -50 -145l-1 -2q11 1 21 2q43 5 72 20h4q7 0 12.5 -0.5t5 -4t-18.5 -12.5q-20 -26 -58 -35q-27 -6 -60 -6q-35 -55 -85 -106q-49 -50 -108.5 -94t-126.5 -76.5t-139.5 -51.5t-145.5 -19q-87 0 -145 23.5t-89 62t-37 86t9.5 95t51.5 90.5t89 72.5 t121.5 39.5t149.5 -8q35 -8 82.5 -19.5t101 -23t109.5 -21.5q45 -7 86 -11q1 2 2 3zM781 278q28 30 49 60q-16 2 -33 6q-55 11 -110.5 25t-106 27.5t-89.5 21.5q-68 14 -128 3.5t-109 -38t-84 -66.5t-53.5 -82t-18 -85t24 -74.5t71.5 -52t125 -17.5q69 2 131 23.5t119 57.5 t109.5 85t102.5 106zM1046 390q-2 -1 -3 -2q2 1 3 2z" unicode="Э" horiz-adv-x="1021" glyph-name="afii10047"/>
<glyph d="M682 337q-15 0 -15 11q0 13 17 18.5t46 7.5q22 1 52 1q10 23 23 50q49 108 82 147q49 60 100 98q-69 -33 -128 -33q-66 0 -208 43.5t-223 43.5q-126 0 -228 -74q-94 -68 -94 -137q0 -26 5 -38q-5 -10 -17 3q-10 17 -10 39q0 98 101 163q111 71 297 71q102 0 259 -33.5 t180 -33.5q61 0 101 25q8 1 12 -2.5t1 -9.5q-10 -7 -28 -17q6 -1 8 -4q2 -4 -4 -9q-54 -49 -80 -98q-2 -4 -56 -153q-8 -21 -16 -41h24q44 0 92 2q21 42 51 83q92 128 247 216q151 86 288 95q18 1 42.5 1.5t47 -1t38.5 -5.5t16 -11q1 -5 -2.5 -7.5t-7.5 -3.5q-23 7 -55.5 8 t-77.5 -2q-121 -7 -264 -107q-137 -97 -226 -231q-9 -14 -17 -27q8 1 16 3q11 2 16 3t8 1q5 0 5 -10q0 -6 -9 -12.5t-23 -12.5t-30 -10q-2 0 -4 -1q-54 -108 -47 -205q7 -105 105 -129q-4 16 -6.5 33t-4.5 37q-9 141 61 289q72 151 193 249q130 107 268 116q42 3 77 -6 t61 -27.5t41.5 -45.5t17.5 -60q11 -147 -90 -290q-90 -132 -241 -222q-151 -89 -292 -98q-13 -1 -25.5 -1.5t-25.5 1.5q15 -33 44 -62q2 -12 -14 -14q-8 0 -17 9t-17 21.5t-14 26t-9 22.5q-155 25 -167 186q-6 84 28 167q-35 -1 -91 -2l-25 -1q-32 -70 -69 -119 q-75 -98 -208 -160.5t-263 -62.5q-124 0 -191 49q-61 46 -61 125q0 114 154 188q125 60 242 60q127 0 188 -33q3 -5 -1.5 -9t-12.5 -3q-39 24 -134 24q-126 0 -255 -75q-139 -80 -139 -177q0 -65 60 -99q54 -30 148 -30q122 0 241 68q115 66 175 164q17 28 46 89zM1762 607 q-5 57 -48.5 85t-108.5 23q-123 -8 -247 -122q-114 -105 -186 -256q-72 -150 -63 -272q2 -33 10 -57q8 -1 16 -1.5t16 0.5q124 9 273 102q147 92 243 226q104 145 95 272z" unicode="Ю" horiz-adv-x="1710" glyph-name="afii10048"/>
<glyph d="M1231 632q2 2 9.5 5t17 5.5t20 4t19.5 1.5t9 -5q0 -7 -4 -11q-20 -31 -36.5 -54t-33.5 -48.5t-36.5 -59t-46.5 -85.5l-23 -46q12 -2 25 -5q33 -7 58 -20t39 -29.5t13 -34.5t-14 -27t-31 -14q-4 -1 -7.5 0.5t-3.5 3.5q22 16 19 35t-20.5 35t-44.5 26q-22 8 -44 8 q-9 -22 -19 -43q-26 -57 -46 -107t-32.5 -87t-12.5 -50q0 -27 25 -27q21 0 55 18t68.5 44.5t64 56t42.5 53.5q1 1 7 1q9 0 12 -11q-16 -27 -47.5 -59t-68 -59.5t-72.5 -46t-61 -18.5q-90 0 -90 95q0 22 5.5 43t18.5 49t34 68q17 33 42 81q-7 0 -13 1q-46 7 -99.5 -16 t-112 -61.5t-121.5 -86t-128.5 -88.5t-133 -68.5t-134.5 -27.5q-123 0 -200 53q-81 55 -81 154q0 138 163 235q156 93 357 93q89 0 166 -20q58 -17 78 -34q1 -3 -7 -6t-17 -1q-71 38 -208 38q-173 0 -330 -105q-158 -104 -158 -219q0 -50 24 -84.5t65 -54.5t96 -25t117 4 q61 13 118.5 43.5t112 68.5t107 78.5t104.5 74.5t104 55q42 18 84 21q-35 13 -65 34q-40 27 -64.5 67t-20.5 92q4 62 42 110t94.5 79.5t123 45t126.5 7.5q16 0 38 -2.5t46 -6.5t48 -9.5t44 -11.5q28 -10 60 -19.5t66.5 -15.5t71 -7.5t74.5 5.5q9 1 22 4l26 7q13 4 23.5 6.5 t12.5 1.5q3 -3 1 -6q-4 -7 -17 -12.5t-31 -10t-40 -8.5t-43 -7q-62 -11 -111.5 -5.5t-93 18.5t-85.5 29t-90 27q-21 3 -42 3q-53 0 -103 -21t-89 -57t-62.5 -85t-23.5 -105q0 -38 11.5 -64.5t32 -44t47.5 -26.5q15 -5 32 -8q14 26 34 60q24 39 49.5 80t50.5 80t43 68z" unicode="Я" horiz-adv-x="1284" glyph-name="afii10049"/>
<glyph d="M332 298q0 -3 -6 -12q-2 -3 -53 -120q-45 -103 -45 -125q0 -15 12 -15q23 0 76 62q4 1 8.5 -3t3.5 -9q-54 -77 -112 -77q-47 0 -47 47q0 16 16 59q-82 -104 -131 -104q-51 0 -51 63q0 88 87 168q84 77 173 77q45 0 65 -6q4 -2 4 -5zM247 265q0 18 -14 18 q-41 0 -110.5 -96t-69.5 -143q0 -18 16 -18q26 0 105 99q36 46 54.5 83t18.5 57z" unicode="а" horiz-adv-x="352" glyph-name="afii10065"/>
<glyph d="M234 302h1q-17 49 -13 88t22.5 68.5t48.5 51t66 37t75.5 24.5t76.5 14q52 7 80.5 13t33.5 10q25 14 34 60q7 9 11 9q4 -4 4 -13q0 -22 -7.5 -40t-19 -33t-26 -26t-27.5 -20q-16 -10 -51.5 -15.5t-76.5 -10t-79 -9t-58 -13.5q-46 -19 -64.5 -48t-20.5 -59.5t6.5 -59.5 t17.5 -49q3 -4 5 -8.5t4 -9.5l4 -8h-2q4 -13 4 -30q0 -38 -18.5 -78t-47 -73t-61.5 -54t-62 -21q-77 0 -77 77q0 40 13.5 77t37.5 65.5t58 45.5t75 17q14 0 14 -6q0 -10 -14 -10q-27 0 -51 -22.5t-43 -55.5t-30 -71t-11 -69q0 -32 30 -32q19 0 39.5 16.5t39.5 43t35 58.5 t25 64t9.5 60t-10.5 45z" unicode="б" horiz-adv-x="287" glyph-name="afii10066"/>
<glyph d="M364 561q0 -22 -18 -60q-22 -46 -60 -89q-48 -53 -131 -107l-26 -60q60 64 103 64q56 0 56 -60q0 -77 -67 -162q-70 -88 -139 -88q-33 0 -51 17t-18 42q0 64 55 197t123 230q78 112 133 112q40 0 40 -36zM326 557q0 16 -13 16q-16 0 -45.5 -41t-57.5 -103 q-15 -31 -37 -81q56 33 96 89q57 79 57 120zM228 260q0 20 -16 20q-15 0 -49 -32q-37 -35 -64 -79q-38 -100 -38 -124q0 -26 24 -26q40 0 92 92q51 89 51 149z" unicode="в" horiz-adv-x="299" glyph-name="afii10067"/>
<glyph d="M76 172q14 20 31 41.5t28 39.5t11 30t-20 12q-19 0 -42 -17t-43 -49q-8 -2 -10 -2q-7 0 -9 8q22 34 52 56.5t56 24.5q45 4 58.5 -11t7.5 -40.5t-26.5 -58.5t-42.5 -66t-40.5 -62t-20.5 -47q-1 -7 4.5 -10t10.5 -3q6 0 18.5 7t26 17.5t26.5 22.5t21 21h1q4 0 7.5 -3 t3.5 -8q-11 -15 -26 -29.5t-31 -26t-31.5 -17.5t-27.5 -3q-36 7 -46.5 25t-4.5 42t23 51.5t35 54.5z" unicode="г" horiz-adv-x="210" glyph-name="afii10068"/>
<glyph d="M325 298q-1 -3 -5 -12q-28 -68 -90 -224q27 20 37 33q12 0 17 -13q-17 -20 -67 -53l-7 -20q-30 -80 -91 -150q-70 -81 -130 -81q-42 0 -42 42q0 24 28 59.5t70 64.5q28 20 104 66q13 36 35 95q-82 -104 -130 -104q-52 0 -52 63q0 88 87 168q85 77 173 77q39 0 60 -6 q4 -2 3 -5zM246 265q0 18 -14 18q-40 0 -109.5 -96t-69.5 -143q0 -18 16 -18q26 0 105 99q35 46 53.5 83t18.5 57zM137 -21q-49 -30 -63 -41q-32 -27 -56 -59q-28 -37 -28 -59q0 -18 16 -18q26 0 62 47.5t61 108.5z" unicode="д" horiz-adv-x="321" glyph-name="afii10069"/>
<glyph d="M258 265q0 -65 -75 -117q-60 -40 -110 -45q-12 -32 -12 -49q0 -35 37 -35q30 0 68 27q30 22 46 44q13 7 16 -9q-17 -24 -47 -47q-47 -34 -92 -34q-77 0 -77 76q0 77 67 155.5t126 78.5q53 0 53 -45zM217 271q0 19 -14 19q-21 0 -60 -56q-36 -50 -62 -109q45 2 90.5 52 t45.5 94z" unicode="е" horiz-adv-x="267" glyph-name="afii10070"/>
<glyph d="M253 40q0 58 65 188l-3 4q-2 -2 -11.5 -13.5t-23 -27.5t-29 -33.5t-30.5 -33.5q-9 -9 -16 -17q-10 -15 -22 -29q-27 -34 -60.5 -56.5t-63.5 -22.5q-50 0 -50 54q0 25 14.5 38.5t30.5 13.5q30 0 30 -29q0 -7 -5 -14t-10.5 -13t-10.5 -10.5t-5 -7.5q0 -10 10 -10 q17 0 39 30t42 70.5t33.5 81t13.5 61.5q0 22 -19 22q-11 0 -26 -8t-30.5 -20t-28.5 -25.5t-20 -24.5q-1 -1 -3 -1q-5 0 -9 4.5t-4 10.5q12 17 28 33t33.5 28t35.5 19.5t34 7.5q65 0 65 -83q0 -29 -13 -62q20 24 48 56q35 40 60 59.5t37 19.5q14 0 14.5 -3t0.5 -8 q0 3 -11 -22q-22 -51 -37 -85.5t-24.5 -57.5t-13.5 -36t-4 -22l-4 -17q3 3 14 15.5t26 29.5t32 36q13 15 26 29q18 39 45.5 73t61 56.5t63.5 22.5q50 0 50 -54q0 -25 -14.5 -38.5t-30.5 -13.5q-30 0 -30 29q0 7 5 14t10.5 13t10.5 10.5t5 7.5q0 10 -10 10q-17 0 -39 -30 t-42 -70.5t-33.5 -81t-13.5 -61.5q0 -22 19 -22q10 0 25.5 8t31 20t28.5 25.5t20 24.5l3 1q5 0 9 -4.5t4 -10.5q-12 -17 -28 -33t-33.5 -28t-35.5 -19.5t-34 -7.5q-65 0 -65 83q0 14 3 30q-11 -13 -24 -28q-36 -42 -58 -63t-35 -22q-5 0 -10 3.5t-5 15.5q0 4 0.5 10t1.5 11z " unicode="ж" horiz-adv-x="621" glyph-name="afii10072"/>
<glyph d="M-86 -212q-25 3 -40.5 13t-23.5 22.5t-9 26t4 23.5q7 16 23 22t31 3.5t24 -12.5t3 -26q-7 -14 -24 -19t-31 2l-7 4q-4 2 -4 0q-1 -2 2 -9.5t10.5 -15.5t19 -14t27.5 -6q41 -1 78.5 30.5t66 74.5t45 86t15.5 66q1 20 -3 35q-10 -11 -22 -19q-17 -12 -33 -13 q-17 -1 -29 6.5t-11 19.5q1 23 12.5 36.5t28 18t36.5 1.5q15 -2 28 -7q10 13 20 28l53 69q-29 16 -50 30t-48 14q-22 0 -37 -14.5t-15 -32.5q0 -14 4 -21q-1 -1 -4 -3t-7 -2q-8 0 -10 9t-2 17q0 14 8.5 29t23 27.5t32.5 20.5t37 8q14 0 29.5 -7.5t29 -16t23 -16t12.5 -7.5 q46 37 75 37q21 0 21 -13q0 -12 -9 -23.5t-22.5 -21t-29 -15.5t-28.5 -6q-5 0 -5 -1.5t-5 -0.5t-14 -10.5t-21 -29.5t-28 -39q-7 -10 -15 -20q11 -7 20 -18q12 -14 14 -33q3 -27 -8 -60t-31.5 -66.5t-48 -64.5t-58.5 -53.5t-63 -35t-60 -7.5zM101 102l11 11l-1 2 q-15 17 -35 17q-9 0 -17 -8t-12 -17.5t-1.5 -18.5t15.5 -10q7 -1 17.5 5.5t22.5 18.5z" unicode="з" horiz-adv-x="282" glyph-name="afii10073"/>
<glyph d="M336 296q-111 -210 -111 -258q0 -16 10 -16q15 0 42.5 29.5t35.5 48.5q15 6 20 -4q-11 -25 -41 -56q-39 -41 -76 -41q-15 0 -27 12q-15 13 -15 35t17 68q-88 -114 -133 -114t-45 44q0 25 41 113q25 55 51 109q4 11 -8 11q-22 0 -22 15t18 14q42 -3 81 4q8 2 12 -3 q4 -4 0 -12q-30 -60 -60 -121q-56 -115 -56 -132q0 -9 10 -9q25 0 147 165q22 45 46 93q8 17 18 17q4 0 16.5 1t16.5 1q19 0 12 -14z" unicode="и" horiz-adv-x="360" glyph-name="afii10074"/>
<glyph d="M336 296q-111 -210 -111 -258q0 -16 10 -16q15 0 42.5 29.5t35.5 48.5q15 6 20 -4q-11 -25 -41 -56q-39 -41 -76 -41q-15 0 -27 12q-15 13 -15 35t17 68q-88 -114 -133 -114t-45 44q0 25 41 113q25 55 51 109q4 11 -8 11q-22 0 -22 15t18 14q42 -3 81 4q8 2 12 -3 q4 -4 0 -12q-30 -60 -60 -121q-56 -115 -56 -132q0 -9 10 -9q25 0 147 165q22 45 46 93q8 17 18 17q4 0 16.5 1t16.5 1q19 0 12 -14zM219 481q4 -2 11 -12.5t20 -28.5q15 -19 34 -19q30 0 60 48q18 3 21 -11q-8 -11 -17.5 -22.5t-23.5 -22.5q-32 -28 -69 -28 q-29 0 -46.5 11.5t-22.5 27t3 32t30 25.5z" unicode="й" horiz-adv-x="360" glyph-name="afii10075"/>
<glyph d="M376 540q0 -60 -86 -155q-75 -84 -140 -118q-19 -48 -41 -101q42 51 65 72q74 68 120 68q45 0 45 -41q0 -44 -62 -91t-128 -59q57 -81 90 -84q37 -4 61 22q2 3 5 3q12 0 12 -11q0 -3 -3 -6q-47 -39 -100 -39q-37 0 -74 37q-7 7 -55 68q-27 -67 -30 -77q-4 -13 -56 -28 q-6 -2 -8 2q-3 5 1 15l156 376q31 73 84 131q58 62 105 62q39 0 39 -46zM337 545q0 16 -12 16q-25 0 -67 -68q-32 -49 -92 -189q48 28 107 107q64 86 64 134zM280 274q0 9 -11 9q-25 0 -92 -72q-64 -67 -64 -75q0 -6 17 -6q39 0 94.5 53t55.5 91z" unicode="к" horiz-adv-x="349" glyph-name="afii10076"/>
<glyph d="M330 311q15 0 29 -0.5t28 -0.5q11 0 11 -10q0 -4 -1 -6q-23 -45 -44 -89t-37.5 -80t-26 -59.5t-9.5 -28.5q0 -13 11 -13q6 0 17 6t23 15.5t23.5 20.5t19.5 20h1q4 0 7.5 -3t3.5 -8q-11 -15 -25 -29t-29 -24.5t-30.5 -16.5t-27.5 -6q-50 0 -50 48q0 7 7.5 28.5t20 53.5 t30.5 73t39 87q-24 -2 -43 -24t-37 -53.5t-36 -68t-39.5 -68t-47.5 -53t-59 -22.5q-25 0 -42 19t-17 46q0 25 14.5 38.5t30.5 13.5q30 0 30 -29q0 -11 -7.5 -19.5t-15 -16.5t-10 -15t8.5 -14q29 -5 53 14.5t45.5 51.5t41 70.5t41 72t45 56t52.5 22.5q1 0 1 1z" unicode="л" horiz-adv-x="401" glyph-name="afii10077"/>
<glyph d="M363 260q0 -29 -17 -75t-49 -112l3 -4q6 6 19.5 23t31 39.5t37 48.5t37 49.5t32 42t21.5 26.5q2 2 9.5 4.5t16.5 4.5t17 3.5t11 1.5q8 0 8 -7q0 -4 -5.5 -16.5t-14 -32t-19.5 -43.5t-22 -50q-46 -108 -46 -125q0 -15 12 -15q14 0 37 12q2 0 3.5 -5t1.5 -10 q0 -7 -11 -12.5t-25 -9t-26.5 -5t-15.5 -1.5q-37 0 -37 38q0 12 5 27l63 149l-5 -2q-32 -40 -60 -77t-51 -65.5t-41.5 -45.5t-30.5 -17q-29 0 -29 11q0 -1 -2.5 2.5t2.5 15.5q19 45 40.5 89.5t37.5 81.5t24 62t1 31q-23 0 -41.5 -21t-36 -52.5t-35.5 -69t-39.5 -70 t-48.5 -55t-62 -24.5q-25 0 -42 19t-17 46q0 25 14.5 38.5t30.5 13.5q30 0 30 -29q0 -11 -7.5 -19.5t-15 -16.5t-10 -15.5t8.5 -14.5q32 -5 57.5 18t47 59t41.5 77.5t42 74.5t47.5 49.5t59.5 3.5q9 -10 11 -20t2 -24z" unicode="м" horiz-adv-x="544" glyph-name="afii10078"/>
<glyph d="M262 295q11 7 25 10t25 3t11 -11q-1 0 -9.5 -17.5t-21.5 -44.5t-27.5 -59t-27 -61t-20.5 -50.5t-8 -27.5q0 -15 18 -15q36 0 73 64q8 2 11 2q8 0 8 -8q-18 -34 -48 -57.5t-55 -23.5q-29 0 -40 11t-11 34q0 22 10 55q7 24 16 49h-2q-20 0 -43 -1q-17 0 -32 -1l-4 -8 l-53 -120q-8 -11 -20 -13.5t-26 -2.5q-12 0 -12 12q0 3 55 119q48 103 48 122t-14 19q-3 0 -39 -11q-8 3 -8 10q0 9 10.5 15t24.5 10.5t28 6.5t20 2q14 0 25.5 -9.5t11.5 -26.5q0 -27 -38 -107h28q19 -1 46 -1l2 4q15 36 32 70t31 58z" unicode="н" horiz-adv-x="347" glyph-name="afii10079"/>
<glyph d="M298 141q-17 -17 -38 -17q-3 0 -9 1q-29 -53 -74 -89.5t-83 -36.5q-77 0 -77 77q0 83 66 159.5t148 76.5q14 0 14 -6q0 -10 -14 -10q-56 0 -113 -98q-52 -90 -52 -151q0 -32 30 -32q27 0 62.5 37t60.5 87q-32 24 -32 67q0 38 17 59q15 18 33 18q43 0 43 -57 q0 -40 -21 -84q7 -1 8 -1q12 0 25 11q10 -2 6 -11zM247 231q0 34 -14 34q-18 0 -18 -56q0 -36 13 -52q19 44 19 74z" unicode="о" glyph-name="afii10080"/>
<glyph d="M323 297q0 3 -14 -25q-21 -42 -56 -121q-44 -99 -44 -114t18 -15q36 0 73 64q19 6 19 -6q-14 -25 -37 -48q-35 -33 -66 -33q-57 0 -57 45q0 32 31 104q22 50 39 79l-4 5q-24 -14 -97 -107q-47 -61 -76 -102q-14 -21 -41 -21q-12 0 -12 12q0 2 55 119q48 103 48 122 t-14 19q-5 0 -39 -11q-11 4 -7 16q38 28 82 28q14 0 25.5 -9.5t11.5 -26.5q0 -31 -51 -133l4 -2q29 40 80 92.5t73 66t45 13.5q11 0 11 -11z" unicode="п" horiz-adv-x="347" glyph-name="afii10081"/>
<glyph d="M303 259q0 -69 -62 -161q-67 -99 -131 -99q-34 0 -56 18q-42 -91 -107 -220q-3 -6 -15 -12.5t-22 -6.5q-16 0 -16 12q0 4 2 10l193 444q3 7 3 13q0 16 -12 16q-4 0 -24 -17q-15 -6 -19 11q29 42 74 42q35 0 35 -42q0 -36 -19 -74q75 116 125 116q51 0 51 -50zM247 267 q0 17 -9 17q-15 0 -67 -69q-46 -62 -85 -127q-12 -28 -24 -55q14 -13 32 -13q48 0 103 100q50 91 50 147z" unicode="р" glyph-name="afii10082"/>
<glyph d="M253 256q0 -25 -14.5 -38.5t-30.5 -13.5q-30 0 -30 29q0 14 15.5 26.5t15.5 18.5q0 10 -10 10q-34 0 -83 -102q-45 -96 -45 -141q0 -22 19 -22q25 0 62 32q31 26 43 46q5 2 10.5 -2.5t5.5 -11.5q-18 -25 -47 -50q-44 -38 -84 -38q-65 0 -65 83q0 72 63.5 150t124.5 78 q50 0 50 -54z" unicode="с" horiz-adv-x="262" glyph-name="afii10083"/>
<glyph d="M458 297q0 3 -14 -25q-21 -42 -56 -121q-44 -99 -44 -114t18 -15q36 0 73 64q18 6 19 -6q-14 -25 -38 -48q-34 -33 -65 -33q-57 0 -57 45q0 32 31 104q21 50 38 79l-3 5q-25 -14 -97 -107q-37 -49 -69 -107q-6 -13 -48 -18q-14 -2 -14 5q0 5 46 101q50 103 56 119l-4 5 q-24 -13 -97 -107q-47 -60 -76 -101q-3 -6 -18 -13.5t-27 -7.5t-12 12q0 7 55 118q49 100 49 125q0 19 -14 19q-2 0 -35 -11q-4 0 -6.5 6.5t-0.5 9.5q36 27 79 27q40 0 40 -35q0 -32 -52 -136l4 -1q29 40 80 92t73 65.5t49 13.5q14 0 14 -8q0 1 -14 -27l-57 -115 q86 107 138 138q22 14 44 14q12 0 12 -11z" unicode="т" horiz-adv-x="482" glyph-name="afii10084"/>
<glyph d="M307 291q-5 -11 -85 -230q28 20 38 34q12 0 17 -13q-17 -20 -67 -53l-7 -20q-30 -80 -91 -151q-70 -80 -130 -80q-42 0 -42 42q0 24 28 59.5t70 64.5q28 19 104 66l31 77q-21 -27 -55 -54q-42 -34 -65 -34q-20 0 -33.5 14t-13.5 34q0 29 48 114q52 92 52 106q0 16 -13 16 q-11 0 -40 -16q-11 3 -14 14q22 28 74 28q47 0 47 -41q0 -22 -54.5 -123t-54.5 -112t10 -11q30 0 87 65q49 58 65 95l41 100q9 19 18 21q14 3 20 3q17 0 17 -9q0 -2 -2 -6zM130 -21q-49 -30 -63 -41q-32 -27 -56 -59q-28 -37 -28 -59q0 -18 16 -18q26 0 62 47.5t61 108.5z " unicode="у" horiz-adv-x="320" glyph-name="afii10085"/>
<glyph d="M200 13q-21 -46 -46.5 -100.5t-57.5 -119.5q-3 -6 -15 -12.5t-22 -6.5q-16 0 -16 12q0 2 2 10l93 217q-25 -12 -47 -12q-77 0 -77 77q0 82 66 159t148 77q10 -3 19 -9q7 -4 12 -12l46 108q3 7 3 13q0 16 -12 16q-4 0 -24 -17q-6 -2 -7 -2q-9 0 -12 13q28 42 74 42 q35 0 35 -42q0 -6 -8.5 -32t-23.5 -64q-4 -13 -10 -26q26 14 50 14q77 0 77 -77q0 -83 -66 -159q-66 -77 -148 -77q-10 3 -19 8q-6 4 -10 9q-2 -4 -4 -7zM228 298q-56 0 -113 -98q-52 -89 -52 -151q0 -32 30 -32q28 0 62 37v-1l95 220q-5 20 -22 25zM298 245 q-17 -45 -35 -89t-35 -82q-9 -21 -16 -37q2 -5 5 -9q6 -6 16 -9q56 0 113 98q52 89 52 151q0 32 -30 32q-28 0 -62 -37h-1q-3 -9 -7 -18z" unicode="ф" horiz-adv-x="458" glyph-name="afii10086"/>
<glyph d="M383 278q0 -15 -12 -30t-26 -15q-24 0 -24 24q0 20 18 29q8 5 -3 5q-16 0 -43.5 -36.5t-51.5 -85.5h61q11 0 11 -9q0 -15 -18 -15h-64q-25 -58 -25 -95q0 -34 26 -34q37 0 99 66q12 1 12 -10q-16 -21 -46 -42q-42 -31 -78 -31q-27 0 -44.5 16.5t-17.5 43.5q0 11 3 25 q-74 -84 -139 -84q-42 0 -42 42q0 20 12.5 35t27.5 15q31 0 31 -28q0 -13 -15 -26t-15 -16q0 -6 8 -6q51 0 124 129h-54q-11 0 -11 9q0 15 19 15h59q34 66 34 95q0 24 -23 24q-27 0 -66 -24q-30 -17 -48 -35q-14 -2 -15 12q11 17 52 41q48 27 85 27q25 0 42 -15.5t17 -39.5 q0 -7 -1 -13q58 68 108 68q33 0 33 -31z" unicode="х" horiz-adv-x="375" glyph-name="afii10087"/>
<glyph d="M321 82v-2l1 -1l-3 -5q-11 -57 -24 -90q-14 -36 -27.5 -56t-25.5 -27t-21 -10q-13 -7 -74 16q-19 7 -31 11t-30 -3q-18 -5 -30.5 -20.5t-22 -30t-17 -22.5t-14.5 2q0 7 10 24t24 35.5t30.5 35t30.5 23.5q14 5 36 1.5t48 -11.5q26 -12 47 -4.5t36.5 28t26.5 48.5l8 24 q-3 -3 -7 -8q-39 -41 -76 -41q-15 0 -27 12q-15 13 -15 35q0 20 17 68q-89 -114 -133 -114q-45 0 -45 44q0 23 41 113q13 28 25.5 55t25.5 54q5 11 -8 11q-22 0 -22 15t18 14q44 -3 81 4q7 1 12 -3q4 -5 0 -12l-30 -60q-15 -30 -30 -61q-56 -117 -56 -132q0 -9 10 -9 q25 0 147 165l22 46l24 47q8 17 18 17q4 0 16.5 1t16.5 1q20 0 12 -14q-111 -210 -111 -258q0 -16 10 -16q15 0 42 29q7 7 11 11.5t6.5 7.5t4 5.5t3.5 7.5l6 2q1 1 2 0h1q7 0 9 -4z" unicode="ц" horiz-adv-x="360" glyph-name="afii10088"/>
<glyph d="M202 83q-14 -24 -38 -48q-37 -35 -70 -35q-22 0 -37.5 14t-15.5 36q0 26 56 125q46 81 46 90q0 13 -12 13q-14 0 -29 -22q-27 -38 -35 -46q-1 -1 -3 -1q-5 0 -10.5 4.5t-4.5 9.5q28 36 32 46q-15 30 -15 53q0 49 36 49q33 0 33 -35q0 -25 -6 -35l3 -3q32 12 43 12 q25 0 25 -36q0 -22 -18 -57q-1 -3 -37 -68q-19 -33 -37 -65.5t-18 -46.5q0 -15 12 -15q19 0 52 32q22 20 39 43q12 -3 9 -14z" unicode="ч" horiz-adv-x="228" glyph-name="afii10089"/>
<glyph d="M489 296q-111 -210 -111 -258q0 -16 10 -16q15 0 42 29q29 30 36 49q16 6 20 -4q-5 -13 -15.5 -26.5t-25.5 -29.5q-39 -41 -76 -41q-15 0 -27 12q-15 13 -15 35q0 20 17 68q-89 -114 -133 -114q-45 0 -45 44q0 16 18 61q-84 -105 -126 -105q-45 0 -45 44q0 23 41 113 q13 28 25.5 55t25.5 54q5 11 -8 11q-22 0 -22 15t18 14q44 -3 81 4q7 1 12 -3q4 -5 0 -12l-30 -60t-30 -61q-56 -117 -56 -132q0 -9 10 -9q25 0 142 157q9 19 18 37.5t18 38.5q5 11 -8 11q-22 0 -22 15t18 14q44 -3 81 4q7 1 12 -3q4 -5 0 -12l-30 -60t-30 -61 q-56 -117 -56 -132q0 -9 10 -9q25 0 147 165q11 23 22.5 46l23.5 47q8 17 18 17q4 0 16.5 1t16.5 1q20 0 12 -14z" unicode="ш" horiz-adv-x="494" glyph-name="afii10090"/>
<glyph d="M228 198l-37 -84q-4 -4 -7 -8q10 22 23 51q13 28 25.5 55t25.5 54q5 11 -8 11q-22 0 -22 15t18 14q44 -3 81 4q7 1 12 -3q4 -5 0 -12l-30 -60q-15 -30 -30 -61q-56 -117 -56 -132q0 -9 10 -9q25 0 147 165l22 46l24 47q8 17 18 17q4 0 16.5 1t16.5 1q20 0 12 -14 q-111 -210 -111 -258q0 -16 10 -16q15 0 42 29q29 30 36 49q16 6 20 -4q-5 -12 -14 -24q-11 -53 -23 -85q-14 -36 -27.5 -56t-25.5 -27t-21 -10q-13 -7 -74 16q-19 7 -31 11t-30 -3q-18 -5 -30.5 -20.5t-22 -30t-17 -22.5t-14.5 2q0 7 10 24t24 35.5t30.5 35t30.5 23.5 q14 5 36 1.5t48 -11.5q26 -12 47 -4.5t36.5 28t26.5 48.5q4 10 7 20q-4 -3 -7 -7q-39 -41 -76 -41q-15 0 -27 12q-15 13 -15 35q0 20 17 68q-89 -114 -133 -114q-45 0 -45 44q0 15 18 62q-84 -106 -126 -106q-45 0 -45 44q0 23 41 113q13 28 25.5 55t25.5 54q5 11 -8 11 q-22 0 -22 15t18 14q44 -3 81 4q7 1 12 -3q4 -5 0 -12l-30 -60q-15 -30 -30 -61q-56 -117 -56 -132q0 -9 10 -9q26 0 148 165z" unicode="щ" horiz-adv-x="494" glyph-name="afii10091"/>
<glyph d="M115 143q-21 -47 -34 -79t-13 -38q1 -13 11 -13q12 0 26.5 7t28 18.5t25.5 25.5t20 29q-15 8 -26.5 20t-11.5 29q0 26 15.5 42t41.5 16q24 0 34.5 -16t10.5 -39q0 -24 -9 -48q5 -1 8 -1q6 0 11.5 2.5t12.5 6.5q7 0 7 -7q0 -4 -4.5 -7t-10.5 -5.5t-12.5 -4t-10.5 -1.5 q-5 0 -9 1q-12 -19 -29.5 -35t-37.5 -27.5t-41.5 -17.5t-41.5 -4q-26 2 -38 14t-13.5 31t6 43.5t21.5 50.5l59 131q0 13 -12 13q-7 0 -17.5 -10.5t-20.5 -23t-17.5 -23t-8.5 -11.5t-3 -1q-6 0 -10.5 4.5t-4.5 9.5q27 34 32 46q-15 30 -15 53q0 49 36 49q33 0 33 -35 q0 -25 -6 -35l3 -3q31 12 43 12q21 0 24.5 -15.5t-4 -40t-21.5 -54.5t-27 -59zM205 161q-1 26 -17 26q-10 0 -20.5 -13t-10.5 -33q0 -13 10.5 -22.5t20.5 -11.5q10 17 13.5 30t3.5 24z" unicode="ъ" horiz-adv-x="276" glyph-name="afii10092"/>
<glyph d="M353 295q11 7 25 10t25 3t11 -11q-1 0 -9.5 -17.5t-21.5 -44.5t-27.5 -59t-27 -61t-20.5 -50.5t-8 -27.5q0 -15 18 -15q36 0 73 64q8 2 11 2q8 0 8 -8q-18 -34 -48 -57.5t-55 -23.5q-29 0 -40 11t-11 34q0 19 6 43q-14 -7 -26 -7q-5 0 -9 1q-12 -20 -29.5 -35.5 t-38.5 -27t-43 -17t-43 -4.5q-52 -2 -53 46q0 15 20 68.5t60 153.5q1 2 1 5q0 4 -5 5t-10.5 2t-10 3.5t-4.5 9.5q-3 14 12 14h30q15 1 29 3.5t28 3.5q11 0 11 -10q0 -2 1 -3t0 -3q-21 -46 -41.5 -92t-36 -83.5t-24.5 -63t-9 -30.5q0 -13 11 -13q12 0 26.5 7t28 18.5 t25.5 25.5t19 29q-15 8 -26.5 19.5t-13.5 27.5q-1 23 11.5 41t35.5 19q21 3 33.5 -5.5t17.5 -23.5t3.5 -35t-7.5 -39q5 -1 8 -1q6 0 11.5 2.5t12.5 6.5q7 24 18 50t22.5 51t23.5 48t22 41zM205 161q-3 28 -17 26q-9 0 -20.5 -13t-10.5 -33q2 -13 11.5 -22.5t20.5 -11.5 q10 17 13 30t3 24z" unicode="ы" horiz-adv-x="417" glyph-name="afii10093"/>
<glyph d="M79 13q12 0 26.5 7t28 18.5t25.5 25.5t20 29q-14 8 -25.5 19.5t-12.5 27.5q-1 23 12 41t36 19q21 3 33 -5.5t17 -23.5t3.5 -35t-8.5 -39q5 -1 8 -1q6 0 11.5 2.5t12.5 6.5q5 0 6.5 -3.5t-0.5 -7.5q-8 -6 -17 -10t-20 -4q-5 0 -9 1q-12 -20 -30.5 -35.5t-39.5 -27 t-43.5 -17t-42.5 -4.5q-52 -2 -52 46q0 15 21 68.5t63 153.5q1 2 1 2.5t1 2.5q0 4 -5 5t-10.5 2t-10 3.5t-4.5 9.5q-3 14 12 14h30q15 1 29.5 3.5t28.5 3.5q10 0 10 -10q0 -2 1 -3t0 -3q-22 -46 -43 -92t-37.5 -83.5t-26.5 -63t-10 -30.5q1 -13 11 -13zM205 161 q-2 28 -17 26q-9 0 -20.5 -13t-10.5 -33q1 -13 10.5 -22.5t20.5 -11.5q10 17 13.5 30t3.5 24z" unicode="ь" horiz-adv-x="271" glyph-name="afii10094"/>
<glyph d="M9 53q0 25 14.5 38.5t30.5 13.5q30 0 30 -29q0 -7 -5 -14t-10.5 -13t-10.5 -10.5t-5 -7.5q0 -10 10 -10q17 0 39 30t42 70l12 26h-10q-22 0 -42 -0.5t-24 0.5q-2 1 -2.5 8t1.5 9q1 1 7.5 1.5t22 0t42.5 -1.5q5 0 12 -1q8 20 14 39q14 41 14 62q0 22 -19 22q-11 0 -26 -8 t-30.5 -20t-28.5 -25.5t-20 -24.5q-1 -1 -3 -1q-5 0 -9 4.5t-4 10.5q12 17 28 33t33.5 28t35.5 19.5t34 7.5q65 0 65 -83q0 -35 -18 -75t-45.5 -74t-61 -56.5t-63.5 -22.5q-50 0 -50 54z" unicode="э" horiz-adv-x="260" glyph-name="afii10095"/>
<glyph d="M452 140q-17 -17 -38 -17q-3 0 -9 1q-29 -53 -74 -89.5t-83 -36.5q-77 0 -77 77q0 36 13 72q-13 0 -28 -1q-17 0 -32 -1l-4 -8l-53 -120q-8 -11 -20 -13.5t-26 -2.5q-12 0 -12 12q0 3 55 119q48 103 48 122t-14 19q-3 0 -39 -11q-8 3 -8 10q0 9 10.5 15t24.5 10.5t28 6.5 t20 2q14 0 25.5 -9.5t11.5 -26.5q0 -27 -38 -107h28q12 -1 29 -1q16 37 47 72q66 77 148 77q14 0 14 -6q0 -10 -14 -10q-56 0 -113 -98q-52 -90 -52 -151q0 -32 30 -32q27 0 62.5 37t60.5 87q-32 24 -32 67q0 38 17 59q15 18 33 18q43 0 43 -57q0 -40 -21 -84q7 -1 8 -1 q12 0 25 11q10 -2 6 -11zM401 230q0 34 -14 34q-18 0 -18 -56q0 -36 13 -52q19 44 19 74z" unicode="ю" horiz-adv-x="475" glyph-name="afii10096"/>
<glyph d="M176 129q5 4 10 8.5t10 8.5q-20 2 -34.5 18.5t-14.5 38.5q0 20 10.5 40.5t28.5 37t41 26t47 7.5q15 -3 24 -8.5t14 -19.5q3 7 6.5 11.5t6.5 11.5q15 0 29 0.5t28 0.5q11 0 11 -10q0 -4 -1 -6q-23 -45 -44 -89t-37.5 -80t-26 -59.5t-9.5 -28.5q0 -13 11 -13q6 0 17 6.5 t23.5 15.5t24 20t19.5 20q4 0 7.5 -3t3.5 -8q-11 -15 -25 -29t-29 -24.5t-30.5 -16.5t-27.5 -6q-50 0 -50 48q0 8 6 31.5t22 61.5h-7q-28 0 -45.5 -20t-34.5 -44.5t-39.5 -47t-60.5 -28.5q-25 0 -42 19t-17 46q0 25 14.5 38.5t30.5 13.5q30 0 30 -29q0 -8 -5 -16t-11 -15 t-11 -13.5t-5 -12.5q0 -5 4 -9t15 -4q16 0 33.5 15.5t33.5 35t28 37.5t18 23zM302 259q-4 22 -10 31t-18 9q-15 -3 -30 -15t-26 -28.5t-18 -35.5t-7 -37q0 -15 8 -20t18.5 -5.5t21.5 1t17 -1.5q8 20 20.5 49.5t23.5 52.5z" unicode="я" horiz-adv-x="397" glyph-name="afii10097"/>
<glyph d="M261 265q0 -65 -75 -117q-60 -40 -110 -45q-12 -32 -12 -49q0 -35 37 -35q30 0 68 27q30 22 46 44q13 7 16 -9q-17 -24 -47 -47q-47 -34 -92 -34q-77 0 -77 76q0 77 67 155.5t126 78.5q53 0 53 -45zM220 271q0 19 -14 19q-21 0 -60 -56q-36 -50 -62 -109q45 2 90.5 52 t45.5 94zM305 393q0 -37 -34 -37q-21 0 -21 24q0 34 30 34q25 0 25 -21zM202 393q0 -37 -33 -37q-21 0 -21 24q0 34 30 34q24 0 24 -21z" unicode="ё" horiz-adv-x="264" glyph-name="afii10071"/>
</font>
</defs>
</svg>
